<?xml version="1.0" encoding="UTF-8"?>
<svg preserveAspectRatio="xMidYMid slice" width="60px" height="16px" xmlns="http://www.w3.org/2000/svg" id="Layer_2" data-name="Layer 2" viewBox="0 0 477.85 131.53">
  <defs>
    <style>
      .cls-1 {
        fill: #fff;
      }

      .cls-2 {
        fill: #f04f23;
      }
    </style>
  </defs>
  <g id="Layer_1-2" data-name="Layer 1">
    <g>
      <g>
        <path class="cls-2" d="M164.56,113.43v-27.31h6.2v22.51h11.64v4.8h-17.84Z"></path>
        <path class="cls-2" d="M189.79,113.94c-1.45,0-2.68-.24-3.72-.72-1.03-.48-1.83-1.17-2.38-2.06-.55-.89-.83-1.93-.83-3.12,0-1.07.23-2.03.68-2.86.45-.83,1.13-1.54,2.02-2.12.89-.58,1.98-1.03,3.25-1.34,1.27-.31,2.73-.47,4.37-.47h2.97v3.44h-2.12c-1.22,0-2.2.09-2.95.27-.75.18-1.3.47-1.66.87-.35.39-.53.92-.53,1.56,0,.73.23,1.31.7,1.71.47.41,1.14.61,2.02.61,1.33,0,2.33-.39,2.99-1.18s1-1.71,1-2.75v-2.33h-.13v-3.22c0-.7-.11-1.28-.34-1.73s-.57-.78-1.02-.99c-.45-.21-1.03-.32-1.74-.32-.96,0-1.71.2-2.25.61s-.86,1.03-.98,1.87l-5.52-.38c.06-1.27.43-2.39,1.13-3.36.69-.97,1.71-1.74,3.06-2.29s3.02-.82,5.03-.82,3.65.3,4.93.89,2.22,1.45,2.83,2.57.91,2.47.91,4.06v13.08h-5.9v-2.67c-.57.65-1.09,1.22-1.57,1.7s-1.05.85-1.7,1.1c-.65.25-1.5.38-2.55.38Z"></path>
        <path class="cls-2" d="M204.95,113.43v-20.09h5.86v2.89c.51-.71,1.04-1.31,1.59-1.81.55-.49,1.2-.89,1.95-1.17.75-.28,1.68-.42,2.78-.42,1.56,0,2.85.36,3.87,1.08,1.02.72,1.78,1.69,2.29,2.89s.76,2.53.76,3.97v12.66h-5.99v-12.1c0-1.02-.26-1.89-.79-2.63s-1.38-1.1-2.57-1.1c-.79,0-1.46.17-2.02.51-.55.34-.99.83-1.3,1.46-.31.64-.47,1.42-.47,2.36v11.51h-5.99Z"></path>
        <path class="cls-2" d="M235.35,113.94c-1.73,0-3.28-.43-4.67-1.3-1.39-.86-2.48-2.09-3.27-3.67-.79-1.59-1.19-3.44-1.19-5.56,0-1.24.16-2.41.47-3.48.31-1.08.74-2.05,1.3-2.91.55-.86,1.21-1.61,1.97-2.25.76-.64,1.61-1.12,2.53-1.44.92-.33,1.89-.49,2.91-.49,1.13,0,2.05.13,2.76.38.71.25,1.32.59,1.85,1.02.52.43,1.04.92,1.55,1.49v-11.3h6.03v29.01h-5.9v-2.76c-.62.65-1.22,1.23-1.78,1.72-.57.5-1.2.88-1.89,1.15-.7.27-1.58.4-2.66.4ZM237.1,109.19c.73,0,1.39-.13,1.97-.4.58-.27,1.08-.66,1.49-1.17.41-.51.73-1.12.96-1.83.23-.71.34-1.5.34-2.38,0-1.81-.43-3.23-1.3-4.27-.86-1.03-2.02-1.55-3.46-1.55-.74,0-1.4.13-1.98.4-.58.27-1.08.65-1.51,1.15-.42.5-.75,1.1-.98,1.81-.23.71-.34,1.53-.34,2.46,0,1.81.44,3.23,1.32,4.25.88,1.02,2.04,1.53,3.48,1.53Z"></path>
        <path class="cls-2" d="M266.35,114.03c-1.87,0-3.49-.34-4.86-1.01-1.37-.67-2.44-1.61-3.19-2.81-.75-1.2-1.13-2.56-1.13-4.08,0-1.18.22-2.27.66-3.27s1.05-1.88,1.85-2.64c.79-.76,1.76-1.36,2.91-1.8s2.44-.66,3.89-.66l.81,3.86c-.85,0-1.59.15-2.23.46-.64.31-1.13.75-1.49,1.32s-.53,1.27-.53,2.08c0,.67.16,1.29.47,1.85s.77,1,1.36,1.32c.59.32,1.3.48,2.12.48.9,0,1.78-.19,2.63-.57.85-.38,1.7-.98,2.55-1.81l3.4,3.69c-1.08.91-2.1,1.62-3.06,2.14-.96.52-1.93.89-2.91,1.1-.98.21-2.06.32-3.25.32ZM280.33,113.73c-.82,0-1.56-.1-2.21-.3s-1.23-.47-1.74-.82c-.51-.35-1-.77-1.49-1.24l-12.02-12.28c-.76-.79-1.35-1.63-1.76-2.53-.41-.9-.62-1.87-.62-2.91,0-1.24.23-2.34.7-3.31.47-.97,1.12-1.81,1.95-2.51.83-.7,1.82-1.24,2.95-1.6,1.13-.36,2.38-.55,3.74-.55,1.84,0,3.44.34,4.8,1.03,1.36.68,2.41,1.62,3.16,2.82s1.14,2.58,1.17,4.14l-5.94.46c0-.71-.13-1.33-.4-1.84s-.64-.93-1.13-1.23c-.48-.3-1.08-.45-1.78-.45-.59,0-1.13.13-1.61.38s-.87.62-1.17,1.09-.45,1.04-.45,1.68.14,1.23.42,1.77c.28.53.64,1.02,1.06,1.47l9.3,9.47c.73.78,1.35,1.35,1.85,1.68.5.34,1.05.5,1.68.5.28,0,.6-.05.95-.15.35-.1.72-.2,1.08-.32l.85,4.93c-.54.2-1.09.35-1.66.47-.57.11-1.13.17-1.7.17ZM268.05,101.88v-4.25h13.59v4.25h-13.59Z"></path>
        <path class="cls-2" d="M293.37,113.43v-27.31h11.42c1.61,0,3.09.33,4.42,1,1.33.67,2.39,1.61,3.18,2.83.79,1.22,1.19,2.67,1.19,4.37s-.4,3.11-1.19,4.33c-.79,1.22-1.86,2.16-3.18,2.82-1.33.67-2.8,1-4.42,1h-5.27v10.96h-6.16ZM303.47,98.1c.82,0,1.53-.15,2.12-.45s1.05-.72,1.36-1.27c.31-.55.47-1.21.47-1.97,0-1.13-.35-2.02-1.06-2.68-.71-.65-1.67-.98-2.89-.98h-3.95v7.35h3.95ZM308.61,113.43l-7.47-12.49h6.33l7.9,12.49h-6.75Z"></path>
        <path class="cls-2" d="M326.92,113.94c-2.12,0-3.99-.45-5.61-1.34-1.61-.89-2.88-2.13-3.8-3.72s-1.38-3.41-1.38-5.48c0-1.53.25-2.94.76-4.23s1.24-2.41,2.19-3.38c.95-.96,2.06-1.7,3.33-2.21s2.68-.76,4.2-.76,2.97.25,4.23.76,2.34,1.23,3.25,2.17c.91.93,1.6,2.04,2.08,3.31.48,1.27.72,2.66.72,4.16,0,.34,0,.65-.02.93-.01.28-.04.52-.06.72h-17.07v-3.57h13.76l-2.25,1.36c0-1.22-.18-2.23-.53-3.04-.35-.81-.86-1.41-1.53-1.83-.67-.41-1.46-.62-2.4-.62-.76,0-1.45.13-2.06.4-.61.27-1.11.65-1.51,1.15-.4.5-.7,1.12-.91,1.87-.21.75-.32,1.62-.32,2.61,0,1.36.2,2.51.59,3.44.4.94.98,1.65,1.74,2.15.76.5,1.67.74,2.72.74s1.91-.23,2.59-.7c.68-.47,1.13-1.1,1.36-1.89l5.39.55c-.31,1.3-.9,2.43-1.76,3.4-.86.96-1.95,1.71-3.27,2.23-1.32.52-2.8.79-4.44.79Z"></path>
        <path class="cls-2" d="M346.96,113.94c-2.89,0-5.07-.59-6.54-1.78-1.47-1.19-2.25-2.76-2.34-4.71l5.39-.43c.14.91.52,1.59,1.15,2.06.62.47,1.46.7,2.51.7.99,0,1.73-.19,2.21-.55.48-.37.72-.86.72-1.49s-.25-1.15-.74-1.49c-.5-.34-1.18-.58-2.06-.72l-2.42-.38c-1.3-.23-2.44-.59-3.4-1.08-.96-.5-1.7-1.15-2.21-1.95-.51-.81-.76-1.79-.76-2.95,0-1.3.34-2.42,1.02-3.36.68-.93,1.64-1.66,2.89-2.19,1.24-.52,2.7-.78,4.37-.78s3.13.25,4.37.76c1.24.51,2.23,1.22,2.95,2.12.72.91,1.11,1.95,1.17,3.14l-5.39.42c-.06-.51-.22-.93-.49-1.25-.27-.33-.64-.58-1.1-.76-.47-.19-1.03-.28-1.68-.28-.82,0-1.46.14-1.91.43s-.68.69-.68,1.23c0,.59.24,1.05.7,1.36s1.04.52,1.72.64l3.31.55c1.84.28,3.29.93,4.35,1.95,1.06,1.02,1.59,2.38,1.59,4.08,0,1.3-.33,2.46-1,3.46s-1.64,1.8-2.93,2.38c-1.29.58-2.88.87-4.78.87Z"></path>
        <path class="cls-2" d="M367.6,113.94c-2.15,0-4.04-.47-5.67-1.4-1.63-.93-2.89-2.2-3.8-3.8s-1.36-3.38-1.36-5.33c0-1.5.26-2.89.78-4.16s1.27-2.39,2.23-3.36c.96-.96,2.1-1.71,3.42-2.25,1.32-.54,2.78-.81,4.4-.81,2.18,0,4.08.47,5.71,1.4,1.63.94,2.9,2.2,3.8,3.78s1.36,3.38,1.36,5.39c0,1.47-.26,2.85-.79,4.12s-1.27,2.39-2.23,3.35-2.11,1.71-3.44,2.25-2.8.81-4.42.81ZM367.6,109.19c.76,0,1.44-.13,2.02-.4.58-.27,1.07-.66,1.47-1.17.4-.51.7-1.12.91-1.83.21-.71.32-1.5.32-2.38,0-1.22-.19-2.25-.57-3.1-.38-.85-.92-1.51-1.61-2-.69-.48-1.54-.72-2.53-.72-.71,0-1.36.13-1.95.4-.59.27-1.09.66-1.49,1.17s-.7,1.12-.91,1.83-.32,1.51-.32,2.42c0,1.16.18,2.17.55,3.04.37.86.91,1.54,1.61,2.02.71.48,1.54.72,2.51.72Z"></path>
        <path class="cls-2" d="M387.43,113.94c-1.59,0-2.89-.36-3.91-1.08-1.02-.72-1.78-1.68-2.27-2.89-.49-1.2-.74-2.53-.74-3.97v-12.65h5.99v12.1c0,1.02.25,1.9.74,2.63.49.74,1.32,1.1,2.48,1.1.79,0,1.46-.17,2-.51.54-.34.95-.84,1.23-1.49.28-.65.42-1.43.42-2.34v-11.51h5.99v20.09h-5.86v-2.89c-.51.68-1.02,1.27-1.53,1.78s-1.13.91-1.85,1.19c-.72.28-1.62.43-2.7.43Z"></path>
        <path class="cls-2" d="M403.19,113.43v-20.09h5.86v3.23c.4-.79.81-1.46,1.25-2.02.44-.55,1.01-.98,1.72-1.27.71-.3,1.63-.45,2.76-.45.28,0,.54,0,.79.02.24.02.45.05.62.11v5.1c-.28-.06-.59-.11-.91-.15-.33-.04-.7-.06-1.13-.06-1.08,0-1.99.18-2.74.53-.75.35-1.31.89-1.68,1.61-.37.72-.55,1.66-.55,2.82v10.62h-5.99Z"></path>
        <path class="cls-2" d="M427.44,113.94c-2.07,0-3.91-.45-5.52-1.36-1.61-.91-2.87-2.15-3.78-3.74s-1.36-3.4-1.36-5.44c0-1.56.26-2.98.78-4.27.52-1.29,1.26-2.4,2.21-3.33.95-.93,2.08-1.66,3.4-2.19,1.32-.52,2.77-.78,4.35-.78,1.75,0,3.3.28,4.65.83s2.46,1.4,3.33,2.53c.88,1.13,1.49,2.55,1.83,4.25l-5.48.42c-.28-1.05-.78-1.85-1.51-2.42-.72-.57-1.62-.85-2.7-.85-.74,0-1.4.13-2,.4-.59.27-1.1.64-1.51,1.13-.41.48-.72,1.08-.94,1.81-.21.72-.32,1.55-.32,2.48,0,1.19.19,2.22.57,3.08.38.86.92,1.53,1.61,2,.69.47,1.54.7,2.53.7,1.13,0,2.05-.28,2.76-.83.71-.55,1.2-1.41,1.49-2.57l5.56.38c-.43,2.41-1.51,4.3-3.27,5.69-1.75,1.39-3.99,2.08-6.71,2.08Z"></path>
        <path class="cls-2" d="M449.1,113.94c-2.12,0-3.99-.45-5.61-1.34-1.61-.89-2.88-2.13-3.8-3.72s-1.38-3.41-1.38-5.48c0-1.53.25-2.94.76-4.23s1.24-2.41,2.19-3.38c.95-.96,2.06-1.7,3.33-2.21s2.68-.76,4.2-.76,2.97.25,4.23.76,2.34,1.23,3.25,2.17c.91.93,1.6,2.04,2.08,3.31.48,1.27.72,2.66.72,4.16,0,.34,0,.65-.02.93-.01.28-.04.52-.06.72h-17.07v-3.57h13.76l-2.25,1.36c0-1.22-.18-2.23-.53-3.04-.35-.81-.86-1.41-1.53-1.83-.67-.41-1.46-.62-2.4-.62-.76,0-1.45.13-2.06.4-.61.27-1.11.65-1.51,1.15-.4.5-.7,1.12-.91,1.87-.21.75-.32,1.62-.32,2.61,0,1.36.2,2.51.59,3.44.4.94.98,1.65,1.74,2.15.76.5,1.67.74,2.72.74s1.91-.23,2.59-.7c.68-.47,1.13-1.1,1.36-1.89l5.39.55c-.31,1.3-.9,2.43-1.76,3.4-.86.96-1.95,1.71-3.27,2.23-1.32.52-2.8.79-4.44.79Z"></path>
        <path class="cls-2" d="M469.14,113.94c-2.89,0-5.07-.59-6.54-1.78-1.47-1.19-2.25-2.76-2.34-4.71l5.39-.43c.14.91.52,1.59,1.15,2.06.62.47,1.46.7,2.51.7.99,0,1.73-.19,2.21-.55.48-.37.72-.86.72-1.49s-.25-1.15-.74-1.49c-.5-.34-1.18-.58-2.06-.72l-2.42-.38c-1.3-.23-2.44-.59-3.4-1.08-.96-.5-1.7-1.15-2.21-1.95-.51-.81-.76-1.79-.76-2.95,0-1.3.34-2.42,1.02-3.36.68-.93,1.64-1.66,2.89-2.19,1.24-.52,2.7-.78,4.37-.78s3.13.25,4.37.76c1.24.51,2.23,1.22,2.95,2.12.72.91,1.11,1.95,1.17,3.14l-5.39.42c-.06-.51-.22-.93-.49-1.25-.27-.33-.64-.58-1.1-.76-.47-.19-1.03-.28-1.68-.28-.82,0-1.46.14-1.91.43s-.68.69-.68,1.23c0,.59.24,1.05.7,1.36s1.04.52,1.72.64l3.31.55c1.84.28,3.29.93,4.35,1.95,1.06,1.02,1.59,2.38,1.59,4.08,0,1.3-.33,2.46-1,3.46s-1.64,1.8-2.93,2.38c-1.29.58-2.88.87-4.78.87Z"></path>
      </g>
      <path class="cls-1" d="M233.37,30.57v6.33c1.25-2.58,2.67-4.42,4.25-5.58s3.92-1.75,7-1.75c1.09,0,2,.08,2.75.25v10c-1.25-.25-2.58-.42-4-.42-3.25,0-5.75.75-7.34,2.33-1.58,1.58-2.41,4-2.41,7.42v20.84h-11.75V30.57h11.5Z"></path>
      <path class="cls-1" d="M286.89,39.74c-1.83-3.08-4.33-5.58-7.58-7.42-3.25-1.83-6.92-2.75-11.09-2.75s-7.75.92-11,2.75c-3.25,1.83-5.83,4.33-7.58,7.42-1.75,3.17-2.67,6.67-2.67,10.58s.92,7.34,2.67,10.5c1.75,3.17,4.33,5.67,7.58,7.42,3.25,1.83,6.92,2.75,11,2.75s7.84-.92,11.09-2.75c3.25-1.75,5.75-4.25,7.58-7.42,1.75-3.17,2.67-6.67,2.67-10.5s-.92-7.42-2.67-10.58M275.05,58.58c-1.67,2.08-3.92,3.08-6.84,3.08s-5.08-1-6.67-3.08c-1.67-2-2.5-4.75-2.5-8.25s.83-6.25,2.5-8.33c1.58-2.08,3.83-3.08,6.67-3.08s5.17,1,6.84,3.08c1.58,2.08,2.42,4.83,2.42,8.33s-.83,6.25-2.42,8.25"></path>
      <path class="cls-1" d="M291.59,58.25l10.59-.83c.25,1.75,1,3.08,2.25,4,1.25.92,2.83,1.42,4.92,1.42,1.92,0,3.33-.33,4.33-1.08.92-.75,1.42-1.67,1.42-2.92s-.42-2.17-1.33-2.92c-.92-.67-2.33-1.17-4.17-1.42l-4.75-.75c-4-.67-7.09-2-9.25-3.92s-3.25-4.58-3.25-7.83c0-3.75,1.5-6.84,4.42-9.09,2.92-2.25,6.92-3.33,11.84-3.33s8.75,1.08,11.84,3.25c3.08,2.25,4.67,5.08,4.84,8.59l-10.59.83c-.17-1.42-.83-2.58-1.92-3.33-1.08-.75-2.58-1.17-4.5-1.17-1.58,0-2.83.25-3.75.83-.92.58-1.33,1.33-1.33,2.42,0,2.08,1.58,3.42,4.75,3.92l6.5,1.08c3.67.58,6.5,1.92,8.59,3.92,2.08,2,3.08,4.67,3.08,7.92,0,3.92-1.5,7.09-4.5,9.5-3,2.42-7.17,3.67-12.59,3.67s-9.83-1.17-12.75-3.42c-2.92-2.25-4.5-5.42-4.67-9.34"></path>
      <path class="cls-1" d="M369.65,39.66c-1.58-3.17-3.75-5.67-6.5-7.42-2.75-1.75-5.75-2.67-9-2.67-2.08,0-3.83.25-5.25.75s-2.67,1.17-3.58,1.92c-.92.84-2.08,2-3.5,3.59V13.07h-11.75v56.93h11.5v-4.75c1.58,1.42,2.92,2.5,3.92,3.25,1,.75,2.17,1.33,3.58,1.75,1.33.5,2.92.75,4.84.75,3.42,0,6.5-.83,9.25-2.58,2.75-1.75,4.92-4.17,6.5-7.34,1.58-3.08,2.33-6.67,2.33-10.75s-.75-7.5-2.33-10.67M357.56,58.58c-1.75,2.08-4,3.08-6.92,3.08s-5.08-1-6.75-3.08c-1.75-2.08-2.58-4.83-2.58-8.25s.83-6.25,2.58-8.33c1.67-2.08,3.92-3.08,6.75-3.08s5.17,1,6.92,3c1.67,2.08,2.5,4.83,2.5,8.33s-.83,6.33-2.5,8.34"></path>
      <polygon class="cls-1" points="369.76 30.57 382.51 30.57 391.18 53.16 399.93 30.57 411.52 30.57 389.01 84.83 377.68 84.83 385.26 67.33 369.76 30.57"></polygon>
      <path class="cls-1" d="M205.96,47.74c-1.97,6.65-8.06,11.54-15.34,11.54-8.86,0-16.07-7.21-16.07-16.07s7.21-16.08,16.07-16.08c7.28,0,13.37,4.89,15.34,11.54h12.3c-2.17-13.33-13.71-23.51-27.65-23.51-15.49,0-28.05,12.56-28.05,28.05s12.56,28.05,28.05,28.05c13.94,0,25.48-10.18,27.65-23.51h-12.3Z"></path>
      <path class="cls-2" d="M140.19,106.77c-.32-.19-.7-.18-1.01.02-13.33,8.61-30.89,13.85-50.13,13.85-41.13,0-74.57-23.91-75.47-53.64-.01-.41-.02-.82-.02-1.23s0-.82.02-1.23c.9-29.74,34.35-53.64,75.47-53.64,23.34,0,44.2,7.7,58.04,19.79.79.69,1.95-.17,1.52-1.12l-7.82-17.32-2.29-5.08c-.26-.58-1.01-.76-1.5-.35-1.04.88-2.91,1.94-5.37,1.18h0C118.99,2.91,104.48,0,89.05,0,39.87,0,0,29.44,0,65.76s39.87,65.76,89.05,65.76c23.42,0,44.72-6.68,60.61-17.59.58-.4.54-1.27-.06-1.63l-9.41-5.54Z"></path>
      <path class="cls-2" d="M86.81,108.64c-10.58,0-19.89-1.49-19.98-1.5-.69-.07-.83.25-.44.34,0,0,7.4,3.65,18.7,3.84,16.73.27,22.34-3.74,22.63-3.79.23-.09.46-.18.69-.25v-.09c0-.05-.02-.07-.05-.11-.81.1-10.96,1.56-21.54,1.56Z"></path>
      <g id="uGGjhC">
        <g>
          <path class="cls-2" d="M99.94,62.09c.63-.61,1.64-.68,2.4-1.16.08-.05.24-.16.01-.14-1.83.5-3.5,1.53-5.41,1.76-.04-.2.04-.13.15-.19,1.47-.72,3.02-1.32,4.29-2.38.01-.06-.07-.05-.11-.04-.82.26-2,1.05-2.85,1.44-.71.33-1.45.63-2.17.93.29-.35.81-.52,1.2-.75,1.14-.67,2.52-1.48,3.54-2.28.03-.03.22-.15.12-.19l-4.22,2.3c-.12-.08.03-.17.08-.23.39-.46.9-.86,1.34-1.26.01-.06-.07-.05-.11-.04-.23.07-.98.68-1.19.88-.41.37-.72.84-1.15,1.19l1.46-2.03,2.3-2.3c.01-.06-.08-.05-.11-.04-.18.08-.99.78-1.19.96-.77.69-1.67,1.66-2.22,2.53-.24.38-.38.81-.66,1.18-.08.11-.43.61-.57.47.17-1.97,1.56-3.59,2.64-5.13.04-.06.21-.15.08-.23-.98,1-1.94,2.15-2.49,3.45-.16,0-.04-.21-.02-.28.24-.59.67-1.21,1.01-1.75.02-.17-.02-.14-.12-.04-.7.75-1.67,2.47-1.9,3.47-.13.54-.11,1.04-.19,1.57l-.86.86c-.04-.51.12-1.02.31-1.49.02-.04.39-.55.11-.43-.67.29-.68,1.88-.84,2.46-.04.14-.02.18-.19.15.31-1.84.51-3.8,1.91-5.17l-.11-.11-.42.31c-.01-.11,0-.21.04-.31.07-.25.67-1.41.82-1.63.18-.26.43-.34.6-.59-2.02.68-3.55,2.35-5.67,2.76-.04-.24.12-.32.28-.45.8-.63,2.31-.8,3.01-1.74.03-.17-.08-.11-.19-.11-.19-.01-.39,0-.58,0l.54.08c-.38.48-1.12.71-1.69.88-.24.07-.74.24-.96.27-.11.01-.15,0-.11-.11.03-.11.54-.75.65-.88.61-.7,2.24-1.65,3.14-1.76.73-.09,1.53-.03,2.26-.16.03-.08-.18-.15-.19-.15h-2.11l.38-.42c.01-.06-.08-.05-.11-.04-.21.09-.51.34-.78.45-.28.12-.77.31-1.06.32-.12,0-.22.05-.19-.11.07-.16.76-.66.94-.74.15-.07,1.54-.52,1.62-.52h2.72l-.66-.22-1.26-.09c.09-.24.63-.33.69-.54-.93.23-1.89.7-2.84.92.2-.44.28-.81.75-.97.71-.24,1.32-.16,2.04-.1.07,0,.06.11.04.15.95-.23,2.21.35,3.22.15l-1.92-.46.11-.16.66-.3c-.53.03-.96.31-1.49.31-.41,0-.82-.11-1.23-.16-.28-.03-.73.12-.88-.15,1.77-.95,3.66-.04,5.52-.39,0-.11-.27-.11-.37-.13-.76-.13-1.54-.25-2.31-.25-.15-.11.85-.22.96-.23.32-.02.76-.03,1.07,0,.46.03,1.09.26,1.53.24.11,0,.24-.03.27-.16-.73-.03-1.47-.33-2.19-.38-.4-.03-.82.01-1.23,0-.09,0-.29.06-.27-.08,1.43-.55,2.97-.34,4.44-.61.03-.08-.18-.15-.19-.15h-1.49l.77-.31c-.06-.19-.27-.16-.42-.15-.98.04-2.1.62-3.05.87-.08.02-.24.12-.29.02,1.09-.82,2.34-1.4,3.64-1.8.13-.1-.09-.08-.15-.08-.72.08-1.42.33-2.08.6l-2.02,1.24c.72-1.31,2.22-1.9,3.3-2.87l-.36.1-2.02,1.24,1.53-2.03c.01-.06-.08-.05-.11-.04-.09.04-.76.75-.88.88-.55.61-1.32,1.63-1.59,2.39-.25.7-.04,1.2-1.01,1.25-.22-1.61.95-2.77,1.67-4.04.04-.07.17-.19.05-.25-.72,1.03-1.81,2.23-2.01,3.51-.06.38.06.86-.18,1.2-.11.15-1.25.78-1.37.66-.04-1.07.13-2.14.39-3.17.07-.27.2-.54.27-.81.02-.08.1-.25-.04-.23-.62,1.06-.93,2.26-1,3.49-.04.78.35,1.15-.69,1.42-.11-1.53.32-3.01.52-4.5.01-.08.08-.26-.06-.25-.47,1.6-.74,3.25-.7,4.93l-.67.51c-.03-1.69.6-3.33.83-4.95.01-.08.06-.28-.07-.26-.39,1.49-.83,2.95-1,4.48-.1.88-.13.97-.35,1.8l-.42,1.61s-.15-.1-.15-.11v-3.03c-.12.04-.15.35-.18.47-.24,1.05.02,2.06-.13,3.01-.02.13-.08.3-.22.35-.28-1.67-.26-3.33.02-5,.14-.81.39-1.59.51-2.4-.1-.13-.08.07-.1.13-.4,1.23-.81,2.56-.9,3.86-.1,1.5.14,3.07-.08,4.56-.11,0-.14-.28-.14-.35-.03-.33.02-.67-.01-.99-.09-.98-.93-2.03-1.42-2.88l.34,1.22-.76.32c-.04-.29.07-.38.31-.5-.37-.11-.17-.45-.27-.73-.29.24-.12.67-.34.96-.15.19-1.34,1.2-1.57,1.34-.09.06-.15.1-.27.07,0-.49-.05-1.14.23-1.57.13-.21.78-.8,1-1,.88-.78,1.9-1.41,2.76-2.22-.15-.05-.4.16-.53.24-1.17.71-2.15,1.64-3.15,2.56.36-.86,1.26-1.37,1.88-2.07.18-.2.72-.84.8-1.04.01-.04.02-.13-.04-.11l-2.38,2.3c-.16.03-.13-.06-.1-.18.06-.2.63-1.38.75-1.55.5-.7,2.38-1.14,2.99-1.92-.14-.09-.37.05-.51.1-.69.28-1.55,1.01-2.22,1.15-.24.05-.05-.33.02-.43.2-.29,1.35-.77,1.71-.94.02-.13-.18-.08-.27-.08-.31.03-.59.2-.88.19.28-.34.74-.65,1-1,.14-.19.26-.58.41-.7.31-.28,1.83-.69,2.33-.93.12-.06.24-.1.33-.21-.37-.08-2.29.82-2.45.65l-.04-.31c-.33.54-.79.74-1.42.77.47-.68,2.93-1.85,3.07-2.57.03-.18-.13-.13-.25-.1-.84.21-1.56.89-2.62.91-.1,0-.15,0-.12-.12.06-.18.51-.75.69-.85.96-.19,2.04-.66,2.97-.86.18-.04.37-.01.56-.02l-.08-.23c.54-.19.99-.01,1.53-.15l-.69-.08.08-.15c-.21-.04-.4.1-.61.04-.28-.07-.79-.33-.29-.53.83-.33,1.92-.35,2.59-1.05-.77.18-2.72,1.01-3.43.71-.11-.05-.12-.02-.1-.17l1-.38c-.27.01-.53.13-.81.15-.08,0-.29.06-.27-.07,1.68-.37,3.27-.92,4.6-2.03.01-.06-.07-.05-.11-.04-1.18.37-2.17,1.26-3.61,1.45-.08.01-.28.07-.26-.07l4.9-2.76c-.11-.08-2.1.83-2.51.9-.11.02-.28.09-.25-.1,1.06-.64,2.15-1.26,2.99-2.18l-3.68,2.14c-.03-.14.08-.18.15-.27.43-.52,1.14-.98,1.61-1.54.18-.22.45-.57.56-.82.03-.07.14-.3-.02-.29-.58,1.18-1.83,1.94-2.76,2.84.22-1.24,1.09-2.17,1.67-3.2.04-.07.17-.19.05-.25-1.12,1.16-1.67,2.59-2.38,3.98-.05.09-.07.21-.19.23-.12-1.59.86-2.9,1.44-4.27.03-.07.17-.2.05-.26-1.09,1.36-2.06,3.19-1.8,4.98.3.01.42-.28.69-.43.18-.1.42-.17.62-.23.13-.04,1.24-.35,1.22-.08l-2.87,1.42c-.2.02-.08-.03-.05-.13.07-.27.1-.38.09-.67,0-.09.05-.29-.08-.27.08.47-.22.76-.37,1.12-.13.31-.21.74-.47.95.2-.61.41-1.21.57-1.84.35-1.34.84-3.25,1.01-4.58.01-.09.1-.4-.05-.4-.66,2.29-1.06,4.86-1.94,7.07-.03.08-.02.23-.13.21-.06-1.32-.2-2.53.02-3.85.1-.62.36-1.27.43-1.87,0-.08.07-.28-.07-.26l-.86,2.94c-.64.27-.53.95-.72,1.5-.18.54-.45,1.05-.61,1.61-.27.94-.42,1.93-.42,2.91-.09.12-.14,0-.15-.11-.07-.59-.04-1.84,0-2.46.05-.71.28-1.4.39-2.1-.05.1-.36.3-.37.32-.03.05.07.16.03.29-.03.1-.24.35-.31.46l-.19-.38c-.09.39-.26.75-.36,1.13-.45,1.74-.53,3.92-.23,5.7.09.54.27,1.04.44,1.56l-.54,1.26c-.16.16-.22-.35-.23-.42-.07-.78.13-1.56.08-2.34l-.31,1.15c-.18.02-.12,0-.16-.11-.18-.5-.18-1.2-.22-1.73-.12.03-.19.34-.21.44-.03.16-.02.32-.02.48-.2-.16-.22-.75-.23-1.03-.06-1.06.02-2.2.08-3.26.11-.02.1.14.11.23.09.4.14.8.26,1.2.06.2.11.19.09,0-.05-.53-.21-1.05-.17-1.59l-.44-.82c-.29,1.39-.47,2.82-.3,4.24.08.69.43,1.53.45,2.15.02.48-.1,1.33-.17,1.83-.01.09-.04.41-.18.35-.64-.39-.07-.86-.19-1.46-.16.02-.38.58-.54.46.28-.43-.14-.76-.16-1.11-.03-.42.18-1.56.25-2.06.09-.68.35-1.35.29-2.04l-.5,1.61-.38,2.15c-.28-.63.11-1.33.04-1.99l-.23.96-.16.26c-.25-1.42-.4-2.91-.25-4.35l1.32-.94c-.56-.08-1.13.4-1.57.53-.41.12.16-.53.23-.61.56-.53,1.29-.89,1.88-1.38l-2.41,1.45c-.12-.09.05-.21.11-.27.44-.42,1.02-.69,1.46-1.11-.56.06-1.01.39-1.51.6-.07.03-.2.17-.26.05l3.6-2.42-.38-.04c.38-.3,1.59-1.14,1.76-1.53.01-.03.02-.13-.04-.11-.86.8-1.9,1.62-3.1,1.76l.23-.34c.05-.15-.51.3-.58.34-.1.05-.22.1-.33.13-.05.02-.3.1-.2-.04,1-.8,2.25-1.18,3.28-1.93.46-.33,1.08-.83,1.28-1.37-.58.58-1.23,1.05-1.92,1.49-.88.55-2.15,1.32-3.06,1.77-.1.05-.29.18-.39.07,1.21-.94,2.58-1.79,3.76-2.76.54-.44,1.2-.99,1.45-1.65-.5.46-1.01.91-1.54,1.33-.43.33-2.18,1.69-2.56,1.81-.05.02-.13.02-.11-.04l2.15-3.14c-.07-.12-.17.02-.23.07-.52.5-.98,1.2-1.49,1.73-.06.01-.05-.07-.04-.12.06-.28.83-1.22,1.03-1.58.29-.53.42-1.21.89-1.6-.55.24-1.12.43-1.66.68-.09.04-.69.52-.64.21.03-.17.17-.36.21-.55.02-.08.08-.27-.06-.25-.13.4-.26.93-.57,1.23-.09.09-1.03.71-1.11.73-.1.03-.23,0-.23-.08v-1.23s-.09-.1-.07-.21c.55-.66,1.49-.8,2.22-1.16.63-.31,1.54-.99,2.07-1.46.14-.12.96-.91.99-1,.02-.03.02-.13-.04-.11-1.24.96-2.53,2.16-4.1,2.53l.61-.65c.03-.09-.02-.15-.11-.11-.25.11-.65.61-.97.8-.1.06-.82.43-.83.16.1-.18.19-.29.36-.41.82-.58,2.09-1.01,2.99-1.53.41-.24.79-.54,1.17-.82l-3.64,1.65c-.23.01-.06-.09.01-.14.42-.32.93-.57,1.25-1.01-.28-.05-.46.08-.69.19-.42.2-1.01.75-1.34.88-.3.12.19-.63.24-.68.72-.91,2.96-.85,4.2-1.78.19-.14.69-.44.55-.68-.7.46-1.39,1.03-2.26,1.07l.23-.34-1.07.34c.14-.26.43-.35.61-.57.12-.15.16-.35.27-.49.59-.78,2.48-.81,2.85-2.13.02-.07.07-.27-.06-.25-.32.94-1.51,1.2-2.38,1.38.24-.7.89-.93,1.38-1.42-.06-.11-.18.02-.25.05-.25.14-.43.27-.71.37-.1.04-.22.16-.19-.04.34-.45.74-1,1.11-1.42.48-.54,1.1-.85,1.34-1.65.01-.23-.08-.05-.14.01-.25.3-.53.79-.82,1.02-.41.32-1.06.53-1.46.92l.15-1.3c.85-.52,1.89-1.1,2.26-2.07-.63.69-1.4,1.06-2.18,1.53l-.08-.15c-.05.14-.64.7-.73.61.69-.92,1.76-1.57,2.49-2.45.17-.21.49-.61.46-.84l-1.11,1.11-1.15.88c-.12-.13.95-1.13,1.07-1.27.19-.22.75-.93.84-1.15.01-.04.02-.13-.04-.11-.54.46-.93,1.07-1.42,1.57-.07.07-.46.5-.54.42.04-.2.21-.4.32-.56.28-.4.98-1.16,1.13-1.55.01-.04.02-.13-.04-.11-.19.21-.42.4-.61.61-.08.09-.61.89-.73.77l1.23-3.22c-1.03,1.13-1.29,2.79-2.11,4.06-.17-.99.2-1.93.42-2.87-.05-.11-.15.1-.17.14-.84,1.42-.6,2.63-.83,4.19-.12,0-.13-.26-.14-.35-.23-1.38-.32-2.58-.24-3.97,0-.08.05-.29-.08-.27-.35,1.27-.27,2.63-.06,3.92.08.45.46,1.53.43,1.86-.02.28-.47,1.19-.69,1.42-.27-.76.36-1.08.46-1.76l-.61.69-.27-1.76c-.27.37-.22,1.04-.19,1.49.04.47.35.89-.08,1.31-.05.07-.14-.05-.15-.08-.04-.14.09-.91.07-1.22-.04-.63-.26-1.57-.41-2.2-.02-.09,0-.31-.13-.29-.25,1.08.3,2.01.23,3.11-.01.24-.27,1.64-.5,1.64l-.27-.69c-.01.36.04.71-.06,1.06-.04.14.02.2-.17.17.1-1.31.2-2.63.15-3.95,0-.09.06-.29-.08-.27-.28,1.47-.27,2.96-.42,4.45-.81,1.21-2.51,1.66-2.96,3.14-.2.04-.12-.03-.16-.11-.31-.61-.15-.75.13-1.34.39-.8,1.02-1.47,1.33-2.31-.72.71-1.15,1.66-1.7,2.48-.05.08-.15.24-.14.01.72-1.42,1.55-2.82,1.53-4.49l-.75,2.2-1.13,1.86c.12-1.89.93-3.7.96-5.59l-1.23,4.67c-.13,0-.08-.34-.08-.42.03-.35.17-.68.16-1.03l-.31.46c.08-.81.11-1.57.27-2.38.17-.83.5-1.62.65-2.45l-.77,1.88c-.1.11-.14-.2-.15-.24-.03-.26,0-.53,0-.8l-.11.39h-.19c-.06.09.16,1.02.16,1.26,0,.23-.2,1.81-.27,1.96-.01.03-.09.09-.12.08-.15-.45-.06-.92,0-1.38l-.23.31c-.36-2.17,1.53-3.9,1.53-6.05l-1.72,4.44-.19.23.53-1.58c-.04-.33-.28.55-.42.5-.12.02-.13.01-.11-.11.05-.42.3-.86.42-1.27.24-.83.56-1.74.34-2.61l-.17,1.4-.32.75-.13-1.41-.14-.59c.03,1.26-.08,2.53-.35,3.75-.21-.49-.31-1.13-.4-1.67-.14-.87-.2-1.75-.33-2.62l-.15.65.15,2.49c-.22.04-.13-.05-.17-.17-.33-.83-.54-1.86-.59-2.74-.14.03-.14.15-.16.27-.13,1.12.34,2.23.69,3.26-.55-.72-.72-1.75-1-2.61-.13-.02-.08.18-.08.27,0,.33.12.64.04.96l-1.03-2.07c.11,1.03.72,2.19,1.28,3.04.29.44.97,1.07,1.13,1.48.18.44.08.91.35,1.34-.06.12-.14,0-.2-.03-1.05-.62-1.67-1.72-2.45-2.61l-.04.11c.57.86,1,1.81,1.8,2.49.7.6,1.88.99,1.87,2.07-1.77-.28-3.12-1.39-4.1-2.83-.12.06.02.18.05.25.44,1.04.99,2.16,2.01,2.75.43.25,1.05.39,1.43.72.31.27.61.77.96,1.11.3.28,1.16.84,1.27,1.19.03.1,0,.14-.11.11-.31-.09-.81-.47-1.11-.66-.07-.04-.17-.19-.24-.07.8.91,1.78,1.65,2.45,2.68-.09.11-.25-.08-.33-.13-.71-.47-1.55-1.16-1.97-1.9-.19.02.06.38,0,.46l-3.18-2.76c-.03.2.3.58.46.77,1.1,1.28,2.24,1.88,3.52,2.84.49.37.9.84,1.34,1.26-.1.09-.31-.08-.41-.13-.36-.2-.87-.7-1.17-.83-.04-.01-.13-.02-.11.04.69,1.06,2.04,1.26,2.91,2.11-.37-.09-.78-.22-1.12-.37-.76-.32-2.79-1.46-3.16-2.13-.06-.1-.08-.22-.08-.34l-.19.3c-.43-.44-1.22-.65-1.34-1.3l-.09.22-.22.05c.37.28.43.59.38,1.04-.26-.19-.36-.54-.55-.79-.05-.07-.16-.24-.14-.01.43.78.58,1.63.76,2.49-.15.13-.46-.49-.51-.6-.21-.43-.27-.89-.45-1.32-.18-.44-.48-.83-.57-1.3-.13-.02-.08.19-.08.27.01.18.08.35.08.52-.03.53-.46,1.21-.15,1.81-.31.03-.43-.23-.46-.5-.1-.83.12-1.73.08-2.57l-.14.58c0,.36,0,.72-.09,1.06-.03.12.05.13-.15.11l-.36-1.67-.48-1.01c.41,1.01.27,2.15.77,3.1.02.05-.07.06-.11.04-.29-.13-.97-1.45-.96-1.84l-.08.34-.15.04-1.5-2.76c-.01.2.09.49.16.69.43,1.24,1.18,2.33,1.95,3.37-1.24-.44-1.79-1.92-3.07-2.37l1.23,1.34c-.22.09-.96-.51-1.07-.42.74.75,1.76,1.22,2.57,1.92.57.49,1.03,1.13,1.65,1.57.13.25-.59-.04-.63-.06-1.36-.54-2.31-1.57-3.31-2.59-.12.07.03.17.07.24.71,1.15,1.77,2.24,3.1,2.65.37.12,1.4.23,1.63.44.07.07.14.21.04.27l-1.95-.35c.55.43,1.33.54,1.94.81.17.07,1.08.62,1.12.72.01.03.03.19-.04.19-.55,0-1.16-.04-1.7-.14-.15-.03-.09,0-.1.14.92.29,1.93.22,2.85.41.41.08.93.21,1.06.67-.45,0-.95.05-1.34-.23-.13.18.27.32.41.36.67.21,1.75,0,1.93.86-1.05-.18-2.12-.67-3.14-.88-.04,0-.38-.11-.27.04.81.79,3.02.84,3.75,1.31.17.11.35.54.51.72.43.49,2.02,1.59,2.14,2,.03.1-.02.15-.11.11-.15-.06-.71-.74-.92-.92-.99-.83-2.24-1.27-3.48-1.53l2.68,1.35c.34.24,1.04.8,1.08,1.22,0,.1.04.24-.12.19l-2.57-1.45c.85.77,1.94,1.56,2.94,2.16.21.13.88.37.98.48.14.16.34,1.07.37,1.32,0,.09.07.77-.14.57-.24-.66-.56-1.69-1.28-1.98-.12-.05-.56-.18-.56.02v1.19l-.52-1.13c-.21-.53-1.63-1.65-2.16-1.29-.08.06-.41,1.21-.53,1.11-.17-.74-.37-1.5-.85-2.11-.28-.36-2.01-1.81-2.4-1.72-.38.09-.49,1.4-.97,1.6l.52-1.56c-.4-.52-.34-1.42-1.28-1.26-.28.47-.3,1.19-.54,1.64-.06.11-.06.22-.23.19,0-.73.49-1.15.36-1.94-.09-.57-.67-.93-1.17-.6-.41.27-.18.91-.38,1.31-.3-.43-.14-.93-.43-1.41-.08-.13-.75-.78-.75-.4v2.11l-.22-.58c.06-1.07-.11-2.34-1.49-1.79-1.09.43-.89,1.31-1.06,2.23-.07.34-.33,1.26-.43.39-.04-.34.11-1.54-.16-1.68-.46-.23-1.04.48-1.43.65-1.15-1.07-1.95,1-2.15,1.9-.05.22,0,.44-.04.65-.03.17-.47.8-.37.9,1.38.07,1.34-1.48,1.75-2.35.1-.22.19-.45.47-.41.06.66-.13,1.17-.47,1.71-.34.52-1.62,1.65-1.43,2.23.07.18.22.13.37.09.45-.13,1-.72,1.28-.79.33-.09.88,0,1.25-.09l-1.46.88c-.19.16-.73.74-.54.99.54.06,1.09.53,1.6.37.19-.06,1.39-.97,1.48-.51.1.48-2.18,1.57-2.28,1.93-.25.82.43.92,1.06.71.13.12-.67.52-.31.88.21.21,1.22,0,1.54-.08.46-.11.66-.19.99-.54.27-.29.64-1.11.89-1.25.36-.2.98.04,1.22-.15.13-.1.14-.39.23-.54.5-.85,1.2-1.12,1.99-1.61.34-.21,1.01-.99,1.42-.43.32.43-.45.99-.65,1.27-.51.74-.72,1.38-1.55,1.9-.07.04-.2.16-.25.05.9-.6,1.86-1.76,1.84-2.87-1.38.19-2.53,1.41-2.76,2.76-1.41-.41-1.33.35-1.96,1.14-.52.65-.74.45-1.45.55-.58.08-.32.64.17.74l.63.09c-.87.07-1.55.65-.77,1.42.1.1.63.46.75.48.55.12.99-.76,1.48-.49.13.08.03.13-.04.19-.2.19-.54.31-.57.66-.03.35.28.91.3,1.28.49.31,1.02.13,1.54.05-.21.31-.79.5-.5,1,.19.32,1.25-.1,1.57-.15-.02.34-.51.37-.54.72,0,.35,1.82-.18,2.02-.27.63-.3.84-1,1.55-1.21.36-.11.6-.05.95-.28.8-.53.88-1.75,1.82-2.24,1.6-.85,1.82.71,1.71,1.94-.04.42-.21.74-.5,1.03-.03-.23.22-.39.29-.63.25-.76.12-2.69-1.04-2.42-.52.12-.93,1.19-1.22,1.62-.24.35-.53.64-.82.94-.04.22.69.45.84.6l.92.34c-.89.12-1.47-.16-2.03-.83-.75.4-1.35,1.07-2.14,1.37-.39.15-.92.12-1.18.51-.06.24.38.51.61.48v.11c-.33.2-.14.55-.38.8.69.46,1.46.4,2.22.62l-.31.08c.03.95,1.44.31,1.99.15-.23.27-.68.62-.12.85.07.03.58.15.62.15h1.26c-.07.15-.33.09-.42.31-.03.06-.06.12-.04.19.1.34,1.76.08,2.08.02,1.26-.22,2.56-.75,3.42-1.71l-.18-.34-1.8-.92c.43.03.9.18,1.28.37.81.39,1.47,1.46,2.36.63l.88-1.03c.2.8.42,1.59.69,2.38.13.37.37.75.48,1.13.6,1.95-.17,4.16-.25,6.15-.01.34.02.69,0,1.04l.38-.15c.14.14-.81.79-.92.69.32-1.09.21-2.91-.61-3.77-.82-.86-1.49,1.33-1.59,1.92-.08.45.06,1.16-.33,1.47-.15-.41-.21-.9-.15-1.34.04-.28.23-.57.23-.92.01-1.05-.52-2.34-1.5-2.8-.34,0-.1.77-.11,1.04-.01.43-.3,1.58-.52,1.93-.05.08,0,.14-.17.1-.53-.81.06-1.19.15-1.88.08-.6.02-1.38-.31-1.9-.19-.28-.69-.79-1.02-.43-.13.14-.48,1.16-.67,1.48-.06.1-.55.86-.67.74,1.66-1.89-.39-4.25-2.03-1.99-.33-.08-.32-.43-.38-.69l-.16.23-.11.62c-.09-1-.92-1.59-1.87-1.68-.31.1.06.93.06,1.23,0,.14.01.36-.18.3-.12-.45-.26-1.51-.72-1.69-.26-.1-.95-.1-1.12.13-.17.23-.26,1.35-.38,1.74-.05.16-.25.77-.46.58l-.24-1.14c-.35-.15-.57.46-.8.46-.27,0-.24-.56-.46-.55-.43.02-.48.62-.78.84-.35.26-.79.09-1.13.55-.33.44-.11.75-.22,1.16-.05.2-.48.67-.61,1-.32.85-.41,2.79.2,3.5.45.52.82.26,1.23-.15.65-.67.9-2.06,2.11-1.92-.25.67-1.31.8-1.3,1.61h.92c.09.96-1.74.73-1.9,1.28-.13.43.38,1.04.8,1.09.55.07.82-.45,1.33-.38.23.23-.76.52-.83.82-.05.17.15.33.29.37.8.25,1.77-.55,2.61-.19-.34.78-1.19.62-1.88.76-.04,1.44,1.83,1.89,2.91,1.3.39-.22.62-.72,1.2-.68-.06.13-.23.16-.35.3-.17.2-.22.44-.46.62-.46.34-1.53.35-1.33,1.25.08.35,1.2.99,1.55.98,1.02-.03,1.29-.66,2.03-1.12.66-.4,1.54-.75,2.3-.88l-1.31.95c-.34.31-2.01.87-2.03,1.31-.03.7,1.58,1.4,2.19,1.27-.61.88-.18,1.09.61.54.07.07-.8.98-.34,1.07.09.02,1.05-.63,1.18-.73.21-.17.65-.72.83-.78.27-.1.45.35.71.48-.61.96-2.87.59-2.17,2.18.32.74.9.2,1.33.05.42-.15.87-.19,1.25-.44.18-.12.5-.55.7-.52.14.02.07.15.06.21-.03.23-.27.76-.14.94,1.5.5,1.74-1.12,2.53-1.92.2.25.16.61.34.88.31.46.89.38,1.36.21.43-.16.76-.52,1.17-.7.02.24-.31.33-.37.51-.04.14-.02.29,0,.44.06.58.76,3.13,1.01,3.67.19.39.77.93,1.15,1.15.13.07.69.17.33.3-.24.09-.49.07-.74.07.51.71,1.61.47,2.38.46-.01.11-.34.13-.43.14-.35.04-.7.04-1.06.09-.11.02-.23-.07-.19.11.29.3.64.55.97.79.46.34,1.09.46,1.09,1.12,0,1.05-.46,2.54-.53,3.69-.05.78-.02,1.67.07,2.44l-.76.35c.37-1.35.56-2.66-.17-3.93-.19-.33-.97-1.59-1.31-1.03-.49.83-.02,2.32-.93,2.89-.55-.38.1-.74.18-1.27.12-.84-.13-1.69-.62-2.36-.95-1.31-.68-.18-.76.59-.06.53-.27,1.51-.6,1.93-.06.07-.29.34-.38.27-.44-.87.06-1.11.34-1.76.28-.65.43-1.7.03-2.32-.12-.18-.24-.32-.48-.28-.28.04-.67,1.07-.87,1.36-.06.09-.44.66-.55.56.68-.68.93-2.52-.22-2.8-1.16-.28-1.13.94-1.61,1.58l-.23-1.61c-.25.13-.09.56-.19.77-.25-.27-.14-.62-.28-.95-.19-.49-1.07-.98-1.6-.89l.23.96-.15.04c-.1-.66-1.22-1.64-1.87-1.23-.29.18-.04,1.7-.05,2.08-.34-.15-.71-.91-1.04-.92-.38-.02-.89.71-1.08.76-.3.07-.77-.45-1.25-.1-.16.12-.8,1.26-.93,1.52-.56,1.08-1.05,2.49-.41,3.66.12.22.32.33.41.52.12.27,0,.58.1.86.6.06.8-.77,1.38-.76.08.47-.74.92-.81,1.22-.15.58,1.24-.13,1.37-.17.28-.09,1-.25,1.19.04.14.21.04.71.63.67.01.15-.23.06-.31.04-.69-.14-.97-.8-1.68-.16-.16.14-.24.31-.38.46l.61.27c.16.22-.71.32-.5.69.07.13.9.8,1.11.57l.16.09-.38.88c.56.09.98-.25,1.46-.46-.19.31-1.28.91-.99,1.33.41.6,1.19-.13,1.72.28l-.64.24c-.26.42,1.33,1.47,1.75,1.45.05.26-.4.26-.46.43-.16.54,1.29.43,1.63.17.3-.22.49-.85.51-1.22l1.07.23c-.24.6-1.88,1.18-1.92,1.73-.04.64,1.22.74,1.68.73l.09.37.76.05c.13.09.04.11-.04.19-.24.24-.81.46-.42.88.42.46,1.4.03,1.88-.19l.11.35c.16.12.92-.04,1.12-.12.25-.1.39-.33.65-.39.01.18-.07.34-.17.48-.14.22-.41.35-.48.59,1.54.15,2.29-.87,3.26-1.8.07-.07.14-.17.15-.27.14-.01.08.16.04.23-.18.29-1.28,1.03-1.02,1.45.41.26,2.34-.25,2.52-.56.4-.66-.42-.87-.56-1.29-.33-.99.55-1.49.82-2.28.16-.48.17-1.03.04-1.53.44,0,.67.8.66,1.18-.03,1.11-1.27,1.62-1.19,2.38.04.4.5.78.59,1.25.08.38.05.89.1,1.28.12.87.35,2.54.67,4.11.46.04.93.07,1.39.09-.11-.37-.21-.7-.27-.93-.36-1.55-.43-3.42-.87-4.88-.08-.27-.38-.73-.39-.91-.02-.33.61-.78.78-1.13.39-.77.14-1.62-.2-2.36-.23-.48-.66-.58-.23-1.15.61-.82,2.28-1.42.42-2.22-.14-.18.51-.33.52-.5-.41-.58-.62-.82-.45-1.57l-.61.15.56-5.15c.82-1.3,1.29.38,1.91.66.48.22,2.06.15,2.32-.34.08-.14.08-.5.19-.57.19-.12.96-.06,1.23-.27.12-.16-.42-.31-.5-.31h-1.69c-.07,0-.28.15-.42.08,0-.12.26-.12.36-.14.35-.06.71-.12,1.06-.16.54-.07.89.13,1.38-.3.11-.1.19-.3.27-.35.15-.09.55-.09.76-.16,1.57-.52,1.2-1.83,1.72-2.95.11-.23.29-.32.41-.51.18-.29.68-1.76.21-1.83-.55.01-1.03.46-1.57.39.51-.51,2.53-1.77,1.57-2.57-.31-.26-1.05-.16-1.44-.05-.52.15-.98.7-1.44-.02.25.02.46.11.72.07.29-.05.4-.31.64-.37.48-.1,1.25.42,1.4-.52.14-.93-.31-1.38-1.22-1.34-.11-.1.52-.71-.2-1.14-.94-.55-1.03.33-1.48.87-.39.46-1.08.99-1.68.61-.08-.05-.54-.49-.46-.57.29.1.47.28.81.31.66.05,1.05-.35,1.32-.91.89-1.81-.74-.79-.82-.86.09-.34.59-.34.45-.79-.11-.39-1.01-.15-1.31-.16-.4-.01-.76-.14-1.12-.28-.11-.11,0-.14.11-.15.32-.04.7.08,1.04,0,.03-.13-.06-.15-.11-.23-.13-.17-.67-.71-.86-.75-1.59,0-3.04.12-4.51.75-.56.24-.61.39-.73,1-.19-.07-.22-.33-.16-.5.29-.77,2.15-.69,2.31-1.65l-1-.08c-.22-.17.67-.34.74-.37.39-.16.74-.41,1.13-.55,1.3-.48,2.81-.57,4.18-.69-.04-.14-.38-.15-.49-.16-1.32-.09-2.86.29-4.1.69-.12-.12.32-.31.38-.35.65-.38,1.44-.69,2.15-.96.03-.2-.04-.16-.19-.15-.41,0-1.16.28-1.57.43-.27.1-.65.35-.88.42-.33.1.14-.37.24-.45.83-.56,3.56-.77,4.72-1.03.44-.1.87-.21,1.29-.36l-5.06.54c.2-.5,1.02-.71,1.52-.82,1.14-.24,2.31-.2,3.46-.1.02-.12-.14-.09-.23-.11-1.37-.36-3.31-.35-4.52.42-.14-.19.31-.62.47-.72.3-.19,2.25-.69,2.65-.73.67-.07,1.62.11,2.37.07.69-.03,1.41-.19,2.1-.23-.02-.13-.4-.09-.5-.08-.92.05-1.99.17-2.91.08-.88-.09-1.79-.65-2.72-.54.06-.15.38-.18.52-.21,1.06-.22,2.07.05,3.12.13.62.05,1.25.08,1.88.08l-.83-.21c-1.38-.19-2.75-.41-4.15-.33.7-.93,1.56-.49,2.49-.47.27,0,.78-.04,1.07-.06.26-.02,1.08-.1,1.27-.19.04-.02.1-.1.08-.12-.91.03-1.82-.01-2.72-.08-.32-.02-.84.12-1.03-.15.67-.05,1.45-.01,2.11-.08.59-.06,1.25-.27,1.84-.3.57-.03,1.08.12,1.65.07-.04-.12-.35-.15-.47-.18-.92-.2-1.89-.15-2.82-.05,0-.11.23-.15.32-.17,1.07-.31,2.22-.25,3.28-.59l-2.91-.3c1.71-.14,3.44-.17,5.13-.46.02-.13-.17-.07-.27-.08-1.44-.06-2.86.18-4.29.23-.42.02-.85-.02-1.27,0-.24-.18,1.39-.31,1.48-.33.6-.12,1.22-.43,1.79-.51.48-.07,1.1-.03,1.6-.09.57-.06,1.15-.18,1.73-.23.12-.1,0-.14-.11-.15-.73-.09-1.6.07-2.34.08ZM93.04,54.65l-.38.92-.15-.04c-.06-.37.16-.79.54-.88ZM92.02,55.51c.08-.08.05-.14.25-.09.16.23-.61.93-.69.84-.09-.11.34-.66.44-.75ZM89.61,45.36c.08-.34.18-.44.53-.32.31.1,1.1.66,1.51.86.1.05.21-.05.17.17-.85.31-1.31-.76-2.22-.54,0-.06,0-.12.01-.18ZM88.52,43.88c.02-.19.1-.39.31-.42-.11.66.26,1.49.24,2.11,0,.28-.19.27-.39.39l-.16-.08c.06-.63-.08-1.38,0-1.99ZM90.19,45.89c.15.04.52.21.39.4l-2.3.62c.23-.73,1.16-1.21,1.9-1.02ZM87.87,45.15c.03-.14.06-.47.19-.54.05.69.28,1.67-.03,2.3-.11.23-.42.54-.58.76.05-.84.23-1.71.42-2.53ZM89.44,48.06l-.31.42-1.76,1.12c-.32-1.4,1.3-.92,2.07-1.53ZM88.29,50.13c.18.17-1.38,1.66-1.53,1.84.06-1,.51-1.67,1.53-1.84ZM86.57,44.61c.15,0,.19-.06.19.12.01.38-.14.91-.16,1.3-.03.68.02,1.52.19,2.18.09.35.33.69.35,1.03.02.4-.17,1.14-.47,1.42l-.15-2.3c-.11.02-.2.35-.21.44-.12.91.15,1.53.21,2.35,0,.09.06.42-.08.42-.51-2.28-.47-4.72.11-6.98ZM81.94,44.13c.1-.35,2.17-.91,2.59-1.05l-2.33,1.46-.27.07c0-.15-.03-.34.01-.48ZM71.66,30.05l1.92,1.38c-.75-.23-1.43-.78-1.92-1.38ZM74.65,32.43c.61.08,1.13.51,1.38,1.07-.13.12-1.3-.84-1.38-1.07ZM66.16,45.21c-.31.07-.69,0-1.02.13-.73.29-.98,1.57-1.34,2.18-.04.07-.31.5-.42.39.25-.83.23-1.71.7-2.48.54-.89,1.84-1.4,2.86-1.28.8.1-.39.97-.79,1.06ZM64.09,68.13c-.39.26-.74.57-.79-.14,1.42-.31,1.51-2.16,2.31-3.09.15-.17.27-.31.52-.28.02.31-.1.62-.22.89-.35.82-1.09,2.13-1.83,2.62ZM66.29,65.77c.06.06-.46.78-.04,1.08.14.1.34,0,.35.15-.9.22-1.06-.97-.31-1.23ZM75.41,66.8l-.8-.73c.41.13,1.4.48,1.54.92.2.64-.34,1.69-.7,2.22-.1.15-.67.93-.87.77.48-.97,1.42-2.06.84-3.18ZM71.3,65.68c.18-.3,1-1.1,1.18-.47.17.56-.82,2.03-1.4,2.24-.28-.48-.07-1.31.22-1.77ZM68.42,66.63c.33-.49.67-1.14,1.02-1.58.1-.12.19-.3.37-.28-.09,1.34-.92,2.93-2.3,3.29.13-.58.59-.97.91-1.43ZM68.95,69.92c-.64.49-1.12,1.07-1.97,1.21-.04-.23.19-.4.35-.53.64-.54,1.63-.79,2.18-1.5.35-.46.39-.86.35-1.42.35.43.54.6.33,1.17-.22.61-.78.72-1.23,1.06ZM70.02,72.13c-.24.14-.56.09-.28-.2.41-.42,1.14-.78,1.6-1.16.37-.3,1.35-1.43,1.53-1.84.24-.55-.09-.74-.14-1.25.05-.05.51.33.57.38.61.57.52.7.09,1.39-.82,1.32-2.17,1.82-3.38,2.68ZM73.27,73.66c-.05-.21.06-.13.15-.19,2.08-1.38,3.65-2.32,3.83-5.06.03-.45.28-.04.31.23.16,1.32-1.02,3.15-1.99,3.99-.68.59-1.38.97-2.3,1.03ZM75.57,77.8c.7-1.12,1.74-1.93,3.14-1.76l-3.14,1.76ZM80.28,77.5c-.16.21-1.69,1.08-2.03,1.26-.11.06-.8.38-.84.34-.28-.26,1.43-.91,1.52-.97.51-.28.92-.72,1.46-.95.03.15-.03.21-.11.31ZM78.72,74.48c-.23.34-.34.74-.63,1.02.21-1.42,1.14-2.64,1.7-3.93.18-.43.29-1.02.46-1.38.25-.51.7.26.74.6.17,1.43-1.58,2.65-2.28,3.69ZM84.86,93.49c.2-.43-.13-.6-.13-.98.27.27.54.67.36,1.05l-1.47,1.02c-.09-.73,1.1-.78,1.25-1.09ZM78.94,90.17c.3.52-.51,1.96-.96,2.34-.26-.38-.18-.94-.06-1.36.14-.49.5-.65.16-1.19-.13-.21-.41-.31-.37-.59.13-.13,1.13.62,1.23.8ZM78.78,93.78c.32-.38.97-1.38,1.06-1.86.02-.13-.05-.71.13-.63.67.62-.12,1.91-.58,2.49-.69.86-1.92,1.81-2.99,2.11.66-.84,1.68-1.29,2.37-2.11ZM75.97,88.36c.14-.07.37-.12.43.07.05.16-.15,1.21-.23,1.44-.04.12-.26.65-.34.65-.41-.46-.47-1.87.13-2.16ZM73.19,89.68c.31.98-.73,1.61-1.61,1.46l.09-.25,1.52-1.2ZM69.9,92.02c0-.1,1-.46,1.14-.34.03.02.07.31.05.38-.11.43-1.08.51-1.19-.04ZM70.93,90.06c-.4.45-.7,1.17-1.42,1.15-.15-.14.83-.78.87-.93l1.23-1.99c.66.76-.24,1.25-.69,1.76ZM73.34,92.25c-.66.25-1.42.24-1.99.73-.03-.23.12-.33.28-.45.65-.47,1.67-.69,2.32-1.21l.62-.72c.29.75-.61,1.41-1.23,1.65ZM73.5,94.35c-.09-.08.25-.37.31-.42.37-.27.95-.49,1.37-.78.7-.48,1.5-.99,1.23-1.95,1,.36.51,1.2-.08,1.73-.79.71-1.81,1.17-2.84,1.42ZM74.49,99.11c.25-.37.38-.79.82-.98.31-.13.74-.11,1-.23.2-.1.24-.38.46-.46l.94-.02-3.22,1.68ZM77.83,99.95c-.25.1.04-.48.07-.54.48-.83,1.65-.9,2.5-1.07-.32-.36-1.15-.46-1.21-1.05-.04-.48,1.56-1.96,1.91-2.58.52-.91.4-1.82,1.83-1.47.11.08.07.17.04.27-.09.34-.8,1.57-1.04,1.87-.63.79-1.37.95-2.09,1.51-.84.65.1.83.59,1.34.04.05.14.01.12.07l-2.72,1.65ZM79.48,103.7c.13-.42.78-.51,1.15-.38-.26.3-.81.19-1.15.38ZM85.06,97.06c-.38.76-2.27,2.08-2.35,2.64-.04.23.43.62.68.63.03.17-.01.12-.1.17-.64.35-1.56.44-2.25.74-.34.14-.58.36-.87.51-.12.06-.21.05-.15-.08.04-.09,1.53-1.17,1.63-1.21.3-.11.6,0,.89-.14.06-.2-.1-.39-.11-.57-.03-.9,1.64-2.38,2.05-3.21.14-.28.16-.91.6-.4.26.3.14.59-.02.91ZM96.49,82.4c.08.19-.22,1.61-.34,1.61-.42-.5-.08-1.24.34-1.61ZM94.34,58.56l-1.46,2.99s-.14-.17-.32-.14c-.18.02-.94.65-.98.6.09-.88.49-1.26,1.3-1.53-.09-.24-.62.14-.69.08.11-.48.65-.7,1.07-.84-.13-.21-.48.18-.69.08-.13-.1,1.64-1.14,1.76-1.23ZM90.28,60.63c-.06.13-.78.6-.84.54-.09-.47.49-.53.84-.54ZM91.36,60.37c.13-.08,1.01-.63,1.07-.58l-.74.98-2.48,1.62c.32-.87,1.38-1.54,2.15-2.02ZM89.13,65.46c.09-.18.99-1.06,1.15-.92-.16.46-.66.86-1.15.92ZM89.9,65.54c-.34.45-.88.71-1.3,1.07-.18-.21,1.06-1.06,1.3-1.07ZM89.48,64.39l-1.04.99c.27-1.2,1.35-1.99,2.45-2.38-.12.79-.88.94-1.42,1.38ZM88.37,60.4c.12-.13.79.68.61.92-.43-.03-.57-.56-.61-.92ZM89.44,63.16c.01.1-.03.21-.1.28-.06.07-.59.4-.66.33.09-.41.31-.69.77-.61ZM89.29,62.82c.21-.27,1.87-1.49,2.07-1.34-.17.21-.16.54-.27.76-.19.36-1.42.95-1.79.58ZM89.21,60.63c-.57-.01-1.13-.99-1.25-1.47-.16-.63.84-.5.95-.32l.3,1.79ZM85.36,71.38c-.28.47-.28,1.03-.98,1.13.12-.45.45-.81.52-1.28.07-.45.07-1.1.1-1.59,0-.1.06-.48-.08-.5-.01.19-.11.44-.21.59-.05.07,0,.14-.17.1,0-.29-.22-.49-.26-.78-.03-.21.12-1.98.29-1.98.39.49.63,1.12.92,1.69.39.75.8.85.41,1.79-.14.34-.37.55-.54.84ZM85.68,80.17c-.59-.1-1.36-.29-1.76-.76.63.02,1.33.29,1.76.76ZM84.22,60.59c.06-.1.76-.78.85-.72.21.29.06.51.08.72.02.16.13.3.13.45-.02.39-.47,1.12-.44,1.58-.19.02-.27-.17-.34-.31-.17-.33-.45-1.43-.27-1.73ZM85.38,61.4c.58.49.39,1.1.46,1.72.13,1.17.66,2,1.15,3.03-1.38-1.1-2.12-3.02-1.61-4.75ZM86.41,62.24c-.24.05-.3-.63-.27-.77.14-.17.59.7.27.77ZM86.76,59.64l-.15,1.15c-.37-.29-.44-1.11.15-1.15ZM86.83,63.01c.12.53.2,1.06.16,1.61-.36-.42-1.26-1.61-.16-1.61ZM85.68,59.56c-.23-.23,1.01-.86,1.15-1,.16.65-.67.85-1.15,1ZM87.29,67.76c-.11.1-.72-.67-.8-.77-.24-.31-.55-.67-.58-1.07l1.38,1.84ZM87.15,62.97c.04-.15.32-.14.45-.11.09.69.84.72.59,1.53-.02.07-.36.52-.39.53-.12.03-.16-.1-.2-.19-.06-.14-.47-1.67-.45-1.76ZM87.91,62.79s.28-.04.22-.24h-.3c-.14-.86-.18-1.74-.16-2.61.11-.02.11.13.13.21.13.46.64,2.63.45,2.93-.15.24-.4-.21-.34-.3ZM88.24,57.1l.66,1.35c-.02.26-.96,0-1.13-.06l-.24-.93c.14-.16.49-.41.71-.36ZM87.44,62.62c-.53.23-.43-.49-.53-.84.35-.14.62.74.53.84ZM87.29,59.17c-.05.12.08.29.08.34v1.65c-1-.19-.51-1.48-.08-1.99ZM86.99,57.72c.03.52-.43.89-.85,1.11-.23.12-.73.4-.68-.1l1.52-1ZM85.45,60.09c-.21-.09-.24-.34-.23-.54-.93.38-.44-.36-.04-.69l.27,1.23ZM85.53,54.81c-.15.54-.02,1.13-.23,1.69-.2.02-.12,0-.15-.11-.17-.59-.29-1.3.39-1.57ZM84.8,52.66c.16.37.59,1.01.57,1.41,0,.24-.33.93-.61.96v-2.18s-.21-.41.04-.19ZM84.72,56.11c.17.28.32.58.27.92-.53.02-.31-.74-.46-1.07.2-.04.13.05.19.15ZM84.76,57.8c-.02.22.17.43.14.63-.02.13-.45.93-.6.82l-.37-1.02c.04-.17.75-.51.83-.44ZM83.88,54.58c.13.3.37.57.34.92-.29.03-.53-.85-.34-.92ZM81.43,42.85c-.15-.17-.53-.28-.49-.56.02-.14.73-1.09.83-.98l-.34,1.53ZM81.43,44.99l-.34-.64c.1-.14.37-.3.44-.07.03.11.05.72-.1.71ZM82.89,38.64c.15-.13,1.65-1.07,1.72-1-.33.88-1.32,1.3-2.07,1.76-.07-.39.07-.53.35-.76ZM82.91,40.04c.27-.41.36-.93.93-1.1-.28.75-.89,1.33-1.21,2.05-.27.63-.22,1.52-.94,1.78.14-1.05.65-1.87,1.21-2.74ZM82.23,39.02c.02.64-.73.85-.92,1.38l-.15-.04c-.18-.76.47-1.09,1.07-1.34ZM81.93,40.4c.06.29-.84,1.2-1,1.07.01-.19.88-1.19,1-1.07ZM81.08,43.19c.03.13-.29.53-.38.42l.04-.84.34.42ZM80.24,40.28l.42-.34.11.84-.53-.5ZM81.32,33.88c.48-.73,1.25-1.44,2.15-1.61-.27.93-1.32,1.32-2.15,1.61ZM84.04,25.83c.06-.1-.01-.19.19-.15-.11.54-.33,1.2-.69,1.61.09-.46.26-1.06.5-1.46ZM83.2,28.9c.09-.12.99-.86,1.07-.85.3.06-.02.86-.13,1.02-.28.43-.65.37-.9.63-.21.22-.16.7-.54.72.18-.46.21-1.14.5-1.53ZM82.62,31.08c.41-.4,1-1,1.42-1.34.11-.09.98-.67,1.03-.61.03.14-.08.18-.15.27-.28.34-.87.8-1.23,1.15-.37.36-.65.91-1.3.88-.02-.15.13-.25.23-.35ZM82.77,31.74c.18.16-.86.66-.92.61.14-.39.51-.59.92-.61ZM80.78,33.62c.36-1.04.15-1.97.7-2.98.05-.08.41-.7.52-.59.26.99.15,1.12-.65,1.69.2,1.25-.43,2.41-.88,3.52-.21.21-.16-.49-.15-.57.06-.39.33-.71.46-1.08ZM80.24,32.54s.28-.56.38-.57v1.11c0,.08-.26.53-.38.57v-1.11ZM80.55,37.94c-.05.46.23,1.36.04,1.76-.11.23-.65.31-.65.11v-1.38c.03-.18.45-.41.61-.5ZM79.55,33.54c-.46-.02-.09-.38.12-.5l.19,1.53h-.77c-.02-.54-.07-.81.46-1.03ZM78.86,36.3c.06.26.19.97-.27.88-.24-.05.09-.83.11-1,.2-.02.12,0,.15.11ZM77.12,35.09c.09-.55.96-1.54,1.47-1.76.12-.05.09-.09.2.05-.21.66-.8,1.04-1.22,1.53-.09.11-.58.96-.44.17ZM78.15,36.81c-.22.11-.27.08-.37-.13-.38-.8.51-1.72.7-2.5.17-.16.29.5.3.58.04.43-.24,1.85-.62,2.04ZM79.48,40.63c-.11.08-1.71-.82-1.9-.98-.08-.07-.41-.4-.32-.48.95.19,1.72.61,2.22,1.46ZM78.17,43.16l-1.18-1.54-.04-.69c.88.27.95,1.47,1.23,2.22ZM76.87,39.78c.62.05.67.55.61,1.07-.5-.13-.52-.66-.61-1.07ZM77.79,40.24c.71.18,1.05.56,1.07,1.3l-.93-.42-.15-.89ZM78.79,40.78c.12.03.98.64.84.77-.44-.01-.78-.34-.84-.77ZM76.79,38.48c.38-.25,1.81.53,1.53.92-.22-.17-1.78-.55-1.53-.92ZM72.89,35.26c.73.55,1.48.85,1.38,1.92-.48.02-.53-.37-.73-.69l-.15.31c-.55-.38-.53-.92-.5-1.53ZM73.5,38.17c-.73-.24-.4-.99-.53-1.53.68.39.74.79.53,1.53ZM71.35,35.34c.44.33.45,1.04.65,1.53.15.38.42.7.57,1.07h-.31s.31.27.31.27c-.27.07-.78-.51-.96-.73-.52-.66-.36-1.36-.27-2.15ZM71.05,37.56c.05-.05.74.45.82.52.09.07.21.09.17.25-.05.05-1.06-.47-1-.77ZM71.89,38.59c.2-.11,1.13-.05,1.3.19h-1.26s-.17-.13-.04-.19ZM72.65,39.25c.39-.45,1.15-.19,1.46.23-.48-.15-.94-.29-1.46-.23ZM73.04,39.86l.04-.15c.52-.03,1.2.07,1.49.54-.55.02-1.05-.14-1.53-.38ZM74.38,39.32c-.39-.5-.22-1.34-.5-1.91.81.03.52,1.48.77,2.07-.14.03-.19-.07-.26-.16ZM74.34,36.49c.12-.03.18.02.27.07.6.32,1.3.95,1.8,1.42l-.75.02c-.17-.23-.2-.46-.17-.75l-.19.46c-.67-.17-.86-.58-.96-1.23ZM76.49,41.12l-1.07-1v-1.19c.78.37.83,1.44,1.07,2.18ZM74.72,37.72c.47.05.63.36.34.77-.24.05-.39-.58-.34-.77ZM74.8,38.71c.51.06.18.78.31,1.15-.48-.1-.26-.79-.31-1.15ZM75.03,40.7c.16-.15,1.22.61,1.3.84-.18.03-1.52-.64-1.3-.84ZM75.95,41.78c.21-.08,1.54.71,1.38.84-.56-.06-1.07-.38-1.38-.84ZM76.72,42.93c.99.09,1.49.75,1.84,1.61-.79-.28-1.3-1.01-1.84-1.61ZM78.25,42.31c.16-.04.17.08.25.17.53.66.87,1.67.98,2.51-.4-.15-1.33-2.57-1.23-2.68ZM78.78,42.51c-.25-.31-.73-.56-.76-.96.04-.04.89.38.95.46.17.23.4,1.13.5,1.45-.29-.26-.45-.66-.69-.96ZM79.53,42.91c-.15-.24-.19-.58-.36-.82l.5.23.04.69c-.18.04-.12-.02-.17-.1ZM79.55,35.8c-.1.04-.13.4-.14.51-.02.19,0,.38-.01.57-.02.02-.1-.04-.12-.08-.03-.05-.18-1.04-.19-1.19-.02-.27.02-.56,0-.83,1.16-.64.96,1.11.66,1.71l-.19-.69ZM75.38,46.91c.23.2.08.58-.03.82-.06.12-.74,1.01-.86.87.04-.62.24-1.47.88-1.68ZM68.39,53.11c-.2.07-.34.23-.54.3-.33.12-.88.1-1.09-.21.36,0,.74-.1,1.05-.29.52-.32.59-.82,1.32-.98.36-.08.85-.11,1.07.24.09.45-1.46.81-1.8.93ZM72.07,48.21c-.5.34-.8.88-1.26,1.27-.62.53-1.35.84-2.07,1.19-.04-.16.09-.17.17-.25.31-.26.58-.43.86-.75.33-.37.6-.93.98-1.25.51-.43,1.26-.53,1.9-.36l-.58.15ZM75.11,50.25c-.64.48-1.28,1.51-2.23.91,1.12-.46,1.81-1.74,3.14-1.49-.28.22-.62.36-.91.58ZM76.83,57.8l1.04.22c-.91.11-2.23-.28-2.42-1.3-.16-.86.92-.95,1.48-1.21.16-.08.28-.27.46-.31.26-.05.65.26.84.43.05.05.15,0,.1.18-.54-.04-2.41-.08-2.53.58-.11.56.51,1.25,1.03,1.42ZM79.4,53.12c.05-.24.26-.35.37-.58.21-.43.25-1.94-.32-1.86-.5.07-.7,1.53-1.02,1.98-.5.69-2.6,1.28-.66,2.05.12.05.21-.05.17.17-.39-.05-.93-.24-1.09-.63-.38-.94.69-1.12,1.15-1.72.36-.47.97-2.2,1.32-2.36.18-.08.32-.08.45.08.54.69.45,2.37-.37,2.87ZM80.03,46.85c-.1-.47-.1-.99-.1-1.47,1.02.23.41,1.02.23,1.69-.1.02-.12-.14-.13-.21ZM80.85,50.59l-.54-2.64c0-.32.23-.94.39-1.23.05-.09.06-.21.19-.19.04,0,.22.65.25.75.15.64.35,1.71.14,2.31-.12.34-.47.59-.42,1ZM82.17,54.4c.28-.43.37-.93.51-1.41.04-.13-.06-.22.16-.18-.15,1.1-.51,2.42-1.61,2.91l.93-1.33ZM83.23,56.64l-.22.07c-.23-.59-1.17.18-1.54-.37.69.35,1.22-.45,1.76.08l.27-.92c.25.23.16.55.29.86.27.67,1.24.8-.06,1.51l-.5-1.23ZM82.73,76.65c-.27.36-.13.93-.36,1.41-.05.1-.49.78-.6.66.11-.37.33-.69.42-1.07.08-.33.05-.77.15-1.08.19-.64,1.16-.79.6-1.66-.04-.06-.73-.74-.36-.63.28.08,1.22.63,1.31.91.27.84-.82,1.03-1.15,1.46ZM88.02,84.7c-.65-.17-1.5-.1-2.03-.57-.26-.23-.5-.81-.95-.81h-1.11c.38-.47,1.44-.3,1.88,0,.24.16.44.5.7.68.42.28.94.31,1.38.53.04.02.24.11.14.17ZM88.06,82.28c-.78.22-1.36.94-2.22.81l1.73-.99c.52-.2,1.33-.39,1.85-.1.09.05.13,0,.1.17-.5,0-.97-.02-1.46.11ZM88.06,79.41c-.65-.03-1.3.02-1.92.23.26-.71,1.61-1.09,1.92-.23ZM86.22,78.72c.26-.67.85-.3,1.38-.46-.07.28-1.32.5-1.38.46ZM92.12,74.58c.08.09-.33.65.03,1,.11.11.32.09.35.22-.96.15-1.35-.85-.38-1.23ZM92.24,82.01c0,.16-.22.25-.29.4-.2.48.08.92.25,1.36-1-.16-.88-1.47.04-1.76ZM92.81,84.74c-.76.1-1.55-.05-2.29.2-.05.22.05.37.23.49l1.22.5c-.88-.06-2.18-.51-1.26-1.53.52-.57,1.58-.01,2.1.34ZM91.43,78.87l-2.53.69c.31-.92,1.61-1.21,2.43-.86.11.05.12.02.1.17ZM88.19,74.14c.52-.33,1.15-.58,1.72-.21.1.06.18,0,.14.2-.75-.22-1.61.15-2.3.46-.12-.12.36-.4.44-.44ZM87.26,76.72c.24.09.35.37.5.43.46.21,1.52-.96,2.02-1.12.22-.07,1.2-.17,1.27.05.17.56-1.82.84-2.17.97-.27.1-.58.39-.8.43-.31.06-.6-.19-.97-.22-.41-.03-.72.09-1.11.16.17-.4.82-.86,1.27-.7ZM86.75,75.63c.09.25-.82.87-.91.79.21-.48.26-1.61.91-.79ZM84.99,66c-.14-.02-.06.15-.04.23.05.24.14.54.24.76.27.66.98,1.13.8,1.84-.54-.67-.71-1.52-1.44-2.05.1-1.11.28-2.2.22-3.32.33.32.59.99.75,1.44.19.56.27,1.09.42,1.65.11.38.5.58-.17.48.36.37.8.78,1,1.26-.73-.64-1.48-1.33-1.76-2.3ZM88.1,67.61c.18-.03.1.08.11.19.05.45.14.82.23,1.26l-1.45.59-.16-.08c.18-.8.69-1.4,1.26-1.95ZM87.3,71.79l-.23.11c-.35-.57.38-1.93.88-2.15.2-.09.16.51.34.54l-.08-.87.38-.21c0,.23.14.43.16.65.05.71-1.14,1.3-1.46,1.92ZM88.61,67.12c.03-.1.41-.46.52-.55.06-.06.57-.48.61-.42l-.09,2.09-.79.59c-.23-.02-.32-1.47-.25-1.71ZM88.91,69.03l.53-.28-.23.69c-.13.12-.33-.33-.3-.41ZM90,68.97c-.03.13-.46,1.04-.64.86-.04-.04.35-.82.41-.94.04-.08.02-.27.17-.21.15.07.09.17.07.29ZM90.21,67.42c-.03.1,0,.24-.16.27v-1.57c0-.28.19-.85.54-.88l-.31-.11.57-1.19c.17-.03.1.07.13.17.09.27.22.9.21,1.17-.02.56-.5.67-.71,1.06-.17.32-.18.75-.29,1.09ZM90.51,67.53c-.15-.51,0-1.15.46-1.46-.01.47-.12,1.12-.46,1.46ZM92.81,67.34l-1.99.57c.14-.68,1.48-.98,1.99-.57ZM91.99,65.44c-.05.14-.08.3-.21.4-.35,0,.22-1.46.11-1.68-.12-.04-.26.72-.42.46l-.26-1.18.61-.43-.42.06-.1-.16c.09-.22.15-.5.33-.67.06-.06,1.01-.69,1.08-.69.06,0,.15.15.08.23-.41,1.11-.41,2.58-.79,3.66ZM94.67,61.45c.03-.08.02-.23.13-.21-.23.73-.29,1.47-.38,2.22-.14-.03-.14-.15-.16-.27-.06-.5.22-1.27.41-1.75ZM95.49,63.93l-1.46.31c.24-.24,1.35-.84,1.46-.31ZM96.57,64c0,.12-.23.14-.32.17-.66.21-1.53.51-2.19.65-.19.04-.54.2-.63-.05.43-.08.87-.15,1.29-.29.64-.21,1.17-.7,1.86-.48Z"></path>
          <path class="cls-2" d="M96.18,62.62l-.04-.15c-.31.07-.57.23-.81.42-.09.06-.19,0-.14.2l1-.46Z"></path>
          <path class="cls-2" d="M93.19,79.79c.29.3.76.53,1.15.69-.27-.31-.75-.62-1.15-.69Z"></path>
          <path class="cls-2" d="M91.51,57.41c.06.05.68-.2.69-.38-.28,0-.62.08-.69.38Z"></path>
          <path class="cls-2" d="M91.35,66.53c.07-.07.13-.58-.07-.61.02.16-.25.66.07.61Z"></path>
          <path class="cls-2" d="M90.97,57.72l.38-1.53c-.19-.04-.14.04-.19.15-.21.41-.16.92-.34,1.35l.15.04Z"></path>
          <polygon class="cls-2" points="88.83 43.31 88.75 42.77 88.6 43.31 88.83 43.31"></polygon>
          <path class="cls-2" d="M88.83,62.01c.01-.22,0-.51-.23-.61.04.14-.03.66.23.61Z"></path>
          <path class="cls-2" d="M88.21,66.15c.09.09.49-.36.54-.46-.13-.03-.64.35-.54.46Z"></path>
          <path class="cls-2" d="M87.98,66l.23-1c-.16.1-.33.43-.37.59-.03.14-.1.48.14.4Z"></path>
          <path class="cls-2" d="M87.68,66.76l.08-.46c-.16.04-.39.52-.08.46Z"></path>
          <path class="cls-2" d="M87.45,58.64c.05-.64-.45-.64-.38,0h.38Z"></path>
          <path class="cls-2" d="M87.14,58.03c.19-.09.33-.39.11-.54l-.11.54Z"></path>
          <path class="cls-2" d="M86.68,57.56c.19,0,.45-.27.46-.46l-.46.46Z"></path>
          <path class="cls-2" d="M86.68,62.32c-.37.11.04.57.15.46l-.15-.46Z"></path>
          <polygon class="cls-2" points="86.14 60.4 86.14 60.02 85.99 60.02 85.92 60.28 86.03 60.4 86.14 60.4"></polygon>
          <path class="cls-2" d="M85.84,61.4c.03-.18-.04-.33-.23-.31l.23.31Z"></path>
          <path class="cls-2" d="M85.53,60.71c.02-.14-.09-.25-.23-.23l.08.23h.15Z"></path>
          <path class="cls-2" d="M83.38,31.58c.15.03.72-.42.61-.54-.25.11-.46.31-.61.54Z"></path>
          <path class="cls-2" d="M82.92,39.63c-.18-.03-.77.63-.42.61.06,0,.51-.51.42-.61Z"></path>
          <path class="cls-2" d="M80.93,37.25c.07.06.51-.09.46-.31-.07-.02-.6.18-.46.31Z"></path>
          <path class="cls-2" d="M80.93,43.92c.13.02.43-.08.45-.2l-.19-.34c-.16.14-.29.31-.27.53Z"></path>
          <path class="cls-2" d="M80.62,42.16l-.04-.46c-.15.11-.12.3-.11.46h.15Z"></path>
          <path class="cls-2" d="M80.45,37.46s.11-.2.1-.2c-.28-.04-.43.23-.54.46.05.05.39-.2.43-.25Z"></path>
          <path class="cls-2" d="M80.47,37.02c.06-.34-.32-.05-.23.08l.23-.08Z"></path>
          <path class="cls-2" d="M78.86,33.5l.77-.73.23-.5c-.12-.12-.84.76-.91.89-.05.11-.12.2-.09.33Z"></path>
          <path class="cls-2" d="M79.48,37.56c0,.08-.27.53-.04.53.11,0,.21-.51.04-.53Z"></path>
          <path class="cls-2" d="M78.94,34.27l.08-.46c-.28-.06-.41.46-.08.46Z"></path>
          <path class="cls-2" d="M79.02,46.53c.08-.11-.41-.73-.5-.84-.08-.09-.11-.19-.26-.16-.14.15.51.99.77,1Z"></path>
          <path class="cls-2" d="M78.94,37.25s-.56.41-.27.46c.19.03.31-.3.27-.46Z"></path>
          <path class="cls-2" d="M78.4,37.03h-.11s-.19.19-.19.19c.17.24.34.05.3-.19Z"></path>
          <path class="cls-2" d="M77.18,39.4c.13-.14-.22-.44-.38-.38-.03.02.27.5.38.38Z"></path>
          <path class="cls-2" d="M76.26,38.63c.14.02.27,0,.31-.15h-.31s0,.15,0,.15Z"></path>
          <polygon class="cls-2" points="76.56 39.78 76.49 39.48 76.33 39.48 76.41 39.78 76.56 39.78"></polygon>
          <path class="cls-2" d="M76.41,39.09c.13-.14-.45-.7-.54-.61-.06.17.44.71.54.61Z"></path>
          <path class="cls-2" d="M75.8,38.86c.02-.28-.17-.53-.46-.54-.04.29.24.43.46.54Z"></path>
          <path class="cls-2" d="M74.26,28.13c.14-.01.29-.4.23-.46-.27-.02-.24.25-.23.46Z"></path>
          <path class="cls-2" d="M70.66,37.18c.1-.1-.71-.88-.84-.77-.01.18.77.83.84.77Z"></path>
        </g>
      </g>
    </g>
  </g>
</svg>
