<?xml version="1.0" encoding="UTF-8"?>
<svg preserveAspectRatio="xMidYMid slice" width="30px" height="8px" xmlns="http://www.w3.org/2000/svg" id="logo" viewBox="0 0 278.75 82.8">
  <defs>
    <style>
      .cls-1 {
        fill: #f37321;
      }

      .cls-2 {
        fill: #333;
      }
    </style>
  </defs>
  <g id="type">
    <g id="type-2" data-name="type">
      <path class="cls-1" d="M97.37,68.33v-15.43h3.5v12.71h6.57v2.71h-10.08Z"></path>
      <path class="cls-1" d="M111.62,68.62c-.82,0-1.52-.14-2.1-.41-.58-.27-1.03-.66-1.34-1.16-.31-.5-.47-1.09-.47-1.76,0-.61.13-1.15.38-1.62.26-.47.64-.87,1.14-1.2.5-.33,1.12-.58,1.84-.75.72-.18,1.54-.26,2.47-.26h1.68v1.94h-1.2c-.69,0-1.24.05-1.67.16-.42.1-.74.27-.94.49-.2.22-.3.52-.3.88,0,.41.13.74.4.97.26.23.64.35,1.14.35.75,0,1.32-.22,1.69-.67.38-.45.56-.96.56-1.55v-1.31h-.07v-1.82c0-.4-.06-.72-.19-.98-.13-.25-.32-.44-.58-.56-.26-.12-.58-.18-.98-.18-.54,0-.97.12-1.27.34-.3.23-.49.58-.55,1.06l-3.12-.22c.03-.72.24-1.35.64-1.9.39-.55.97-.98,1.73-1.29.76-.31,1.71-.47,2.84-.47s2.06.17,2.78.5c.72.34,1.25.82,1.6,1.45.34.63.52,1.4.52,2.29v7.39h-3.33v-1.51c-.32.37-.62.69-.89.96-.27.27-.59.48-.96.62-.37.14-.85.22-1.44.22Z"></path>
      <path class="cls-1" d="M120.18,68.33v-11.35h3.31v1.63c.29-.4.59-.74.9-1.02.31-.28.68-.5,1.1-.66.42-.16.95-.24,1.57-.24.88,0,1.61.2,2.18.61.58.41,1.01.95,1.3,1.63.29.68.43,1.43.43,2.24v7.15h-3.38v-6.84c0-.58-.15-1.07-.44-1.49-.3-.42-.78-.62-1.45-.62-.45,0-.83.1-1.14.29-.31.19-.56.47-.73.83-.18.36-.26.8-.26,1.33v6.5h-3.38Z"></path>
      <path class="cls-1" d="M137.36,68.62c-.98,0-1.86-.24-2.64-.73-.78-.49-1.4-1.18-1.85-2.08-.45-.9-.67-1.94-.67-3.14,0-.7.09-1.36.26-1.97.18-.61.42-1.16.73-1.64.31-.49.68-.91,1.12-1.27.43-.36.91-.63,1.43-.82.52-.18,1.07-.28,1.64-.28.64,0,1.16.07,1.56.22.4.14.75.34,1.04.58.3.24.59.52.88.84v-6.38h3.41v16.39h-3.33v-1.56c-.35.37-.69.69-1.01.97-.32.28-.68.5-1.07.65-.39.15-.89.23-1.5.23ZM138.34,65.93c.42,0,.79-.08,1.12-.23.33-.15.61-.37.84-.66.23-.29.41-.63.54-1.03.13-.4.19-.85.19-1.34,0-1.02-.24-1.83-.73-2.41-.49-.58-1.14-.88-1.96-.88-.42,0-.79.08-1.12.23-.33.15-.61.37-.85.65-.24.28-.42.62-.55,1.02-.13.4-.19.86-.19,1.39,0,1.02.25,1.82.74,2.4.5.58,1.15.86,1.97.86Z"></path>
      <path class="cls-1" d="M154.87,68.66c-1.06,0-1.97-.19-2.75-.57-.78-.38-1.38-.91-1.8-1.59-.42-.68-.64-1.44-.64-2.3,0-.67.12-1.28.37-1.85.25-.56.6-1.06,1.04-1.49.45-.43,1-.77,1.64-1.01.65-.25,1.38-.37,2.2-.37l.46,2.18c-.48,0-.9.09-1.26.26-.36.17-.64.42-.84.75-.2.32-.3.72-.3,1.17,0,.38.09.73.26,1.04.18.32.43.57.77.75.34.18.74.27,1.2.27.51,0,1.01-.11,1.49-.32.48-.22.96-.56,1.44-1.02l1.92,2.09c-.61.51-1.18.92-1.73,1.21-.54.3-1.09.5-1.64.62-.55.12-1.16.18-1.84.18ZM162.76,68.5c-.46,0-.88-.06-1.25-.17-.37-.11-.7-.27-.98-.47-.29-.2-.57-.43-.84-.7l-6.79-6.94c-.43-.45-.76-.92-1-1.43-.23-.51-.35-1.06-.35-1.65,0-.7.13-1.32.4-1.87.26-.55.63-1.02,1.1-1.42.47-.4,1.03-.7,1.67-.91.64-.21,1.34-.31,2.11-.31,1.04,0,1.94.19,2.71.58.77.39,1.36.92,1.79,1.6.42.68.64,1.46.66,2.34l-3.36.26c0-.4-.08-.75-.23-1.04-.15-.29-.36-.52-.64-.69-.27-.17-.61-.25-1.01-.25-.34,0-.64.07-.91.21-.27.14-.49.35-.66.62-.17.27-.25.59-.25.95s.08.7.24,1,.36.58.6.83l5.25,5.35c.42.44.76.76,1.04.95.28.19.6.29.95.29.16,0,.34-.03.54-.08.2-.06.4-.12.61-.18l.48,2.78c-.3.11-.62.2-.94.26-.32.06-.64.1-.96.1ZM155.83,61.8v-2.4h7.68v2.4h-7.68Z"></path>
      <path class="cls-1" d="M170.13,68.33v-15.43h6.45c.91,0,1.74.19,2.49.56.75.38,1.35.91,1.8,1.6.45.69.67,1.51.67,2.47s-.22,1.76-.67,2.45c-.45.69-1.05,1.22-1.8,1.6-.75.38-1.58.56-2.49.56h-2.97v6.19h-3.48ZM175.83,59.67c.46,0,.86-.08,1.2-.25s.59-.41.77-.72c.18-.31.26-.68.26-1.12,0-.64-.2-1.14-.6-1.51-.4-.37-.94-.55-1.63-.55h-2.23v4.15h2.23ZM178.74,68.33l-4.22-7.05h3.57l4.46,7.05h-3.81Z"></path>
      <path class="cls-1" d="M189.08,68.62c-1.2,0-2.25-.25-3.17-.76-.91-.5-1.63-1.2-2.15-2.1-.52-.9-.78-1.93-.78-3.09,0-.86.14-1.66.43-2.39.29-.73.7-1.36,1.24-1.91.54-.54,1.16-.96,1.88-1.25s1.51-.43,2.38-.43,1.68.14,2.39.43c.71.29,1.32.7,1.84,1.22.51.53.9,1.15,1.18,1.87.27.72.41,1.5.41,2.35,0,.19,0,.37-.01.53,0,.16-.02.3-.04.41h-9.64v-2.02h7.77l-1.27.77c0-.69-.1-1.26-.3-1.72-.2-.46-.49-.8-.86-1.03-.38-.23-.83-.35-1.36-.35-.43,0-.82.08-1.16.23-.34.15-.63.37-.85.65-.22.28-.4.63-.52,1.06-.12.42-.18.92-.18,1.48,0,.77.11,1.42.34,1.94.22.53.55.93.98,1.21.43.28.94.42,1.54.42s1.08-.13,1.46-.4.64-.62.77-1.07l3.05.31c-.18.74-.51,1.38-1,1.92-.49.54-1.1.96-1.85,1.26-.74.3-1.58.44-2.51.44Z"></path>
      <path class="cls-1" d="M200.4,68.62c-1.63,0-2.86-.34-3.69-1.01-.83-.67-1.27-1.56-1.32-2.66l3.05-.24c.08.51.3.9.65,1.16s.82.4,1.42.4c.56,0,.98-.1,1.25-.31.27-.21.41-.49.41-.84s-.14-.65-.42-.84c-.28-.19-.67-.33-1.16-.41l-1.37-.22c-.74-.13-1.38-.33-1.92-.61-.54-.28-.96-.65-1.25-1.1s-.43-1.01-.43-1.67c0-.74.19-1.37.58-1.9.38-.53.93-.94,1.63-1.24.7-.3,1.53-.44,2.47-.44s1.77.14,2.47.43,1.26.69,1.67,1.2c.41.51.63,1.1.66,1.78l-3.05.24c-.03-.29-.12-.52-.28-.71-.15-.18-.36-.33-.62-.43-.26-.1-.58-.16-.95-.16-.46,0-.82.08-1.08.24-.26.16-.38.39-.38.7,0,.34.13.59.4.77.26.18.59.3.97.36l1.87.31c1.04.16,1.86.53,2.46,1.1.6.58.9,1.34.9,2.3,0,.74-.19,1.39-.56,1.96-.38.57-.93,1.02-1.66,1.34-.73.33-1.63.49-2.7.49Z"></path>
      <path class="cls-1" d="M212.06,68.62c-1.22,0-2.28-.26-3.2-.79-.92-.53-1.64-1.24-2.15-2.15-.51-.9-.77-1.91-.77-3.01,0-.85.15-1.63.44-2.35.3-.72.72-1.35,1.26-1.9s1.19-.97,1.93-1.27c.74-.3,1.57-.46,2.48-.46,1.23,0,2.31.26,3.23.79.92.53,1.64,1.24,2.15,2.13.51.9.77,1.91.77,3.05,0,.83-.15,1.61-.44,2.33-.3.72-.72,1.35-1.26,1.9s-1.19.97-1.94,1.27c-.75.3-1.58.46-2.49.46ZM212.06,65.93c.43,0,.81-.08,1.14-.23.33-.15.6-.37.83-.66.22-.29.4-.63.52-1.03.12-.4.18-.85.18-1.34,0-.69-.11-1.27-.32-1.75-.22-.48-.52-.86-.91-1.13-.39-.27-.87-.41-1.43-.41-.4,0-.77.08-1.1.23-.34.15-.62.37-.84.66s-.4.63-.52,1.03c-.12.4-.18.86-.18,1.37,0,.66.1,1.23.31,1.72.21.49.51.87.91,1.14.4.27.87.41,1.42.41Z"></path>
      <path class="cls-1" d="M223.26,68.62c-.9,0-1.63-.2-2.21-.61-.58-.41-1-.95-1.28-1.63-.28-.68-.42-1.43-.42-2.24v-7.15h3.38v6.84c0,.58.14,1.07.42,1.49.28.42.75.62,1.4.62.45,0,.82-.1,1.13-.29.3-.19.54-.47.7-.84.16-.37.24-.81.24-1.32v-6.5h3.38v11.35h-3.31v-1.63c-.29.38-.58.72-.86,1.01s-.64.51-1.04.67c-.41.16-.92.24-1.52.24Z"></path>
      <path class="cls-1" d="M232.16,68.33v-11.35h3.31v1.82c.22-.45.46-.83.71-1.14.25-.31.57-.55.97-.72.4-.17.92-.25,1.56-.25.16,0,.31,0,.44.01.14,0,.25.03.35.06v2.88c-.16-.03-.33-.06-.52-.08-.18-.02-.4-.04-.64-.04-.61,0-1.12.1-1.55.3-.42.2-.74.5-.95.91-.21.41-.31.94-.31,1.6v6h-3.38Z"></path>
      <path class="cls-1" d="M245.86,68.62c-1.17,0-2.21-.26-3.12-.77s-1.62-1.22-2.13-2.11c-.51-.9-.77-1.92-.77-3.07,0-.88.15-1.68.44-2.41.3-.73.71-1.36,1.25-1.88.54-.53,1.18-.94,1.92-1.24.74-.3,1.56-.44,2.46-.44.99,0,1.87.16,2.63.47s1.39.79,1.88,1.43c.5.64.84,1.44,1.03,2.4l-3.09.24c-.16-.59-.44-1.05-.85-1.37-.41-.32-.92-.48-1.52-.48-.42,0-.79.08-1.13.23-.34.15-.62.36-.85.64-.23.27-.41.61-.53,1.02-.12.41-.18.88-.18,1.4,0,.67.11,1.25.32,1.74.22.49.52.86.91,1.13.39.26.87.4,1.43.4.64,0,1.16-.16,1.56-.47.4-.31.68-.8.84-1.45l3.14.22c-.24,1.36-.86,2.43-1.85,3.21-.99.78-2.26,1.18-3.79,1.18Z"></path>
      <path class="cls-1" d="M258.09,68.62c-1.2,0-2.25-.25-3.17-.76-.91-.5-1.63-1.2-2.15-2.1-.52-.9-.78-1.93-.78-3.09,0-.86.14-1.66.43-2.39.29-.73.7-1.36,1.24-1.91.54-.54,1.16-.96,1.88-1.25s1.51-.43,2.38-.43,1.68.14,2.39.43c.71.29,1.32.7,1.84,1.22.51.53.9,1.15,1.18,1.87.27.72.41,1.5.41,2.35,0,.19,0,.37-.01.53,0,.16-.02.3-.04.41h-9.64v-2.02h7.77l-1.27.77c0-.69-.1-1.26-.3-1.72-.2-.46-.49-.8-.86-1.03-.38-.23-.83-.35-1.36-.35-.43,0-.82.08-1.16.23-.34.15-.63.37-.85.65-.22.28-.4.63-.52,1.06-.12.42-.18.92-.18,1.48,0,.77.11,1.42.34,1.94.22.53.55.93.98,1.21.43.28.94.42,1.54.42s1.08-.13,1.46-.4.64-.62.77-1.07l3.05.31c-.18.74-.51,1.38-1,1.92-.49.54-1.1.96-1.85,1.26-.74.3-1.58.44-2.51.44Z"></path>
      <path class="cls-1" d="M269.42,68.62c-1.63,0-2.86-.34-3.69-1.01-.83-.67-1.27-1.56-1.32-2.66l3.05-.24c.08.51.3.9.65,1.16s.82.4,1.42.4c.56,0,.98-.1,1.25-.31.27-.21.41-.49.41-.84s-.14-.65-.42-.84c-.28-.19-.67-.33-1.16-.41l-1.37-.22c-.74-.13-1.38-.33-1.92-.61-.54-.28-.96-.65-1.25-1.1s-.43-1.01-.43-1.67c0-.74.19-1.37.58-1.9.38-.53.93-.94,1.63-1.24.7-.3,1.53-.44,2.47-.44s1.77.14,2.47.43,1.26.69,1.67,1.2c.41.51.63,1.1.66,1.78l-3.05.24c-.03-.29-.12-.52-.28-.71-.15-.18-.36-.33-.62-.43-.26-.1-.58-.16-.95-.16-.46,0-.82.08-1.08.24-.26.16-.38.39-.38.7,0,.34.13.59.4.77.26.18.59.3.97.36l1.87.31c1.04.16,1.86.53,2.46,1.1.6.58.9,1.34.9,2.3,0,.74-.19,1.39-.56,1.96-.38.57-.93,1.02-1.66,1.34-.73.33-1.63.49-2.7.49Z"></path>
    </g>
    <g id="Crosby">
      <path class="cls-2" d="M136.23,21.52v3.58c.71-1.46,1.51-2.5,2.4-3.15s2.21-.99,3.95-.99c.61,0,1.13.05,1.55.14v5.65c-.71-.14-1.46-.24-2.26-.24-1.84,0-3.25.42-4.14,1.32-.89.89-1.36,2.26-1.36,4.19v11.77h-6.64v-22.27h6.5Z"></path>
      <path class="cls-2" d="M166.47,26.7c-1.04-1.74-2.45-3.15-4.28-4.19-1.84-1.04-3.91-1.55-6.26-1.55s-4.38.52-6.21,1.55c-1.84,1.04-3.3,2.45-4.28,4.19-.99,1.79-1.51,3.77-1.51,5.98s.52,4.14,1.51,5.93c.99,1.79,2.45,3.2,4.28,4.19,1.84,1.04,3.91,1.55,6.21,1.55s4.43-.52,6.26-1.55c1.84-.99,3.25-2.4,4.28-4.19.99-1.79,1.51-3.77,1.51-5.93s-.52-4.19-1.51-5.98M159.78,37.34c-.94,1.18-2.21,1.74-3.86,1.74s-2.87-.57-3.77-1.74c-.94-1.13-1.41-2.68-1.41-4.66s.47-3.53,1.41-4.71c.9-1.18,2.17-1.74,3.77-1.74s2.92.57,3.86,1.74c.89,1.18,1.37,2.73,1.37,4.71s-.47,3.53-1.37,4.66"></path>
      <path class="cls-2" d="M169.12,37.15l5.98-.47c.14.99.57,1.74,1.27,2.26.71.52,1.6.8,2.78.8,1.08,0,1.88-.19,2.45-.61.52-.42.8-.94.8-1.65s-.24-1.22-.75-1.65c-.52-.38-1.32-.66-2.35-.8l-2.68-.42c-2.26-.38-4-1.13-5.23-2.21s-1.84-2.59-1.84-4.43c0-2.12.85-3.86,2.5-5.13,1.65-1.27,3.91-1.88,6.69-1.88s4.94.61,6.69,1.84c1.74,1.27,2.64,2.87,2.73,4.85l-5.98.47c-.09-.8-.47-1.46-1.08-1.88-.61-.42-1.46-.66-2.54-.66-.9,0-1.6.14-2.12.47-.52.33-.75.75-.75,1.37,0,1.18.9,1.93,2.68,2.21l3.67.61c2.07.33,3.67,1.08,4.85,2.21,1.18,1.13,1.74,2.64,1.74,4.47,0,2.21-.85,4-2.54,5.37-1.69,1.37-4.05,2.07-7.11,2.07s-5.55-.66-7.2-1.93c-1.65-1.27-2.54-3.06-2.64-5.27"></path>
      <path class="cls-2" d="M213.22,26.65c-.9-1.79-2.12-3.2-3.67-4.19-1.55-.99-3.25-1.51-5.08-1.51-1.18,0-2.17.14-2.97.42s-1.51.66-2.02,1.08c-.52.47-1.18,1.13-1.98,2.03v-12.85h-6.64v32.16h6.5v-2.68c.89.8,1.65,1.41,2.21,1.84.57.42,1.22.75,2.02.99.75.28,1.65.42,2.73.42,1.93,0,3.67-.47,5.23-1.46,1.55-.99,2.78-2.36,3.67-4.14.89-1.74,1.32-3.77,1.32-6.07s-.42-4.24-1.32-6.03M206.39,37.34c-.99,1.18-2.26,1.74-3.91,1.74s-2.87-.57-3.81-1.74c-.99-1.18-1.46-2.73-1.46-4.66s.47-3.53,1.46-4.71c.94-1.18,2.21-1.74,3.81-1.74s2.92.57,3.91,1.7c.94,1.18,1.41,2.73,1.41,4.71s-.47,3.58-1.41,4.71"></path>
      <polygon class="cls-2" points="213.28 21.52 220.48 21.52 225.38 34.28 230.32 21.52 236.87 21.52 224.15 52.17 217.75 52.17 222.04 42.29 213.28 21.52"></polygon>
      <path class="cls-2" d="M120.75,31.22c-1.11,3.75-4.56,6.52-8.67,6.52-5.01,0-9.08-4.07-9.08-9.08s4.07-9.08,9.08-9.08c4.11,0,7.55,2.76,8.67,6.52h6.95c-1.23-7.53-7.74-13.28-15.62-13.28-8.75,0-15.84,7.09-15.84,15.84s7.09,15.84,15.84,15.84c7.88,0,14.39-5.75,15.62-13.28h-6.95Z"></path>
    </g>
  </g>
  <g id="mark">
    <g id="mark-2" data-name="mark">
      <path class="cls-1" d="M53.66,65.62c-5.98,0-11.23-.84-11.28-.85-.39-.04-.47.14-.25.19,0,0,4.18,2.06,10.56,2.17,9.45.15,12.62-2.11,12.78-2.14.13-.05.26-.1.39-.14v-.05s0-.04-.03-.06c-.46.06-6.19.88-12.17.88Z"></path>
      <g id="Gxng46">
        <g>
          <path class="cls-1" d="M65.96,30.19l2.03-1.87-.24.06-3.96,3.32c-1.01,1.06-1.72,2.04-2.63,3.17-.23.29-.53.55-.75.85-.04.05-.14.15.01.1.59-.67,1.19-1.36,1.91-1.89l-.33.03c.21-.21,1.75-1.26,1.71-1.42,0-.03-.16-.07-.14-.11.3-.07.42-.38.6-.56,1.23-1.18,2.75-2.03,4.08-3.09l1.21-1.01c-1.2.77-2.29,1.69-3.52,2.41Z"></path>
          <path class="cls-1" d="M47.9,57.93c.78.43,1.61.18,2.43.05l-.2.11.08.09s-.64.15-.42.33c.32-.36.86-.16,1.29-.22-.04-.34-.11-.14-.32-.17-.06,0-.26-.14-.22-.2l.43-.17c.16.1-.07.09-.04.18.19-.12.31.02.45.04.27.04.92.07,1.16-.03.07-.03.18-.24.25-.21.1.05-.06.17-.09.19-.39.28-.8.13-1.23.15l.25.1c-.15.1-.4-.12-.43.08,0,.05.1-.01.12.02.16.32-.33.15-.35.17-.03.03.22.08.08.2l-.28-.1.16.18-.65-.12c0,.14.06.08.13.11.53.2.88.04,1.38.02.51-.02.36.2.56.49.09.13.44.28.09.34.15.11.03.22.05.3.02.12.21.35.26.5.16.43.1,1.02.22,1.44.01.04.08.21.14.18.02-.17-.09-.36-.11-.49-.01-.09-.04-.62-.02-.66.06-.12.09,0,.12.05.06.13.1.23.2.34-.42.21.05.41.05.44,0,.03-.11.09-.13.16-.03.12.08.26.1.38l-.2-.12c-.03.58.14,1.38.05,1.94-.04.28-.29.95-.4,1.24-.08.22-.24.42-.33.64.41,0,.82.02,1.24.03.13-.3.26-.6.38-.9.2-.5.59-2.16,1.04-2.39.14-.07.3-.06.43-.15.16-.1.21-.39.33-.48.41-.34,1.28-.64,1.64-1,.1-.1.08-.21.14-.28.59-.71,2.15-1.69,2.97-2.18.39-.23.96-.53,1.28-.85.12-.12.25-.4.37-.54-.13-.05-.9.27-.93.32-.1.15.33.02.21.17-.03.04-.41.06-.49.04.03-.07.12-.11.15-.18.1-.23.19-.75.31-.96.12-.19.57-.54.67-.79.06-.14.18-.66-.07-.62-.36.05-1.02,1.15-1.2,1.49-.17.33-.29.7-.44,1.04.36.08-.07.19-.16.26-.75.61-1.53,1.14-2.27,1.75-.55.45-.87.89-1.52,1.21-.11.06-.25.06-.35.11-.26.13-.59.28-.78.48-.09.06.04-.55.05-.6.01-.2-.05-.44,0-.63.03-.17.22-.39.23-.58.03-.58.14-1.5.35-2.08.07-.18.2-.32.26-.52.22-.69.21-1.26.52-1.98.45-1.05,1.01-1.86,1.7-2.71.06-.07.26-.2.27-.22.01-.03-.05-.52-.07-.53-.42.2-.76.6-1.07.96-.14.17-.66.92-.77.98-.18.09-.01-.23-.01-.32.02-1.04-.03-2.13-.05-3.17,0-.26-.03-.91.02-1.11.11-.46.03-.66.06-1.13.02-.39.21-.63.28-1,.06-.31.05-.74.03-1.06,0-.08-.09-.17-.08-.2,0-.02.11-.06.13-.12.13-.3.01-.43.03-.7.01-.28.16-.68.17-1.02,0-.1-.06-.17-.06-.22,0-.08.16-.15.17-.3.01-.17-.08-.33-.09-.5-.04-.75.15-.86.36-1.49.14-.42.3-1,.37-1.4.03-.2.12-.66.2-.82.11-.22.53-.53.57-.74,0-.03,0-.09-.05-.07l-.42.56c-.11-.12.19-.29.22-.45l.23-.62c-.27.21-.35.53-.52.81-.06-.1.07-.41.14-.54.06-.12.3-.38.31-.44.01-.07-.04-.1-.1-.06-.27.21-.45,1.04-.61,1.34-.05.08-.07.11-.09,0,.18-.61.43-1.12.79-1.64.25-.36.64-.71.88-1.05.12-.17.12-.34.24-.53.35-.54,1.06-1.12,1.51-1.61.76-.85,1.29-1.54,2.18-2.31.01-.01.02-.07.06-.12.4-.42.85-.74,1.27-1.13.05-.04.13-.15-.02-.1-.64.57-1.35,1.06-1.97,1.65-.63.61-1.15,1.33-1.76,1.95-.03.03-.15.15-.12.02.39-.61.96-1.08,1.41-1.63.12-.15-.09-.04-.08-.09l4.7-5.23-.02-.1c-.54.6-1.17,1.12-1.72,1.71-1.09,1.16-2.23,2.49-3.27,3.7-.87,1.02-1.55,2.12-2.38,3.16-.05.07-.24.35-.27.15.43-.74.88-1.48,1.35-2.2.59-.92,1.25-1.9,1.91-2.76,1.55-2.03,3.36-3.85,4.94-5.85.08-.13,0-.11-.07-.04-.25.25-.52.58-.76.85-1.61,1.82-3.34,3.81-4.78,5.77-.49.66-.91,1.37-1.39,2.04-.05.07-.05.15-.16.15.77-1.47,1.83-2.8,2.89-4.08l-.07-.04-.95,1.12c1.02-1.63,2.28-3.1,3.5-4.58-.06-.07-.12.04-.16.08-.81.78-1.65,1.88-2.36,2.76-.19.24-.69,1.01-.87,1.14-.02.02-.08.04-.08,0,1.39-2.02,2.94-3.95,4.67-5.7.09-.13,0-.1-.07-.04-.17.14-.29.36-.5.44l.36-.57s-.06-.02-.08,0c-.17.13-.53.72-.7.93-1.69,2.07-3.4,3.96-4.85,6.22-.25.39-1.37,2.2-1.41,2.5.29-.52.66-1,.96-1.51l.85-1.09c-.52.95-1.17,1.83-1.74,2.75-.12.07-.07-.11-.07-.15-.17.31-.26.59-.42.89-.05.1-.39.7-.43.73-.06.04-.11.01-.1-.06.03-.21.41-.81.52-1.04.07-.15.19-.37.2-.53l-.93,1.53c-.14.07-.06-.12-.03-.15.44-.78.95-1.5,1.45-2.23.33-.48.57-1.21.85-1.74,1-1.87,2.44-3.53,3.63-5.28.26-.39.51-.81.76-1.21-.19.03-.27.34-.38.49-.51.73-1.04,1.44-1.56,2.17-.22.3-.49.58-.7.88-.31.44-.48,1.03-.95,1.34-.06-.03.38-.81.41-.9.13-.3.21-.66.35-.96.26-.55.82-1.37.98-1.88.03-.1-.04-.16-.01-.27.08-.32.26-.64.36-.96.05-.17.17-.44.11-.61-.19.4-.3.83-.47,1.24-.85,2-1.95,3.88-2.73,5.9l-1.29,2.21c.1-.36.3-.68.43-1.02.2-.55.27-1.35.74-1.69-.01-.1-.12-.02-.17.01-.12.08-.23.28-.38.27.19-.2.34-.32.47-.57.4-.73.7-1.64,1.1-2.39.19-.36.44-.79.71-1.08l-.12-.03-.02-.08c.68-1.65,1.6-3.17,2.44-4.73l-.15.09c-.75,1.29-1.52,2.58-2.14,3.95l.03-.23c.62-1.56,1.26-3.12,2.05-4.61l-.05-.07c-.17.18-.29.4-.41.61-.49.87-.99,2.16-1.39,3.12-.69,1.65-1.2,3.22-2.07,4.77-.05.09-.1.23-.22.25-.05-.03.46-1.02.49-1.12.22-.62.12-1.44.69-1.97l-.2.08-.02-.08c.71-1.78,1.45-3.55,2.03-5.38.02-.05.1-.15,0-.18l-2.32,6.02c-.58,2.52-1.85,4.93-2.66,7.38-.19.59-.31,1.21-.42,1.81-.1-.24-.03-.52.01-.75.13-.72.53-1.46.69-2.14.03-.14,0-.35,0-.38,0-.02.13-.02.26-.27.74-1.35,1.27-3.45,1.79-4.94.04-.11.24-.49.19-.54l-.24.15.52-.99,1.42-4.18c-.03-.16-.07-.02-.09.03-.4.95-.66,2.07-1.04,3.06-.25.67-.58,1.48-.88,2.12-.14.3-.34.62-.5.91v-.26s1.69-4.89,1.69-4.89c-.7,1.4-1.09,2.94-1.72,4.38-.04.02-.06-.08-.05-.1-.16.82-.3,1.66-.67,2.42l.13-1.83.81-2.29-.1.88c-.1.26-.12.54-.17.82,0-.04.12-.22.15-.34.31-1.23.51-2.13.94-3.34.1-.3.21-.63.26-.94l-1.61,3.84c-.1.04-.07-.1-.07-.15,0-.1.04-.26.05-.37.17-1.01.48-2.05.79-3.02l-.05-.07c-.49,1.32-.78,2.73-.98,4.12l-1.05,3.48c-.1.04-.07-.1-.07-.15-.01-.51.05-1.12,0-1.61,0-.06,0-.2-.08-.16-.05.63,0,1.28-.07,1.9-.02.17-.04.43-.14.57.07-1-.57-2.13-.05-3.05l-.23.2c-.03-.13-.08-.26-.1-.4-.04-.19-.14-.91-.12-1.05.05-.33.79-1.09,1.01-1.4,0,.57-.16,1.15-.15,1.72,0,.06-.03.19.07.15.14-.97.02-2.14.78-2.87.01-.06-.21.11-.04-.16.22-.35.57-.7.8-1.05-.08-.06-.17.09-.22.14-.33.32-.59.71-.88,1.07-.08-.05.27-1.19.32-1.36.01-.05.08-.16,0-.18l-.58,1.87-1.16,1.44s-.16-.14-.16-.16c-.11-.27-.18-.92-.28-1.27-.08-.26-.25-.53-.31-.8l.72-2.42c-.33.57-.41,1.38-.68,1.95-.11.23-.25.24-.26-.02,0-.19.3-.97.39-1.21l1.01-2.69c-.62,1.17-1.04,2.46-1.47,3.72l-.21-.45c.26-.9.63-1.77,1-2.62.29-.66.66-1.29.93-1.96.04-.09.1-.2.07-.29-.58,1.05-1.03,2.18-1.55,3.27-.08-.02-.04-.14-.03-.2.05-.41.25-.91.32-1.33.02-.1,0-.18-.07-.04l-.7,2.65c-.11.03-.07-.14-.06-.19.1-.71.42-1.49.61-2.19.11-.43.16-.94.27-1.36,0-.02.06-.18.11-.12l-.08.58c.03.16.07.03.09-.03.11-.33.11-.69.18-1.02.02-.1.27-.57.02-.43l.03-.32c-.54,1.54-.74,3.22-1.44,4.7-.05-.37-.12-.74-.22-1.1-.02-.06,0-.21-.1-.17l.22.87c.13.5,0,.93-.11,1.41-.1.41-.23.82-.37,1.22-.17-.55-.43-1.06-.39-1.64-.09.11.03.16-.2.11.17.51.36,1.04.48,1.56l-.07.07c-.09-.41-.35-.72-.35-1.15l-.09.08c.03-.33-.14-.55-.21-.82-.06-.23.22-2.06.29-2.43.06-.32.3-.91.3-1.17,0-.05,0-.17-.06-.17l-.16.49-.11-.08c.02.79-.32,1.52-.4,2.29,0,.05-.03.19.07.15l.15-.96c.05-.1.07.04.07.08-.06.66-.26,1.3-.32,1.96.19.13.24.43.31.67l-.4,1.62c-.11-.71.13-1.45.12-2.17-.08.01-.06.14-.07.21-.09.52-.13,1.06-.21,1.58-.05.1-.06-.04-.06-.08,0-.73.1-1.47.1-2.2l.13.08c0-.21-.04-.35-.13-.53l.18.07c-.21-.32,0-.56,0-.9l-.2.53c-.06.09-.07-.04-.08-.09-.02-.56.15-1.29.17-1.87,0-.05.02-.19-.07-.15-.04.62-.15,1.25-.2,1.88-.08,1.06-.08,2.14-.26,3.2l-.04,1.74c-.22-1.68-.09-3.35.07-5.02l.16.18c-.02-.48-.07-.84,0-1.32.19-1.2.72-2.44.97-3.63l-.09.03c-.25.98-.6,1.93-.81,2.93l.12-1.94c0-.17.07-.36.09-.53,0-.05.03-.19-.07-.15-.25,1.18-.17,2.55-.43,3.71-.02.07-.01.16-.09.19-.15-.28-.13-.56-.14-.86,0-.38.04-.79.07-1.17.05-.67.23-1.44.24-2.1,0-.05,0-.2-.08-.16l-.34,3.63c-.03.17-.2-.13-.28-.1.04.21.26.34.28.55.03.21-.04.55-.04.78,0,1.53,0,3.05.01,4.58,0,.06.03.16-.05.17-.35-2.24-.59-4.5-.61-6.76-.08,0-.05.11-.05.17-.11.89.02,1.89.02,2.79l-.09,2.47c-.13-.58-.39-1.12-.49-1.7-.2-1.17-.24-2.46-.48-3.64l-.17-.44.08.56-.02.35-.7-3.39.02.75c.32,1.55.56,3.12.86,4.67.05.28.18.58.22.85.01.08.03.17-.06.21-.24-.66-.39-1.35-.63-2-.56-1.56-1.23-3.1-1.81-4.66-.07-.2-.05-.56-.27-.63.21.53.3,1.11.48,1.65.25.76.55,1.63.83,2.37.26.69.68,1.36.91,2.02.2.59.29,1.27.48,1.87-.07.03-.1-.07-.13-.12-.21-.4-.39-.83-.62-1.23-.27-.49-.94-1.4-1.09-1.87-.13-.4-.13-1.03-.21-1.46-.03-.15-.08-.3-.11-.45-.08.02-.04.21-.04.27.05.44.13.89.22,1.32h-.11c.71,1.29,1.47,2.57,2.07,3.91l1.02,4.66c-.09.04-.08-.11-.1-.17-.15-.49-.25-1.01-.38-1.5,0,0-.05,0-.05.04.01.14.22.71.2.76-.03.01-.07-.01-.09-.03-.2-.21-.61-1.21-.75-1.53-.49-1.16-.87-2.37-1.15-3.6l.31.49c.68,1.24,1.15,2.51,1.53,3.87.09-.32-.45-1.85-.62-2.25-.44-1.04-1.01-1.96-1.51-2.97.04-.1.07.03.09.07.55.97,1.16,1.92,1.53,2.97.1-.02.01-.19,0-.25-.08-.23-.22-.52-.32-.74-.81-1.75-2.03-3.36-3.01-5.01-.1.01-.01.12.01.17.23.49.65,1.04.93,1.54.65,1.16,1.08,2.1,1.28,3.44l.53,1.63c-.11,0-.11-.09-.15-.16-.23-.37-.48-.85-.69-1.25-1.24-2.25-2.29-4.61-3.21-7.01-.1.01-.02.13,0,.2.22,1.03.78,2.2,1.22,3.16.41.88.95,1.72,1.22,2.66-.09,0-.13-.13-.22-.2-.05-.04-.15-.02-.19-.07-.04-.07-.04-.19-.09-.28-.92-1.47-1.68-3.06-2.2-4.72l.08.51c.26.62.45,1.27.72,1.89.38.91,1.03,1.88,1.37,2.76.07.18.09.37.15.55l-.29-.23c-.56-.93-1.78-2.17-2.05-3.2l-.22-.87c-.17.24.08.65.17.89.02.06.1.18,0,.19-.5-.71-.87-1.51-1.34-2.23-.07-.1-.11-.12-.06.02.29.54.58,1.08.88,1.61.18.31.53.72.66,1,.16.35.26.84.38,1.21l.05-.17-.05-.45,1.85,2.73c.03.06.14.77-.04.63-.01,0-.06-.18-.1-.24-.36-.54-.79-1.27-1.18-1.72-.08-.09-.29-.29-.3-.31-.09-.13-.04-.5-.26-.35l-1.33-2.3c-.1.01-.02.13,0,.18.32.76.92,1.49,1.27,2.25.02.05.11.16.01.17l-3.27-4.11-.17-.13c.31.44.62.89.94,1.31.87,1.12,1.88,2.16,2.62,3.37l.05.64c-.81-.71-1.41-1.69-2.11-2.52l-1.16-1.26.12.22,3.13,3.79c.03.24.08.46.15.69,0,0,.04,0,.04-.02.02-.1-.09-.27.1-.3.03.2.43.56.46.7l.22.87c-.13.07-.1-.01-.16-.07-.48-.48-.49-.52-.67-1.18,0,0-.05,0-.05.04.01.12.09.26.1.39-.05.02-.07.02-.11,0-.1-.05-.47-.46-.6-.57-.19-.16-.74-.51-.86-.66-.12-.16-.03-.91-.15-1.14-.08,0-.04.11-.04.18,0,.26.04.52.03.78l-1.83-1.56c.01.27.31.38.5.55.18.17,1.34,1.21,1.37,1.3.02.08.07.97-.1.9-.24-.39-.87-.69-1.12-1.02-.07-.1-.07-.28-.17-.28.18.93.51,1.85.46,2.81-.1-.04-.11-.12-.14-.21-.25-.75-.32-1.53-.47-2.3-.02-.09-.05-.37-.16-.38.17,1.03.25,2,.68,2.97.05.11.16.18.2.27.16.36.26.84.37,1.22l-.15-.08-.79-2.26.06.46.42,1.21c-.08.02-.14-.16-.16-.22-.2-.48-.32-1.02-.51-1.49-.14-.35-.37-.72-.5-1.09-.1.01-.01.12,0,.18.14.39.31.78.45,1.17-.1.15-.79-.41-.95-.43.19.31.83.42.97.74.41,1.84.82,3.69,1.51,5.46l.07.52c-.52-.7-.54-1.47-.74-2.26-.04-.15-.13-.26-.16-.4-.1-.36-.17-.73-.28-1.08l.07.74c.17.71.36,1.41.6,2.1.02.06.09.19,0,.2l-2.03-3.27-1.27-2.8c.52,1.64,1.29,3.19,2.19,4.66.18.3,1.07,1.48,1.12,1.67l.2.79s.11.09.1.17c-.06,0-.12-.04-.15-.08-.28-.26-.81-.9-1.07-1.22-.83-1.03-1.44-2.36-1.99-3.56-.09.01-.02.14,0,.2.05.16.16.31.22.47.02.06.11.16,0,.18-.35-.65-.74-1.27-1.14-1.89-.07-.1-.11-.12-.06.02.34.72.87,1.35,1.1,2.11l.05-.24c.16.41.52.71.72,1.09.03.05.1.17,0,.18l-.65-1.01-.06.18-3.47-4.34v.17c1.34,1.64,2.62,3.32,3.86,5.03l.06-.18,3.11,4.89c-.27-.16-.45-.51-.65-.75-1.18-1.43-2.6-2.66-3.61-4.23-.1.01-.02.12.01.17.1.17.26.34.37.51.05.08.09.16-.04.08-.77-.93-2.73-1.99-3.33-2.92-.56-.85-.93-1.85-1.45-2.72-.1.01-.01.11.01.17.08.18.17.37.25.55.31.65.84,1.38,1.1,1.99.01.03.04.08,0,.09-.03.03-.33-.34-.28-.13l1.28,1.61,1.28,2.03-3.77-3.5-.1.02c.54.56,1.08,1.14,1.64,1.68.8.77,1.78,1.51,2.53,2.3.54.57.92,1.27,1.42,1.87-.05.08-.68-.35-.77-.39-.63-.32-1.29-.59-1.94-.88l-1.71-1.64c-.07.06.05.12.08.17.21.28.49.51.71.77.07.09.22.26.23.37l-2.24-1.06-.65-.68c.31.55.85.95,1.21,1.48.02.06.13.07.15.09-.08-.11-.22-.26-.24-.39.4.14.8.31,1.19.48.65.3,1.39.63,1.85,1.19l1.39,1.25c-.6-.25-1.36-.35-1.95-.6-.66-.29-1.72-1.39-2.24-1.93,1.82,2.49,4.56,3.38,7.13,4.78.58.32,1.13.69,1.68,1.06-.12.02-.26-.05-.36-.1-.74-.35-1.46-.9-2.19-1.3-2.36-1.3-4-1.8-5.95-3.87-.52-.55-.99-1.16-1.45-1.75l-.03.12-.08.02-2.07-.82-.07.05c.65.4,1.46.61,2.12.95.54.28.74.66,1.15,1.08.02.23-.31-.22-.29-.24-.1.01-.02.12.01.17.3.44.82.88,1.2,1.27l-5.65-2.52c1.91,1.02,3.88,1.94,5.85,2.86-.89-.17-1.8-.35-2.71-.46-.29-.04-.69-.1-.97-.11-.05,0-.2,0-.16.08.99.18,2.13.23,3.1.47.25.06.52.1.6.38l-.04-.27c.27.24.46.6.65.9.1-.01.01-.12-.01-.17-.06-.12-.47-.61-.43-.67.71.06,1.31.54,1.89.92.49.32.96.72,1.44,1.04.45.3,1,.54,1.43.84.06.05.15.05.15.16-.73-.26-1.44-.57-2.17-.83-.47-.17-1.34-.33-1.69-.62-.06-.05-.12-.15-.16-.22l.04.27-.21-.28-.09.19c-1.37-.42-2.76-.95-4.18-1.19-.18-.03-.44-.08-.62-.09-.05,0-.19-.02-.15.07.51.07,1.03.19,1.53.33,1.13.32,1.7.56,2.63,1.31.06.05.37.31.35.36-1.31-.26-2.58-.71-3.88-.97-.28-.06-.7-.15-.98-.16-.06,0-.18-.05-.2.03,2.12.53,4.19,1.26,6.31,1.74.72.16,1.54.27,2.3.42.49.1,1.02.2,1.48.37-.23.07-.56-.11-.82-.13-.05,0-.19-.03-.15.07.41.01.83.26,1.23.3.17.02-.09-.14.08-.13l2.92.97c.14.07.06.09-.04.07-.17-.03-.37-.03-.5-.06-.19-.04-.32-.18-.46-.23-.09-.04-.38-.13-.48-.07.67.33,1.34.66,2.02.97.47.21,1.06.39,1.51.63.06.03.3.14.25.21-.05.08-.43-.28-.55-.24l-.66-.09.14-.09c-.21-.18-.48-.19-.72-.3-.18-.08-.39-.24-.57-.32-.86-.36-1.85-.48-2.71-.87-.16.03-.02.07.03.09.78.38,1.79.64,2.62.94.13.05.49.07.41.21-.59-.22-1.26-.17-1.86-.35-1.02-.3-2.02-1.03-3.04-1.33-.04-.09.1-.07.15-.07.82.08,1.63.46,2.42.6.04,0,.2.06.11-.04-1.03-.28-2.14-.79-3.18-.98-.09-.02-.28-.08-.36,0,.2.1.5.03.67.19-.05.06-.79-.1-.94-.12-2.13-.29-4.26-.59-6.43-.71-.88-.05-2-.14-2.87-.07-.06,0-.29-.01-.26.1,1.66.02,3.33.09,4.98.24.94.09,1.97.14,2.83.51.16-.03.02-.07-.03-.09-.15-.07-.35-.1-.47-.23.13,0,.32.02.44.04.79.18,2.13.82,2.86,1.22.43.23.85.59,1.28.8.21.1.54.06.74.27l-.53-.09c.07.06.88.39.8.5-.15.03-.29.09-.44.11-.27.03-1.19-.37-1.5-.5-.08-.03-.16-.02-.16-.14.66-.15,1.01.1,1.55.36.05.02.14.11.17.01l-2.17-1.33-.75-.31-1.4-.31,2.3.87c-.83-.02-1.66-.21-2.49-.29-.05,0-.19-.03-.15.07,1.17.25,2.36.46,3.51.76.05.14,0,.06-.08.06-.42.03-.47-.07-.76-.15-.14-.03-.32.02-.49,0-.33-.05-.79-.26-1.13-.35-.08-.02-.13-.08-.23-.02l3.33,1.37c-.02.09-.14.03-.19.02-.59-.09-1.09-.23-1.66-.38-.05-.01-.2-.06-.11.04l2.86.84.07-.05-.64-.31c.08-.11,1.34.55,1.52.68l-5.15-1.39c-.32.11-.65.02-.97.05-.06,0-.2,0-.16.08.45,0,.89.12,1.34.19.15.02.34,0,.52.02.18.03.43.1.63.15.12.03.15.03,0,.06-1.19-.03-2.34-.39-3.53-.39-.15.04-.14.04,0,.06.25.03.51.04.77.07l2.03.39c-1.01.26-2.08.18-3.1.4l.88-.06c.09.23-.4.08-.51.19l.39.05c.43-.12.88-.09,1.32-.16-.02-.08-.18-.06-.25-.06-.2-.01-.4,0-.6,0-.04-.08.06-.07.11-.08.28-.03.61,0,.9-.01.12.02-.05.24-.1.26-.39.16-.96.22-1.38.35-.26.08-.58.18-.83.27-.15.05-.47.15-.51.3.51-.17,1.05-.42,1.57-.57.3-.09,1.74-.5,1.93-.38.16.1-.08.1-.04.18.17-.02.45-.19.61-.04l-1.14.18.46-.17c-.05-.08-.34.02-.41.05-.15.06-.24.16-.34.2-.24.08-.49.11-.73.19l-.99.42c1.25-.37,2.53-.78,3.83-.92.55-.06,2.34-.09,2.78.07.1.03.23.06.29.15-.21.11-.93-.28-1.01-.19l.15.24c-.35-.1-.75-.05-1.12-.08-.43-.03-.87-.2-1.34-.08l-.49.18c.6-.15,1.09-.16,1.69,0,.08.02.13-.04.14.11-.21.04-.45.09-.66.1-.09,0-.4-.13-.27.08-.73-.03-1.43.3-2.14.43-.12.02-.25.04-.37.06.04.02.04.07.12.06.4-.05.86-.27,1.27-.32l2.16.29c.02-.09-.17-.13-.23-.14-.47-.09-1.02-.07-1.5-.15-.04-.09.11-.08.17-.09.11-.02.67-.05.69-.07v-.11c.23.12.66.17.86.28.09.05.05.13.16.18.33.14.96.08,1.31.29.16-.03.02-.07-.03-.09-.16-.08-.37-.17-.53-.23-.19-.08-.69-.19-.81-.27-.07-.05-.06-.08-.08-.15.84-.05,1.87-.31,2.69-.04.31.1.53.26.85.38,1.59.58,3.06,1.27,4.4,2.33v.08c-.55-.32-1.06-.69-1.61-1-.21-.12-1.27-.68-1.42-.7-.03,0-.09.01-.07.05.36.38.82.62,1.27.89l.03-.12.84.54c-.23.09-.41-.25-.62-.32l.2.34-1.1-.56v.17s-2.91-1.56-2.91-1.56v-.11c.88.4,1.82.66,2.6,1.25-.04-.26-.32-.39-.52-.51-.6-.35-1.37-.56-2.01-.83.16-.13.38.05.55.06-.08-.14-.36-.25-.51-.27-.07-.01-.52-.03-.54,0-.02.03.04.1-.01.1-.16-.1-.32-.22-.52-.15,0,.11.09.11.15.16.41.3,1.22.76,1.69,1,.27.14.57.24.86.37-.04.09-.19,0-.26,0-.48-.11-.98-.28-1.45-.42l-.07.05c.94.41,2.01.51,2.91,1.03-.57-.11-1.17-.27-1.72-.46-.57-.19-1.21-.54-1.78-.7-.1-.03-.18-.01-.04.07.59.23,1.16.53,1.75.75.91.35,1.9.51,2.75.99-.89,0-1.71-.42-2.55-.65-1.22-.34-2.71-.61-3.97-.79-.51-.07-1.14-.16-1.65-.16-.06,0-.24-.02-.21.08.68,0,1.38.1,2.04.22,1.08.19,2.37.45,3.43.72.19.05.45.1.61.21-1.9-.25-3.81-.24-5.72-.21l-.21.1c.24-.03.52-.05.76-.03.08,0,.1.08.14.08.58.03,1.21-.04,1.79-.02,1.39.06,2.77.21,4.15.36.04.1-.1.07-.15.07-.19.01-.39-.02-.59,0-.06,0-.26.02-.22.11.56-.13,1.13.02,1.69.02.04.09-.11.09-.17.09-.69.06-1.46-.1-2.16.05l.45-.23c-.62.17-1.25.21-1.89.27-.06,0-.2,0-.16.08.74.03,1.56-.06,2.29.02.55.07.61.15,1.23.11.15,0,.48.01.59.11l-.14.09c.13-.01.26-.03.39-.01.68.09,1.38.11,2.06.22.17.03.42.06.56.15-.34.11-.65-.07-.97-.06-.15,0-.29.07-.44.06-.52-.02-1.2-.32-1.79-.3-.14,0-.03.08,0,.11-.96.15-2.1-.12-3.03.16-.06.02-.21,0-.17.1,1.76-.27,3.54-.04,5.3.01.06,0,.16-.03.17.05-1.12.07-2.22.29-3.33.51-1.45.14-2.86.54-4.28.87-.13.03-.25,0-.38.04-.31.07-.65.16-.95.25-.06.02-.21.01-.17.1.63-.23,1.31-.25,1.95-.38,2.51-.52,5.01-1,7.54-1.32.41-.05.74-.26,1.11.06-1.66-.03-3.26.71-4.84,1.18-.06.02-.21.01-.17.1,1.32-.3,2.52-.88,3.85-1.1.43-.07.89-.09,1.32-.11.06-.01-.14-.13.03-.12.23.02.55.02.56.31-.14,0-.3-.25-.43-.14.13.12.35.16.48.25.19.13.82.6.94.75.21.26.33.69.54.96.04.05.11.01.11.02.03.03-.06.09-.05.15.05.26.21.59.26.89.27,1.58.18,3.69.09,5.29-.09,1.57-.57,3.28-.92,4.83-.24,1.08-.35,2.03-.67,3.1-.01.04-.09.74-.24.64-.07-.1,0-.33-.05-.4-.06-.09-.21-.02-.23-.03-.04-.02-.03-.7-.04-.81-.02-.12-.07-.44-.1-.53-.05-.13-.22-.19-.24-.38-.01-.11.08-.17.09-.27.03-.34-.1-.67.15-.94.35-.39.84-.63,1.21-1.12.41-.54.42-.88.42-1.54,0-.15-.08-.29-.08-.45,0-.27.35-.78.37-1.08,0-.03,0-.09-.05-.07l-.57.51c.1-.4.59-.56.72-.96.07-.2-.04-.37-.03-.55.01-.21.19-.42.04-.67-.11.08-.09.27-.19.36-.06.05-.2-.02-.18.16-.05.11-.07-.04-.07-.08.03-.39.29-.46.41-.74.08-.19.04-.4.07-.59.02-.11.23-.21-.07-.44-.34-.27-.48.14-.61.38-.13-.29.2-.72.16-.91-.03-.2-.48-1.12-.73-1.01-.22.09-.33.64-.32.86-.02.02-.12-.04-.13-.05l-.22-.84c-.02-.08.17-.24.19-.43.05-.38-.07-.87-.41-1.09-.19-.12-.25.1-.32.26-.11.27-.07.58-.25.81-.16-.5-.63-1.17-1.03-1.52-.41-.36-.52-.51-.83-.99-.07-.12-.05-.28-.2-.35-.11,0-.28.56-.28.69.01.3.15.52.21.79-.35-.11-.72-.53-.94-.83-.14-.19-.65-1.3-.96-.88-.2.27.16.75.16,1.03-.25-.03-.37-.32-.61-.41-.07.37-.45-.22-.57-.32-.07-.06-.42-.36-.45-.38-.08-.04-.8-.05-.82-.01.06.24.08.49.28.66-.67-.07-1.22.29-1.86.42l.52-.07c.16-.03.29-.14.46-.18.35-.08.21.07.26.18.03.07.29.22.27.25-.15.05-.25-.12-.38-.15-.29-.08-.48.06-.74.16.1.4.32.74.5,1.11-.25-.05-.49-.03-.73.09-.15.08-.69.64-.37.81v-.16c.05-.08.8.1.88.22l-.34-.02.33.2-.41-.06c-.06.11.56.2.12.36-.28.11-.5.17-.71.43-.31.41-.12.63.31.79l-.35-.28s.11-.28.12-.28c.05-.01.77.26.92.26.18,0,.3-.22.46,0l-.2.11c.1,0,.4-.12.41.06l-.37.1.36.1-.38.07.19.09-.2.08.21.17c-.11.15-.85-.36-.45,0-.32,0-1.01.45-1.15.71-.03.06-.06.34-.02.4.07.11.35.05.39.22.09,0,.03-.13,0-.16-.04-.04-.32,0-.3-.13.06-.38.79-.1,1.01-.23l-.28.24c.26-.09.5.05.77-.08.09.23-.35.1-.46.17l.13.08-.14.09.3.09-.69-.05.42.31c.11.04.21-.02.34.02.61.17.02.28-.19.39-.26.14-.17.26-.27.47-.06.14-.29.24-.15.48.05.09.43.24.56.23-.1-.13-.77-.27-.43-.5.31-.2.54.15.84.12l-.12.2c.34-.07.59-.06.95-.02-.04.14-.26.23-.38.27l.2.12c-.25.13-.29-.11-.35-.14-.04-.01-.44-.06-.39.07.03.1.72.17.73.21.01.06-.16.09-.12.17.69,0-.13.54.21.82.57-.03,1.2.37,1.66-.12.07.14-.02.1-.08.15-.15.12-.28.25-.49.22,0,0,.13.15.11.2-.07.14-.13-.11-.18-.06.08.21-.25.02-.26.29.19-.09.35.08.54.03.15-.04.34-.27.54-.36.3-.14.64-.14.94-.25.07-.03.46-.29.48-.21l-.34.23.3.09-.55.1-.48.25.9-.2c.03.07-.08.11-.12.13-.11.05-.35.06-.37.16.27-.1.54-.11.82-.1-.02.23-.28.07-.42.08-.11.01-.36.12-.44.12-.11,0-.23-.16-.39-.05.1.09.23,0,.32.17.07.14-.2.08-.22.22l.15.05c-.49.08-.96-.04-1.37-.31-.25.15-.13.55-.44.61l-.33-.87M46.82,56.35c-.09.02,0,.25.02.31.08.24.21.46.24.72M59.41,29.06c-.09.53-.06,1.06-.14,1.59-.13.88-.38,1.86-.55,2.77-.02.11-.03.27-.13.35.15-1.58.16-3.24.82-4.71ZM45,37.23c-.55-.11-1.18-.34-1.73-.48-.71-.18-1.58-.15-2.06-.79-.1.01-.02.12.01.17.09.12.23.23.34.33-.1.14-.15-.08-.28-.13-.35-.12-.93-.13-1.31-.29l-1.72-1.3,1.76.58.42.38c.05-.11-.14-.2-.21-.26,0-.06.07-.04.11-.03.27.05.72.3,1.01.41.91.33,1.84.62,2.75.95l1.14.46c-.09.04-.16.01-.24,0ZM49.36,51.63c.17-.2.22-.28.42-.49.16-.17.27-.39.47-.5-.08.13-.23.4-.32.5-.11.12-.26.14-.35.24-.12.13-.13.49-.4.55h.22c0,.14-.18.16-.29.19.12.16.38-.05.53-.11.05-.02.15-.12.17-.01-.27.18-.55.31-.88.28-.13-.11.37-.56.44-.64ZM48.27,49.29l-.4.27c.03.17-.12.23-.14.27-.07.13.28.12.31.15.02.02-.08.25.22.16-.19.41-.43-.3-.71-.15,0,.09.17-.02.14.1-.01.05-.08.1-.14.12h.17c.22.39-.7.12-.72.06.2-.58.65-.95,1.27-.97ZM46.66,51.8c.12-.37.49-.33.75-.45.28-.13.53-.33.82-.43-.05.16-.57.32-.62.44,0,.01.09.1.09.14-.04.06-.71,0-.32.31-.23.13-.39.13-.65.11.22.3.92-.2,1.03-.15.07.32-.53.34-.76.34-.22,0-.45-.05-.36-.31ZM47.12,54.25c0,.1.16-.03.14.1-.07.32-.72-.06-.88-.09-.12-.02-.43.1-.46-.1.21,0,.41-.08.61-.09.3,0,.86.29.71-.25.36-.06.05.41-.12.42ZM47.41,53.5c-.27.03-.57-.06-.82-.13-.16-.04.08.18-.08.13-.55-.17.27-.57.4-.69.01-.01,0-.09.03-.1l1.34-.12-.72.24.55-.06c-.34.18-.65.19-1.02.18.2.11.36.17.39.43.01.08.05.09-.06.1ZM49.1,55.48c-.11-.05-.11-.18-.17-.18-.08,0-.22.07-.35.07-.17,0-.28-.09-.42-.12-.17-.04-.33.09-.47-.19.03-.15.45-.54.58-.47.02,0,.03.06.03.09h.05c.08-.45.68-.39.99-.55-.11.25-.47.28-.7.35,0,.08.17.03.23.02.18-.03.37-.1.56-.11.09,0,.08-.05.11.08-.24.09-.48,0-.69.18l.3.06c-.03.18-.26.25-.27.27,0,0,.1.09.07.15-.04.08-.2.06-.16.15l.55-.25c.06.09-.08.17-.03.23.01.02.21.13.24.14.15.03.23-.15.33,0-.16.14-.61.16-.79.09ZM50.24,52.44c-.09.08-.23.23-.3.27-.15.09-.35.04-.46.17-.09.11.13.11.11.22-.29.17-.54.2-.86.16-.02.1.13.14.17.12.24-.06.57-.12.79-.2.06-.02.23-.23.32-.19.14.06-.12.19-.15.2-.26.11-.58.2-.85.28l.57.02c-.24.07-.77.13-1.01.08-.22-.05-.02-.3.07-.43.21-.28.48-.35.82-.46.13-.04.27,0,.42-.06.14-.06.17-.19.33-.25.13-.05.14-.04.02.06ZM52.01,54.95c.07-.1-.06-.24,0-.29.09-.09.39-.16.52-.23.05-.03.12-.17.18-.14.15.07-.35.36-.33.45.04.12.49-.26.38-.04-.12.02-.29.21-.37.23-.02,0-.07-.18-.16-.07-.01.01.17.09-.06.17-.08.03-.15,0-.23.02l.11.2c-.48-.05-.11-.17-.03-.29ZM52.41,56.21l.16.18-.72.24c.12.15.31,0,.44-.06-.27.56-1.18.16-.27-.16l-.08-.09c.31-.21.68-.28,1.02-.43-.03.23-.36.23-.54.31ZM58.79,25.34c.09.06-.26.52-.29.61l-.85,1.09c-.21-.14,1.01-1.55,1.14-1.7ZM56.86,24.59c.22.51.33,1.06.46,1.6.06.25.34.69-.07.83-.13-.48-.23-.97-.37-1.45-.1-.36-.33-.58-.03-.97ZM56.34,25.52c0,.08-.19.81-.23.9-.03.08-.05.15-.15.15-.03-.51.12-.99.24-1.47.12.01.14.32.14.42ZM55.39,27.46c-.02.06-.05.15-.11.18l.56-2.22-.19.13c.06-.09.11-.53.14-.57.03-.03.16.02.17.01.05-.06.08-.86.17-1,.08.11.12.29.11.42-.02.46-.65,2.52-.84,3.04ZM55.68,27.03c.01.15.05.34.02.48-.07.47-.45,1.51-.62,2.01-.04.13.05.27-.18.4l.78-2.9ZM54.69,29.78c-.03.11-.05.29-.19.31.23-1.5.48-3.01,1.13-4.39,0,.6-.35,1.23-.45,1.82-.06.36-.05.34-.15.69-.14.49-.19,1.09-.34,1.58ZM55.94,23.85c.08-.28.08-.64.28-.89l-.19.85-.84,2.62c.14-.89.49-1.73.75-2.58ZM54.49,27.2c.08-.91.22-1.81.26-2.71,0-.16.1-.44.19-.58.16.36.43.76.41,1.16l-.97,3.93c.04-.6.05-1.2.1-1.8ZM54.06,23.96c.09-.04.07.1.08.16.04.36.06.92.06,1.29,0,.34-.08.7-.09,1.02-.02.85,0,1.69-.03,2.54,0,.1.02.32-.05.39-.04-1.8-.08-3.61.02-5.4ZM53.99,34.15c.04.46.65.81.72,1.19.06.33-.43.78-.56,1.1-.37.87-.87,1.7-1.25,2.57-.14.32-.24.64-.35.96l-.17-.12c0,.12.05.37-.05.46-.12-.18-.01-.35,0-.48,0-.03-.08,0-.1-.01-.08-.06.2-1.76.22-2.03.08-1.09.04-2.21.15-3.32.02-.24.02-.52.16-.71-.69.17-.4,1.05-.45,1.62-.03.44-.16.91-.2,1.36-.07.76-.08,1.53-.09,2.3l-.12-.06-.5-4.4.03-2.92c.06-.1.1,0,.14.04.37.28.71.69,1.07.99.11.2-.16.78-.06,1.04.12,0,.14-.19.16-.28.03-.13,0-.52.16-.45l1.11,1.15ZM49.35,37.01c.13.39.34.79.47,1.17.02.06.12.28.02.3l-1.35-3.28c-.54-1.69-1.17-3.35-1.74-5.04l.55,1.29c.25.89.66,1.71.99,2.57.34.88.53,1.59.99,2.41.6,1.06,1.38,2.03,1.75,3.21l-.58-1.1-1.13-1.84c-.09.02,0,.25.02.31ZM48.32,35.87c-.67-.76-1.13-1.61-1.49-2.56.04-.09.11.06.13.08.33.46.63.94.96,1.41.14.2.76.9.8,1.06l.26,1.03-.67-1.02ZM48.48,37.36c-.65-.42-1.06-1.11-1.55-1.68.66.39,1.15,1.04,1.55,1.68ZM47.66,27.76c-.58-.49-1.15-.38-1.33-1.24-.06-.26-.02-.58-.1-.85.04-.09.42.23.49.27.24.18,1.07.85,1.21,1.05.19.27.16.63.23.94-.24.06-.29-.24-.45-.33-.03.11.18.18-.05.15ZM48.19,28.3l.24.92c-.08.14-.89-.43-1.03-.5-.2-.1-.83-.25-.9-.44-.09-.24-.05-.84-.09-1.13.24.15,1.74.98,1.78,1.15ZM48.54,29.22c0-.05-.21-.68-.02-.53.04.22.13.44.16.66.22,1.65.14,3.4.51,5.05.25,1.14.85,2.21,1.14,3.34l-.83-1.65c-.41-.56-.55-1.25-.81-1.88-.13-.31-.34-.64-.46-.96-.02-.04-.07-.19.03-.12.44.83.85,1.66,1.16,2.54.1-.01.02-.13,0-.2-.06-.3-.15-.6-.23-.9-.02-.09-.09-.17-.11-.25-.09-.38-.11-.83-.21-1.21l.03.76.09.39-.09-.03-1.07-2.12c-.2-1.03-.25-2.09-.41-3.13.04-.09.95.42,1.02.51.01.11.2,1.43.28,1.41-.1-.55-.11-1.12-.18-1.67ZM49.05,29.88c.1.25.09.75.15,1.03.06.33.18.65.25.98.06-.04.06-.33.05-.39-.03-.12-.12-.25-.15-.41-.06-.37-.07-.75-.17-1.11.25.04.31.28.4.49.17,2.33.43,4.83,1.08,7.09.09.3.25.64.34.95.02.08.06.12-.04.18-.26-.71-.51-1.42-.67-2.17-.19-.89-.37-1.83-.53-2.73-.1-.55-.12-1.12-.2-1.66-.18.2.11.6-.07.81-.19-.69-.45-1.37-.59-2.07-.03-.16-.21-1.28-.17-1.33.01-.02.11-.02.16-.04-.07.2.1.22.16.38ZM48.92,27.64c.58.25.45.64.52,1.16-.6-.15-.38-.7-.52-1.16ZM53.17,31.05c-.14.07-.1-.02-.15-.08-.11-.13-.47-.58-.53-.7-.08-.14-.01-.33-.09-.48l-.04.29c-.52-.98-1.07-1.95-1.61-2.92-.29-.53-.73-.98-.68-1.61l2.67,4.72.08-.13c.06.19.32.34.41.49.05.09-.02.12-.09.08-.1-.06-.12-.25-.23-.25l.27.61ZM51.98,30.57l.06-.18.84,1.12c.12.21.02.41-.09.6-.18-.28-.29-.61-.45-.9-.19-.32-.48-.57-.6-.91l.24.28ZM51.7,29.87c-.4-.77-1.33-1.18-1.49-2.05l1.95,2.37-.46-.31ZM50.25,26.87c.44.57.65,1.37,1.11,1.94-.16-.06-.28-.24-.39-.37-.41-.5-.84-1.05-.93-1.71.09,0,.16.07.21.14ZM50.39,28.59c.28.31.75,1.01,1.01,1.39.25.36.54.77.72,1.16l-2.13-2.83c.08.07.34.22.39.28ZM50.35,30.81c.16-.07.2.13.29.19.05.03.12.03.2.08.11.08.47.35.49.46.02.11-.06.4-.07.55-.08,2.08.04,3.7.2,5.76,0,.07.06.26-.02.28-.66-2.38-.89-4.86-1.08-7.31ZM50.48,35.5c-.06-.63-.28-1.2-.35-1.84-.11-1,0-2.09-.12-3.1.07-.03.13-.01.17.05.1.16.08,1.32.1,1.61.08.99.31,2.16.28,3.13,0,.1.08.14-.08.15ZM51.19,31.23c-.07-.04-.73-.55-.76-.59-.1-.17-.02-.42-.11-.61.09-.05.11,0,.17.05.1.07.75.69.8.77.12.2.18.55-.1.38ZM51.28,30.57c-.14-.1-.81-.67-.88-.79-.04-.06-.12-.59-.04-.6.11-.03,1.18,1.18,1.13,1.45-.09.05-.14-.02-.21-.06ZM49.99,36.19c-.25-.72-.63-1.43-.79-2.19-.16-.74-.12-1.57-.25-2.32l.1.17c.21,1.07.65,2.09.87,3.16.04.22.04.48.07.71.02.14.21.47,0,.47ZM47.22,28.8l.11.11.25,2.72c-.17-.1-.28-.44-.37-.62-.16-.36-.43-.96-.52-1.32-.09-.35-.08-.8-.18-1.16l.72.27ZM51.77,40.97c-.11.21.04.34.06.46.01.06-.13.02-.09.11.05.01.27-.02.28-.01.03.02-.01.09,0,.11.08.21.11,0,.17-.04.14-.11.11.27.03.33-.11.04-.53-.31-.6-.4-.32-.44-.59-.91-1.04-1.28-.1-.08-.25-.07-.33-.17.17-.05.54.17.66.28.25.23.43.82.86.62ZM53.8,33.53c-.13-.04-.25-.23-.32-.33-.09-.14-.5-.74-.53-.84-.05-.13.03-.23.01-.35.46.33.65,1.01.84,1.53ZM52.82,23.1l.62,4.4-.61-1.95c-.1-.82-.05-1.63-.01-2.45ZM52.31,25.25l.21.17-.42-1.86c.09-.04.08.11.1.17.16.55.31,1.13.37,1.7.09.77.27,1.15.43,1.86.09.39.08.86.15,1.26.05.28.18.57.22.85.01.08.03.17-.06.21-.2-1.49-.89-2.85-1-4.36ZM50.99,25.62c.75,1.38,1.33,2.87,1.95,4.31l-.44-.65c-.19-.46-.44-.9-.63-1.36-.08-.19-.05-.52-.27-.57l-.03.12-.74-2c.11,0,.11.09.15.16ZM49.39,23.3c.17.1.4.42.48.59.07.17.08.35.15.51.38.83.8,1.65,1.14,2.5-.07.03-.1-.07-.13-.12-.42-.66-.75-1.35-1.12-2.05-.1-.18-.33-.42-.4-.61-.09-.23-.05-.57-.12-.82ZM48.09,24.48c-.32-.32-.46-.57-.46-1.04,0-.08-.04-.16.06-.21.25.41.42.86.56,1.32-.13.07-.1-.01-.16-.07ZM48.5,25.33l.15.09.3.36c0-.21-.43-.57-.46-.7l-.29-1.13.62.88c.26.48.63.82.53,1.41l-.12-.03.19.51c-.1-.05-.7-.53-.71-.58l-.21-.82ZM48.49,27.05c.02.06-.05.15-.05.23.04.33.16.73-.02,1.04-.25-.46-.09-1.02-.33-1.49.04-.08.38.19.39.22ZM47.02,24.84c.39.39.94.84.85,1.43-.09.02-.57-.31-.69-.39.29.28.65.55.8.92-.11.05-.23-.11-.32-.18-.24-.19-1.21-.98-1.33-1.16-.03-.04-.18-.43-.01-.32,0,0,.03.11.1.17.24.21.5.39.76.56-.19-.18-.87-.73-.94-.87-.09-.18,0-.67-.07-.89.04-.08.78.66.85.72ZM45.23,26.16l.16.18-.53-2.28c.09-.05.14.02.21.06.13.09.96.81.99.9.02.06.02.19-.02.25-.28-.12-.5-.45-.82-.46-.03.05.82.57.89.72.11.25,0,.96.13,1.27-.02.05-.34-.1-.4-.12-.12-.06-.3-.23-.44-.28-.01.35.5.38.73.55.27.2.14.91.23,1.23-.04.06-.33-.1-.37-.17-.14-.23-.34-.88-.42-1.17-.01-.04-.03-.2-.08-.09l.14.53,2.05,5.8c-.08.03-.11-.12-.14-.18-.65-1.29-1.08-3.08-1.56-4.48-.25-.75-.62-1.46-.74-2.26ZM44.91,27.76c.17-.02.35.07.43.21.23.39.53,1.21.71,1.67.28.71.51,1.44.78,2.15.33.84.71,1.67,1.04,2.52l-.23-.32c-1.08-2-2.28-3.97-2.73-6.23ZM46.27,33.88c-.35-.53-.78-1.01-1.05-1.59l.52.6c.49.85,1.17,1.56,1.7,2.38l-1.17-1.39ZM47.53,36.71c-.43-.2-.82-.54-1.17-.87-.6-.57-1.05-1.24-1.61-1.85.11-.06.13.03.2.08.98.65,1.9,1.68,2.58,2.64ZM44.95,34.56c-.54-.36-.91-.97-1.37-1.42l.1-.05c.48.44,1.01.86,1.28,1.47ZM44.84,33.05c.05.06.12.04.17.1.34.4.63.93.9,1.39-.46-.31-.99-.68-1.21-1.21v.28c-.07,0-.15-.07-.2-.13-.36-.41-.65-1.28-.95-1.77.5.34.89.88,1.28,1.34ZM42.93,33.09c-.29-.26-.48-.85-.82-1.1-.05-.15.05-.06.1-.02.1.09.15.22.28.29.05-.02,0-.09-.02-.12-.21-.36-.63-.62-.9-.98-.35-.46-.64-1.02-1-1.49l.05-.16-1.12-1.55,2.1,1.78c.42.46,1.12.92,1.5,1.4.43.54.64,1.38,1.03,1.96.05.1,0,.11-.09.08-.49-.16-.98-.91-1.47-1.15-.59-.74-1.14-1.53-1.75-2.26-.08-.1-.1-.1-.06.03,1.02,1.47,2.27,2.75,3.32,4.19-.17-.06-.34-.17-.48-.29-.14-.12-.46-.56-.49-.58-.04-.02-.09.05-.18-.03ZM40.93,32.66l1.1.45c.6.33,1.26.56,1.75,1.05.11.11.72.84.69.91-.37-.2-.79-.3-1.16-.49-.87-.44-1.61-1.31-2.38-1.92ZM44.53,35.99c-1.08-.53-2.71-1.31-3.66-1.99-.06-.05-.15-.05-.15-.16.83.3,1.76.46,2.49.97.63.43,1.21,1.01,1.88,1.4-.03.05-.49-.19-.56-.22ZM44.9,35.89l-1-.84c.3.11.75.2,1,.39.31.24.57.71.87.99-.08.13-.74-.51-.87-.54ZM45.45,35.83c.09-.18,1.61,1.2,1.74,1.3-.07.1-.7-.42-.86-.36l-.87-.94ZM47.97,37.89c-.47-.28-.98-.53-1.43-.85-.07-.05-.15-.05-.15-.16l2.64,1.52c-.42.05-.73-.32-1.06-.51ZM49.52,38.98c-.15-.06-.32,0-.42-.06-.08-.04-.04-.3-.39-.24l-.51-.23.96.16c.65.31,1.18.82,1.62,1.38-.31-.12-.5-.43-.76-.64-.09-.07-.43-.33-.5-.36ZM50.03,40.92l.67.27c-.22.02-.42-.12-.64-.17-.55-.11-1.25-.06-1.62-.55l1.59.45ZM49.57,40.07c-.06.09-1.8-.6-1.99-.73.7.08,1.46.22,1.99.73ZM47.02,39.64l1.98.63c-.59-.08-1.2-.22-1.77-.38-.32-.09-.71-.17-.96-.38l.75.14ZM44.3,38.49c-.54-.24-1.19-.44-1.69-.7-.26-.13-.52-.3-.68-.56.05-.08.59.12.69.16.8.32,1.9.9,2.67,1.31.11.06.24.13.34.22-.54.09-.9-.26-1.32-.45ZM46.02,40.35c-.26-.14-.57-.25-.82-.44.11-.08.62.16.34-.12-.14-.14-.44.07-.6-.04.16-.03.39-.09.54-.09.21,0,.14.15.16.15.04.02.39,0,.57.06.47.17,1.07.56,1.56.78.4.18.96.34,1.38.55.15.08.28.22.42.32l-1.56-.5c-.35-.18-1.15-.82-1.5-.87-.14-.02-.25.04-.38.03-.14,0-.22-.15-.36-.11.33.26.72.42,1.11.59-.34.16-.59-.18-.84-.32ZM54.45,44.89c-.28.29-.56-.58-.63-.7-.17-.33-.92-.53-1.23-.69-.27-.15-.54-.58-.85-.72l.76.8c.68.18,1.09.42,1.42,1.04.14.27-.2.03-.27,0-1.03-.4-1.54-1.02-2.4-1.61-1.25-.86-2.64-1.49-4.06-1.94l-.57-.19c.37,0,.81.14,1.16.26.76.26,2.29.84,2.91,1.28.28.2.5.48.81.64l-.84-.85c.2.06.41.13.61.21.12.05.61.4.35.03-.69-.41-1.43-.77-2.07-1.26.09-.04.16-.01.25,0,.41.06,1.33.24,1.64.48.17.13.29.31.46.44.13.1.89.43.75.65-.29.15-.22-.1-.39-.21-.15-.09-.48-.13-.28.14,0,.01.16.18.17.19.07.06.39.17.41.18.05.04-.21.15.1.24.13.04.63,0,.56.15-.01.03-.29-.1-.34,0,.46.17.76.59,1.25.69-.21.66.09.34.21.39.1.04.11.31.08.34ZM54.03,39.15c.09-.12.2-.3.33-.37-.33.58-.65,1.19-1.01,1.75-.14.22-.34.57-.56.68-.13-.06,1.14-1.92,1.25-2.06ZM55.34,46.76c-.16-.35-.16-.63-.57-.85-.02-.04.09-.06.1-.05.02.01.15.24.28.21-.01-.15-.02-.39.17-.44.07.04,0,.53,0,.59.02.1.22.18.22.31h-.17c.03.3.53.13.57.46-.36.03-.42.18-.61-.22ZM56.63,43.38c0,.3-.08.39-.05.82.04.8-.17,1.42-.29,2.2-.02.13.08.4-.11.22-.2-.18-.12-.29-.19-.45-.08-.18-.38-.28-.39-.53,0-.04.17-.07.03-.29-.04-.06-.47-.26-.57-.4-.04-.05-.09-.37-.21-.55-.13-.21-.47-.48-.56-.64-.23-.41-.4-.63-.62-.99-.23-.37-.13-.59-.58-.91-.05-.04-.22,0-.17-.13,0-.01.09-.03.11-.09.12-.33.1-.29.27-.6.42-.81.85-1.92,1.38-2.63.23-.3.55-.51.7-.88-.32,0-.43.41-.57.56-.06.07-.16.1-.23.18-.65.76-1.23,1.6-1.8,2.43-.16.07-.04-.1-.08-.14,0,0-.09.02-.11-.01-.07-.16.21-1.06.3-1.25.35-.75.86-1.51,1.25-2.26.15-.3.27-.67.43-.95.03-.05.21-.4.28-.35-.01.26.19.4.26.58.09.21.1.51.19.74.18.48.57.92.65,1.46.18,1.21.7,2.65.71,3.92,0,.25-.05.63-.05.96ZM57.03,41.69c-.02.1.04.68-.14.42-.24-.35-.18-.86-.31-1.25.1,0,.18.24.19.31.03.13,0,.29,0,.43.27-.1.3-.31.2-.56.42.12.11.41.06.64ZM57.75,40.62c-.11.06-.19-.09-.28-.08-.11,0-.26.22-.38-.12-.03-.09.05-.18.02-.27-.03-.09-.2-.17-.2-.18,0-.04.11-.1.13-.16.02-.07-.07-.67-.1-.76-.03-.08-.12-.1-.15-.22-.01-.06-.03-.5-.02-.56.02-.09.1-.11.12-.16.06-.19-.08-.27-.1-.41-.06-.38.14-1.2.25-1.6.05-.17.14-.34.19-.52.15.21.15.54.24.81.02.06.01.21.1.17-.11-.18-.14-1.03-.29-1.1-.05-.03-.34.08-.41.13-.3.17-.25.5-.43.73-.05.07-.33.33-.41.25-.1-.1-.64-1.4-.64-1.54.01-.3.76-.78.77-1.14-.17.02-.83.99-.88.96-.02-.12-.11-.22-.14-.33-.13-.5-.11-.53,0-.99.22-1-.2-.3-.2.17-.08.03-.11-.1-.12-.15-.04-.28-.01-1.14,0-1.47.05-.95.52-1.87,1.06-2.62.06.38.2.88.2,1.26,0,.16-.13.25-.12.38.02.22.16-.06.19-.13.02.83.27,1.65.35,2.47.21-.04-.07-.36.06-.44.04.13.06.27.1.4.02.06.01.21.1.17-.07-.23-.03-.51-.08-.74-.03-.16-.1.05-.12-.03-.1-.81-.49-1.66-.23-2.46.03-.09.16-.23.06-.28l-.21.39c.04-.64-.4-1.18.13-1.69.02-.06.12.02.12.03l.4,1.56.1-.93-.12.42c-.19-.3-.21-.92-.35-1.17-.02-.04-.08-.02-.12,0v-.05c.25-.07.47-.47.42-.73l-.21.39-.12-.14s.03.4-.09.3c-.03-.02-.09-.4-.13-.5-.05-.13-.18-.29-.2-.39-.04-.24.3-.91.28-1.21l.25-.81c.19.58.26,1.18.33,1.78.08.7.13,1.41.05,2.11.01-.03.04-.18.09-.11.03.16-.02.32-.02.48,0,.06-.03.19.07.15.02-.2-.04-.49.12-.65.09.64.26,1.28.27,1.93,0,.11-.08.26,0,.31.02-.07.13-.12.14-.16.02-.05.01-1.02,0-1.14-.02-.28-.38-1.88-.33-1.96.02-.03.1-.07.11.04.04.65.31,1.33.3,1.99.06.04.17-.18.17-.2.18-.7-.4-1.87-.38-2.63l.18-.14c.31,1.74.41,3.51.5,5.27-.1.03-.09-.16-.1-.22-.11-.7-.02-1.43-.21-2.12l-.11.18c-.07,1.4.14,2.84.12,4.24,0,.22.02.54-.1.72l-.15-1.48.13.08c0-.1-.1-.19-.12-.28-.04-.18.04-.53-.15-.53-.22-.81-.28-1.65-.42-2.48,0-.06,0-.2-.09-.17,0,.39.02.71.16,1.08l-.17-.24c.04.18-.07.34-.08.51-.12,1.05,0,2.22.36,3.21.02.05.07.19.15.16-.13-.5-.27-.99-.31-1.51-.04-.41-.06-1.13-.03-1.54,0-.1-.06-.13.09-.15-.07.57.17,1.12.25,1.65.06.39.04.78.08,1.17.08.68.23,1.36.23,2.04l-.16-.18c0,.46.16,1.04.13,1.49-.02.33-.25.74-.31,1.07-.07.36-.07.78.06,1.13.06.04.29-.25.25-.34l-.2.11c-.1-.21-.15-.73.16-.49-.17-.02-.21.19-.11.27.08.06.41-.04.39.19,0,.03-.22.26-.11.45ZM57.78,38.08c.04-.33-.1-.66-.13-.95-.05-.7.4-1.67.53-2.37-.09-.76.19-1.49.26-2.24.09-.04.07.1.07.15-.02.49-.05,1.06-.12,1.54-.14,1.01-.63,1.98-.55,3.01.16-.01.08-.16.16-.29.02-.04.16-.23.23-.18-.01.14-.12.19-.18.3-.03.07-.01.2-.04.23-.04.05-.19.04-.2.06-.01.02.09.35.06.44.12-.07.1-.27.19-.36.05-.05.17-.12.17.01-.22.18-.2.52-.45.65Z"></path>
          <path class="cls-1" d="M38.23,42.12c.57-.06,1.2-.38,1.77-.53-.42.06-.85.12-1.24.28l-.52.25Z"></path>
          <path class="cls-1" d="M41.3,38.75l-1.12-.49-2.49-.67h.25c.66.18,1.39.28,2.03.5.4.13.79.34,1.18.5.26.1.57.14.81.3.02.04-.04.05-.07.05-.54,0-.89-.17-1.36-.27-.02,0-.5-.08-.3.05.68.2,1.32.39,2.04.29.04.09-.1.07-.16.08-.18.02-.54.06-.71.06-.38-.01-.94-.34-1.29-.32-.06,0-.11.02-.04.07.11.07.38.09.54.15.06.02.19.06.03.09-1.3-.44-2.63-.75-3.98-.95-.04-.09.1-.07.15-.07.29.03.65.19.92.1l-1.5-.5-.39-.06c.22-.09.45,0,.67.04.61.14,1.2.46,1.79.6.74.18,1.53.15,2.26.27.24.04.47.2.73.16Z"></path>
          <path class="cls-1" d="M44.67,45.09l-1.14.07c-.34.07-.67.12-1.01.2-.06.01-.19.09-.2,0,1.47-.46,3.02-.25,4.48-.75.04.09-.11.08-.17.1-1.18.35-2.33.76-3.52,1.07l.48-.19.27-.17-1.95.27c.91-.3,1.89-.24,2.77-.6Z"></path>
          <path class="cls-1" d="M44.36,44.32l-.67-.11-1.45-.08.21-.08,4.49.29.73.1c-.58.03-1.15-.05-1.73-.06-1.58,0-3.17.25-4.7.63-.04-.09.11-.08.17-.1.97-.29,1.97-.45,2.97-.59Z"></path>
          <path class="cls-1" d="M62.48,33.75c.04-.07.3-.17.39-.24.11-.08.2-.18.3-.27.08-.06.16-.09.07.04l-3.83,4.16c-.07-.04.86-1.21.94-1.3.59-.7,1.58-1.5,2.07-2.18.07-.1.03-.17.05-.22Z"></path>
          <path class="cls-1" d="M38.91,36.21c-1.54-.16-3.05-.44-4.57-.71l-1.33-.14c.56-.06,1.15.03,1.71.1.99.12,2.1.29,3.08.47.36.07.78.14,1.1.29Z"></path>
          <path class="cls-1" d="M67.87,29.37l-.76.69c-.2.19-.66.45-.82.64-.04.05.04.1,0,.14-.15.18-.77.61-1.01.79-.43.33-.88.64-1.33.93.21-.39.66-.59,1-.86.91-.73,1.8-1.47,2.69-2.21l.22-.12Z"></path>
          <path class="cls-1" d="M67.03,27.84c-.96,1.13-1.96,2.28-3.11,3.21l1.17-1.3,1.95-1.91Z"></path>
          <path class="cls-1" d="M49.98,44.97c.04.09-.1.08-.16.08-1.16.11-2.35.04-3.52.19l-1.87.24c1.8-.49,3.7-.47,5.55-.52Z"></path>
          <path class="cls-1" d="M52.75,36.67l.07.26c.45-.73.71-1.59.96-2.41.09-.1.05.08.05.12,0,.81-.69,2.12-.89,3.01-.14.61-.06,1.33-.47,1.85l.29-2.83Z"></path>
        </g>
      </g>
    </g>
    <path id="C" class="cls-1" d="M83.6,64.56c-.18-.11-.4-.1-.57.01-7.53,4.87-17.45,7.82-28.32,7.82-23.23,0-42.12-13.5-42.63-30.3,0-.23-.01-.46-.01-.7s0-.46.01-.7c.51-16.8,19.4-30.3,42.63-30.3,13.18,0,24.97,4.35,32.79,11.18.44.39,1.1-.1.86-.63l-4.42-9.78-1.3-2.87c-.15-.33-.57-.43-.85-.2-.59.5-1.64,1.1-3.03.67h0c-7.15-2.88-15.35-4.52-24.06-4.52C26.93,4.25,4.41,20.88,4.41,41.4s22.52,37.15,50.3,37.15c13.23,0,25.26-3.77,34.24-9.94.33-.23.31-.72-.04-.92l-5.31-3.13Z"></path>
  </g>
</svg>
