<?xml version="1.0" encoding="UTF-8"?>
<svg xmlns="http://www.w3.org/2000/svg" width="261.724" height="87.751" viewBox="0 0 261.724 87.751">
  <g id="Group_416" data-name="Group 416" transform="translate(-1634.099 -1714.999)">
    <path id="Path_295" data-name="Path 295" d="M70.975,50.972a25.146,25.146,0,1,1,0-14.194H90.225a43.876,43.876,0,1,0,0,14.194Z" transform="translate(1631 1715)" fill="#fff"></path>
    <path id="Path_296" data-name="Path 296" d="M136.669,50.972a25.146,25.146,0,1,1,0-14.194h19.249a43.876,43.876,0,1,0,0,14.194Z" transform="translate(1657.483 1715)" fill="#fff"></path>
    <path id="Path_297" data-name="Path 297" d="M171.576.181V0h-37.09V87.75h33.5A43.858,43.858,0,0,0,171.576.181m-3.595,68.84H154.518V18.73h13.467a25.145,25.145,0,0,1,0,50.291" transform="translate(1683.966 1715)" fill="#fff"></path>
  </g>
</svg>
