<?xml version="1.0" encoding="UTF-8"?>
<svg preserveAspectRatio="xMidYMid slice" xmlns="http://www.w3.org/2000/svg" id="logo" width="350px" height="79px" viewBox="0 0 539 123.132">
  <g id="management">
    <path id="Path_546" data-name="Path 546" d="M191.583,74.229V48.664h8.309l6.283,19.005L212.5,48.664h8.268V74.229h-5.485V55.621L209.2,74.229h-6.044L197.11,55.621V74.229Z" transform="translate(125.914 31.984)" fill="#eb2127"></path>
    <path id="Path_547" data-name="Path 547" d="M217.244,72.214a8.233,8.233,0,0,1-3.479-.674,5.03,5.03,0,0,1-2.226-1.926,5.408,5.408,0,0,1-.776-2.918,5.278,5.278,0,0,1,2.524-4.665,9.821,9.821,0,0,1,3.041-1.25,17.4,17.4,0,0,1,4.1-.438h2.784v3.22h-1.989a12.078,12.078,0,0,0-2.764.259,2.971,2.971,0,0,0-1.55.812,2.111,2.111,0,0,0-.5,1.467,2.014,2.014,0,0,0,.656,1.6,2.774,2.774,0,0,0,1.888.575,3.462,3.462,0,0,0,2.8-1.11,3.875,3.875,0,0,0,.935-2.575V62.413h-.119V59.4a3.618,3.618,0,0,0-.32-1.624,1.967,1.967,0,0,0-.953-.93,3.826,3.826,0,0,0-1.629-.3,3.424,3.424,0,0,0-2.108.572,2.489,2.489,0,0,0-.913,1.75l-5.171-.356a5.762,5.762,0,0,1,1.054-3.149,6.354,6.354,0,0,1,2.864-2.139,12.491,12.491,0,0,1,4.712-.772,10.982,10.982,0,0,1,4.61.834,5.588,5.588,0,0,1,2.643,2.406,7.842,7.842,0,0,1,.855,3.8V71.737h-5.525V69.231q-.8.915-1.472,1.591a4.562,4.562,0,0,1-1.591,1.034,6.644,6.644,0,0,1-2.385.358" transform="translate(138.52 34.475)" fill="#eb2127"></path>
    <path id="Path_548" data-name="Path 548" d="M223.239,71.737V52.931h5.487v2.7a10.4,10.4,0,0,1,1.49-1.689,5.739,5.739,0,0,1,1.828-1.1,7.467,7.467,0,0,1,2.605-.4,6.088,6.088,0,0,1,3.616,1.014,6.193,6.193,0,0,1,2.148,2.7,9.432,9.432,0,0,1,.716,3.717V71.737h-5.606V60.406a4.136,4.136,0,0,0-.734-2.464,2.749,2.749,0,0,0-2.4-1.034,3.515,3.515,0,0,0-1.889.477,3.214,3.214,0,0,0-1.213,1.371,5,5,0,0,0-.437,2.207V71.737Z" transform="translate(146.719 34.475)" fill="#eb2127"></path>
    <path id="Path_549" data-name="Path 549" d="M241.689,72.214a8.232,8.232,0,0,1-3.479-.674,5.03,5.03,0,0,1-2.226-1.926,5.408,5.408,0,0,1-.776-2.918,5.278,5.278,0,0,1,2.524-4.665,9.821,9.821,0,0,1,3.041-1.25,17.4,17.4,0,0,1,4.095-.438h2.784v3.22h-1.989a12.078,12.078,0,0,0-2.764.259,2.971,2.971,0,0,0-1.55.812,2.111,2.111,0,0,0-.5,1.467,2.014,2.014,0,0,0,.656,1.6,2.774,2.774,0,0,0,1.888.575,3.462,3.462,0,0,0,2.8-1.11,3.875,3.875,0,0,0,.935-2.575V62.413h-.119V59.4a3.618,3.618,0,0,0-.32-1.624,1.967,1.967,0,0,0-.953-.93,3.826,3.826,0,0,0-1.629-.3,3.424,3.424,0,0,0-2.108.572,2.489,2.489,0,0,0-.913,1.75l-5.171-.356a5.761,5.761,0,0,1,1.054-3.149,6.354,6.354,0,0,1,2.864-2.139,12.491,12.491,0,0,1,4.711-.772,10.981,10.981,0,0,1,4.61.834,5.588,5.588,0,0,1,2.643,2.406,7.842,7.842,0,0,1,.855,3.8V71.737h-5.525V69.231q-.8.915-1.472,1.591a4.562,4.562,0,0,1-1.591,1.034,6.644,6.644,0,0,1-2.385.358" transform="translate(154.586 34.475)" fill="#eb2127"></path>
    <path id="Path_550" data-name="Path 550" d="M256.815,79.371a13.009,13.009,0,0,1-4.948-.857,7.563,7.563,0,0,1-3.242-2.363,6.465,6.465,0,0,1-1.313-3.459l5.171-.4a2.875,2.875,0,0,0,1.271,2.027,4.818,4.818,0,0,0,2.862.8,4.557,4.557,0,0,0,3.3-1.153,4.219,4.219,0,0,0,1.193-3.182V68.039a21.4,21.4,0,0,1-1.491,1.571,4.948,4.948,0,0,1-1.609,1.014,6.793,6.793,0,0,1-2.425.358,8.572,8.572,0,0,1-4.475-1.175,8.227,8.227,0,0,1-3.081-3.268,10.077,10.077,0,0,1-1.114-4.8,10.521,10.521,0,0,1,.636-3.725,8.584,8.584,0,0,1,1.81-2.928,8.461,8.461,0,0,1,6.223-2.628,7.406,7.406,0,0,1,2.524.358,5.1,5.1,0,0,1,1.669.974q.7.616,1.452,1.41V52.932h5.527V70.371a9.508,9.508,0,0,1-1.193,4.9,7.556,7.556,0,0,1-3.419,3.066,12.564,12.564,0,0,1-5.328,1.036m.2-12.842a4.2,4.2,0,0,0,1.75-.36,4.122,4.122,0,0,0,1.372-1,4.889,4.889,0,0,0,.915-1.516,5.377,5.377,0,0,0,.336-1.917,5.432,5.432,0,0,0-.557-2.494,4.406,4.406,0,0,0-6.142-1.719,4.3,4.3,0,0,0-1.531,1.7,5.4,5.4,0,0,0-.557,2.514,5.321,5.321,0,0,0,.557,2.476,4.3,4.3,0,0,0,1.531,1.7,4.252,4.252,0,0,0,2.325.618" transform="translate(162.279 34.476)" fill="#eb2127"></path>
    <path id="Path_551" data-name="Path 551" d="M270.353,72.214a10.667,10.667,0,0,1-5.248-1.253,9.146,9.146,0,0,1-3.558-3.479,10.029,10.029,0,0,1-1.293-5.129,10.67,10.67,0,0,1,.716-3.956,9.365,9.365,0,0,1,2.047-3.16,9.073,9.073,0,0,1,3.122-2.067,11.232,11.232,0,0,1,7.892,0,8.758,8.758,0,0,1,3.041,2.027,8.956,8.956,0,0,1,1.947,3.1,10.917,10.917,0,0,1,.678,3.894c0,.318-.008.61-.022.875s-.033.491-.06.676H263.633V60.406h12.882l-2.108,1.273a7.07,7.07,0,0,0-.5-2.844,3.683,3.683,0,0,0-1.43-1.709,4.2,4.2,0,0,0-2.246-.577,4.746,4.746,0,0,0-1.929.376A3.7,3.7,0,0,0,266.893,58a4.925,4.925,0,0,0-.855,1.748,9.019,9.019,0,0,0-.3,2.444,8.21,8.21,0,0,0,.557,3.22,4.318,4.318,0,0,0,1.629,2.009,4.571,4.571,0,0,0,2.544.7,4.2,4.2,0,0,0,2.426-.656,3.125,3.125,0,0,0,1.273-1.77l5.049.517a7.2,7.2,0,0,1-1.651,3.182,8.036,8.036,0,0,1-3.061,2.086,11.158,11.158,0,0,1-4.155.736" transform="translate(171.046 34.475)" fill="#eb2127"></path>
    <path id="Path_552" data-name="Path 552" d="M273.4,71.737V52.931h5.487v2.744a10.075,10.075,0,0,1,1.41-1.69,5.556,5.556,0,0,1,1.788-1.112,6.978,6.978,0,0,1,2.565-.418,5.6,5.6,0,0,1,5.525,3.459,9.481,9.481,0,0,1,1.452-1.768,5.982,5.982,0,0,1,1.987-1.233,7.845,7.845,0,0,1,2.844-.457,6.135,6.135,0,0,1,3.558.973,6.049,6.049,0,0,1,2.128,2.625,9.076,9.076,0,0,1,.714,3.638V71.737h-5.6V60.168a3.855,3.855,0,0,0-.678-2.327,2.559,2.559,0,0,0-2.224-.933,3.223,3.223,0,0,0-2.486,1.013,3.979,3.979,0,0,0-.935,2.8V71.737h-5.606V60.168a3.865,3.865,0,0,0-.674-2.327,2.565,2.565,0,0,0-2.227-.933,3.505,3.505,0,0,0-1.808.456,3.029,3.029,0,0,0-1.193,1.313,4.629,4.629,0,0,0-.418,2.047V71.737Z" transform="translate(179.687 34.475)" fill="#eb2127"></path>
    <path id="Path_553" data-name="Path 553" d="M302.475,72.214a10.675,10.675,0,0,1-5.248-1.253,9.151,9.151,0,0,1-3.556-3.479,10.012,10.012,0,0,1-1.294-5.129,10.67,10.67,0,0,1,.718-3.956,9.34,9.34,0,0,1,2.047-3.16,9.049,9.049,0,0,1,3.121-2.067,11.232,11.232,0,0,1,7.892,0A8.765,8.765,0,0,1,309.2,55.2a8.927,8.927,0,0,1,1.946,3.1,10.883,10.883,0,0,1,.678,3.894q0,.477-.02.875c-.015.267-.035.491-.06.676H295.755V60.406h12.883l-2.108,1.273a7.1,7.1,0,0,0-.5-2.844,3.677,3.677,0,0,0-1.432-1.709,4.191,4.191,0,0,0-2.245-.577,4.739,4.739,0,0,0-1.927.376A3.7,3.7,0,0,0,299.017,58a4.9,4.9,0,0,0-.855,1.748,9.014,9.014,0,0,0-.3,2.444,8.24,8.24,0,0,0,.557,3.22,4.322,4.322,0,0,0,1.631,2.009,4.571,4.571,0,0,0,2.544.7,4.2,4.2,0,0,0,2.425-.656,3.125,3.125,0,0,0,1.273-1.77l5.049.517a7.186,7.186,0,0,1-1.651,3.182,8.01,8.01,0,0,1-3.061,2.086,11.145,11.145,0,0,1-4.155.736" transform="translate(192.158 34.475)" fill="#eb2127"></path>
    <path id="Path_554" data-name="Path 554" d="M305.523,71.737V52.931h5.487v2.7a10.553,10.553,0,0,1,1.49-1.689,5.757,5.757,0,0,1,1.828-1.1,7.474,7.474,0,0,1,2.605-.4,6.094,6.094,0,0,1,3.618,1.014,6.19,6.19,0,0,1,2.146,2.7,9.431,9.431,0,0,1,.718,3.717V71.737h-5.606V60.406a4.137,4.137,0,0,0-.736-2.464,2.747,2.747,0,0,0-2.4-1.034,3.519,3.519,0,0,0-1.889.477,3.225,3.225,0,0,0-1.213,1.371,5.024,5.024,0,0,0-.436,2.207V71.737Z" transform="translate(200.798 34.475)" fill="#eb2127"></path>
    <path id="Path_555" data-name="Path 555" d="M326.905,73.949a7.894,7.894,0,0,1-3.7-.739,4.247,4.247,0,0,1-1.989-2.159,9.152,9.152,0,0,1-.6-3.537V58.842h-3.538V54.666h3.7V49.815h5.485v4.851H330.6v4.176h-4.334v8.41a2.45,2.45,0,0,0,.5,1.724,2.15,2.15,0,0,0,1.611.519c.212,0,.457-.012.736-.038a6.087,6.087,0,0,0,.895-.159l.595,4.1a10.8,10.8,0,0,1-1.947.438,14.2,14.2,0,0,1-1.75.119" transform="translate(208.398 32.74)" fill="#eb2127"></path>
  </g>
  <g id="resource">
    <path id="Path_538" data-name="Path 538" d="M92.943,74.228V48.664h10.694a9.118,9.118,0,0,1,4.135.936,7.493,7.493,0,0,1,2.981,2.642,7.34,7.34,0,0,1,1.114,4.095,7.259,7.259,0,0,1-1.114,4.055,7.489,7.489,0,0,1-2.981,2.645,9.117,9.117,0,0,1-4.135.935h-4.93V74.228ZM102.4,59.877a4.4,4.4,0,0,0,1.989-.418,2.916,2.916,0,0,0,1.271-1.193,3.7,3.7,0,0,0,.438-1.848,3.241,3.241,0,0,0-.993-2.506A3.84,3.84,0,0,0,102.4,53h-3.7v6.879Zm4.811,14.352-7-11.688h5.923l7.395,11.688Z" transform="translate(61.085 31.983)" fill="#eb2127"></path>
    <path id="Path_539" data-name="Path 539" d="M115.376,72.214a10.671,10.671,0,0,1-5.248-1.253,9.156,9.156,0,0,1-3.558-3.479,10.028,10.028,0,0,1-1.293-5.129,10.668,10.668,0,0,1,.716-3.956,9.369,9.369,0,0,1,2.048-3.16,9.05,9.05,0,0,1,3.121-2.067,11.232,11.232,0,0,1,7.892,0,8.759,8.759,0,0,1,3.041,2.027,8.907,8.907,0,0,1,1.947,3.1,10.918,10.918,0,0,1,.678,3.894c0,.318-.008.61-.022.875s-.033.491-.06.676H108.656V60.406h12.882l-2.106,1.273a7.1,7.1,0,0,0-.5-2.844,3.677,3.677,0,0,0-1.432-1.709,4.191,4.191,0,0,0-2.246-.577,4.752,4.752,0,0,0-1.929.376A3.682,3.682,0,0,0,111.918,58a4.87,4.87,0,0,0-.855,1.748,9.013,9.013,0,0,0-.3,2.444,8.239,8.239,0,0,0,.557,3.22,4.322,4.322,0,0,0,1.631,2.009,4.567,4.567,0,0,0,2.544.7,4.2,4.2,0,0,0,2.425-.656,3.125,3.125,0,0,0,1.273-1.77l5.05.517a7.2,7.2,0,0,1-1.651,3.182,8.023,8.023,0,0,1-3.061,2.086,11.158,11.158,0,0,1-4.155.736" transform="translate(69.191 34.475)" fill="#eb2127"></path>
    <path id="Path_540" data-name="Path 540" d="M125.989,72.214q-4.054,0-6.122-1.67a5.734,5.734,0,0,1-2.188-4.413l5.05-.4a2.838,2.838,0,0,0,1.074,1.927,3.812,3.812,0,0,0,2.345.655,3.388,3.388,0,0,0,2.067-.515,1.66,1.66,0,0,0,.676-1.392,1.588,1.588,0,0,0-.694-1.392,4.786,4.786,0,0,0-1.929-.674L124,63.984a11.067,11.067,0,0,1-3.18-1.014,5.158,5.158,0,0,1-2.067-1.83,5.065,5.065,0,0,1-.716-2.763,5.2,5.2,0,0,1,.955-3.14,6.222,6.222,0,0,1,2.7-2.047,10.5,10.5,0,0,1,4.1-.736,10.763,10.763,0,0,1,4.1.716,6.667,6.667,0,0,1,2.763,1.987,4.984,4.984,0,0,1,1.094,2.942l-5.05.4a2.168,2.168,0,0,0-.457-1.173,2.466,2.466,0,0,0-1.034-.716,4.235,4.235,0,0,0-1.569-.259,3.369,3.369,0,0,0-1.788.4,1.279,1.279,0,0,0-.636,1.152,1.437,1.437,0,0,0,.655,1.273,4.055,4.055,0,0,0,1.611.6l3.1.517a7.327,7.327,0,0,1,4.073,1.828,5.046,5.046,0,0,1,1.492,3.817,5.737,5.737,0,0,1-.935,3.242,6.274,6.274,0,0,1-2.743,2.226,10.88,10.88,0,0,1-4.473.815" transform="translate(77.343 34.475)" fill="#eb2127"></path>
    <path id="Path_541" data-name="Path 541" d="M138.374,72.215a10.472,10.472,0,0,1-5.308-1.313,9.362,9.362,0,0,1-3.558-3.56,9.935,9.935,0,0,1-1.273-4.99,10.141,10.141,0,0,1,.736-3.894,9.514,9.514,0,0,1,2.088-3.142,9.614,9.614,0,0,1,3.2-2.106,10.781,10.781,0,0,1,4.115-.754,10.558,10.558,0,0,1,5.348,1.311,9.425,9.425,0,0,1,3.558,3.538,10.579,10.579,0,0,1,.535,8.9,9.464,9.464,0,0,1-5.306,5.248,10.933,10.933,0,0,1-4.135.757m0-4.455a4.412,4.412,0,0,0,1.888-.378,3.655,3.655,0,0,0,1.372-1.094,5.153,5.153,0,0,0,.855-1.709,7.732,7.732,0,0,0,.3-2.227,7.055,7.055,0,0,0-.537-2.9,4.428,4.428,0,0,0-1.511-1.868,4.043,4.043,0,0,0-2.365-.676,4.387,4.387,0,0,0-1.83.378,3.628,3.628,0,0,0-1.39,1.094,5.184,5.184,0,0,0-.855,1.709,7.906,7.906,0,0,0-.3,2.265,7.2,7.2,0,0,0,.517,2.844,4.216,4.216,0,0,0,1.51,1.889,4.083,4.083,0,0,0,2.347.674" transform="translate(84.28 34.476)" fill="#eb2127"></path>
    <path id="Path_542" data-name="Path 542" d="M148.127,72.025a6.177,6.177,0,0,1-3.657-1.014,6.05,6.05,0,0,1-2.128-2.7,9.673,9.673,0,0,1-.7-3.717V52.742h5.606V64.074a4.31,4.31,0,0,0,.7,2.464,2.591,2.591,0,0,0,2.325,1.032,3.439,3.439,0,0,0,1.869-.476A3.027,3.027,0,0,0,153.3,65.7a5.5,5.5,0,0,0,.4-2.188V52.742H159.3V71.548h-5.485v-2.7a15.579,15.579,0,0,1-1.432,1.669,4.954,4.954,0,0,1-1.732,1.114,6.949,6.949,0,0,1-2.522.4" transform="translate(93.094 34.664)" fill="#eb2127"></path>
    <path id="Path_543" data-name="Path 543" d="M154.449,71.737V52.931h5.487v3.023a10.613,10.613,0,0,1,1.172-1.888,3.967,3.967,0,0,1,1.611-1.193,6.746,6.746,0,0,1,2.584-.418q.4,0,.736.02a2.273,2.273,0,0,1,.577.1v4.77q-.4-.077-.855-.139a8.553,8.553,0,0,0-1.054-.06,5.994,5.994,0,0,0-2.564.5,3.283,3.283,0,0,0-1.571,1.511,5.832,5.832,0,0,0-.517,2.645v9.938Z" transform="translate(101.508 34.475)" fill="#eb2127"></path>
    <path id="Path_544" data-name="Path 544" d="M171.7,72.214a10.367,10.367,0,0,1-5.167-1.273,9.133,9.133,0,0,1-3.538-3.5,10.067,10.067,0,0,1-1.273-5.089,10.5,10.5,0,0,1,.736-3.994,9.176,9.176,0,0,1,2.067-3.122,9.451,9.451,0,0,1,3.182-2.047,10.912,10.912,0,0,1,4.074-.736,11.357,11.357,0,0,1,4.354.776,7.459,7.459,0,0,1,3.122,2.365,9.409,9.409,0,0,1,1.709,3.976l-5.129.4a4.155,4.155,0,0,0-1.41-2.267,3.979,3.979,0,0,0-2.526-.794,4.5,4.5,0,0,0-1.868.376,3.991,3.991,0,0,0-1.41,1.054,4.523,4.523,0,0,0-.877,1.689,8.27,8.27,0,0,0-.3,2.327,7.072,7.072,0,0,0,.535,2.882A4.267,4.267,0,0,0,169.49,67.1a4.134,4.134,0,0,0,2.367.655,4.075,4.075,0,0,0,2.582-.774,4.17,4.17,0,0,0,1.392-2.4l5.209.356a8.378,8.378,0,0,1-3.061,5.328,9.82,9.82,0,0,1-6.283,1.949" transform="translate(106.286 34.475)" fill="#eb2127"></path>
    <path id="Path_545" data-name="Path 545" d="M183.979,72.214a10.675,10.675,0,0,1-5.248-1.253,9.152,9.152,0,0,1-3.556-3.479,10.013,10.013,0,0,1-1.294-5.129A10.668,10.668,0,0,1,174.6,58.4a9.339,9.339,0,0,1,2.047-3.16,9.049,9.049,0,0,1,3.121-2.067,11.232,11.232,0,0,1,7.892,0A8.765,8.765,0,0,1,190.7,55.2a8.928,8.928,0,0,1,1.946,3.1,10.883,10.883,0,0,1,.678,3.894q0,.477-.02.875c-.015.267-.035.491-.06.676H177.259V60.406h12.883l-2.108,1.273a7.1,7.1,0,0,0-.5-2.844,3.677,3.677,0,0,0-1.432-1.709,4.191,4.191,0,0,0-2.246-.577,4.739,4.739,0,0,0-1.927.376A3.7,3.7,0,0,0,180.52,58a4.9,4.9,0,0,0-.855,1.748,9.013,9.013,0,0,0-.3,2.444,8.24,8.24,0,0,0,.557,3.22,4.322,4.322,0,0,0,1.631,2.009,4.571,4.571,0,0,0,2.544.7,4.2,4.2,0,0,0,2.425-.656,3.124,3.124,0,0,0,1.273-1.77l5.05.517a7.187,7.187,0,0,1-1.651,3.182,8.01,8.01,0,0,1-3.061,2.086,11.146,11.146,0,0,1-4.155.736" transform="translate(114.279 34.475)" fill="#eb2127"></path>
  </g>
  <g id="logo-2" data-name="logo">
    <path id="Path_562" data-name="Path 562" d="M131.219,99.964a.92.92,0,0,0-.945.017c-12.479,8.071-28.919,12.96-46.916,12.96-38.5,0-69.8-22.373-70.648-50.214,0-.381-.017-.762-.017-1.16s0-.762.017-1.16c.845-27.841,32.15-50.214,70.648-50.214,21.842,0,41.364,7.209,54.324,18.528a.9.9,0,0,0,1.425-1.044L131.8,11.468l-2.138-4.756a.911.911,0,0,0-1.409-.331,5.214,5.214,0,0,1-5.021,1.11A106.968,106.968,0,0,0,83.359,0C37.321.033,0,27.593,0,61.583s37.321,61.549,83.359,61.549c21.925,0,41.862-6.248,56.743-16.473a.9.9,0,0,0-.066-1.525l-8.8-5.187Z" fill="#eb2127"></path>
    <path id="Path_563" data-name="Path 563" d="M85.894,54.524a.659.659,0,0,1-.63-.066h-.2a3.03,3.03,0,0,1-1.624.2.2.2,0,0,1-.2-.2.216.216,0,0,1,.182-.215c.282-.066.331-.265.282-.514-.05-.282-.265-.315-.5-.331-.464-.05-.928-.414-1.392,0,0-.083-.033-.116-.033-.149.514-.762.365-1.193-.514-1.491-.1-.033-.2-.1-.2-.215,0-.133.149-.133.249-.116.265.033.53.149.762.182a1.591,1.591,0,0,1,1.442,1.044,1.321,1.321,0,0,0,.663.6c.845.348,1.376.05,1.326-.911-.033-.4-.033-.8-.033-1.193-.2-.017-.447.1-.53-.2-.017,0-.033-.033-.033-.05-.116-.1-.249-.182-.282-.365l-.033-.166c-.083-.05-.166-.149-.265-.083-.215.149-.348.05-.431-.149-.1-.265.133-.265.265-.348a1.945,1.945,0,0,1,.182-.083c.166-.481-.2-.762-.464-1.044a2.759,2.759,0,0,0-1.624.6.632.632,0,0,1-.563.514.556.556,0,0,1-.663-.182,1.272,1.272,0,0,0-1.84.215c-.116.116-.166.315-.381.3a.446.446,0,0,0,.182.58,9.581,9.581,0,0,1,.994-.182c.166,0,.381-.116.414.133.033.3-.249.215-.414.215-.331,0-.679-.116-.994.083a.5.5,0,0,0-.116.5c.166,0,.447-.182.4.215a.261.261,0,0,1,.066.282c-.215.4-.331.414-.679.017a.414.414,0,0,0-.431.414.782.782,0,0,1-.563.663c-.431.182-.845.365-1.276.563-.282.133-.5.249-.829,0a.514.514,0,0,0-.729.315.834.834,0,0,1-1.143.414c-.4-.215-.762-.116-.895.282-.066.2-.182.215-.331.265a11.47,11.47,0,0,1-2.138.315c-.166,0-.381.083-.431-.149-.05-.215-.133-.481.1-.663a11.106,11.106,0,0,0,1.856-1.989.926.926,0,0,1,1.392.1c.431.7.945.812,1.392.282.166-.2.215-.414-.1-.447-.4-.066-.679-.381-1.094-.431-.166,0-.215-.133-.215-.3a.24.24,0,0,1,.249-.265,1.608,1.608,0,0,1,.563,0,9.553,9.553,0,0,0,2.27.265c.3.033.729,0,.232-.447-.066-.05-.083-.116,0-.166.182-.116.381-.3.613-.149a1.076,1.076,0,0,0,.663.2c.365-.017.464-.315.481-.563.033-.265-.215-.182-.381-.166a.621.621,0,0,1-.514.033c-.2.083-.365.066-.447-.149-.083-.182.066-.265.215-.315a.193.193,0,0,1,.249-.083.954.954,0,0,0,.481-.083.451.451,0,0,1,.646.166c.116,0,.215-.033.232-.149a1.356,1.356,0,0,1,.5-.812c.265-.249-.083-.365-.149-.563-.4-.249-.414-.679-.547-1.061a.506.506,0,0,1,.265-.713,1.723,1.723,0,0,1,1.475-.116c.6.282.481-.7.978-.481,0,0,.083-.066.083-.1a.22.22,0,0,0-.05-.133c-.265-.4-.1-.414.282-.365a.612.612,0,0,0,.729-.5c.066-.315,0-.8-.331-.829-.414-.033-.961-.315-1.226.249a2.143,2.143,0,0,0-.895-.945c-.331-.182-.978.232-.994-.53,0-.166-.215-.033-.348,0-.282.083-.63.331-.729-.232a.125.125,0,0,0-.2-.083c-.232.133-.464-.033-.713-.033a1.708,1.708,0,0,0,.083.265c.1.215.331.381.331.63-.017.4-.414.182-.613.331a2.372,2.372,0,0,1-.249.182,1.05,1.05,0,0,1-.779.2c.017-.215.464-.265.249-.53a.956.956,0,0,0-.713-.348,1.006,1.006,0,0,0-.3.083c-.232.083-.315.017-.365-.249-.116-.63-.447-.829-1.077-.762-.116,0-.232.066-.331-.1a1.344,1.344,0,0,1,1.243-.4,22.634,22.634,0,0,0,4.839-.4,1.557,1.557,0,0,1,.994.066,1.023,1.023,0,0,0,.8.066.562.562,0,0,1,.166-.563c.4-.365.315-.746-.166-.928a1.392,1.392,0,0,0-.779-.182.546.546,0,0,1-.547-.514,1.325,1.325,0,0,0-.829-1.143c-.05-.017-.05-.116-.083-.182-.033,0-.033-.033-.05-.066-.829.2-1.375-.547-2.1-.679-.1-.017-.232-.1-.3-.05-.5.315-.895-.033-1.293-.2a4.125,4.125,0,0,0-1.889-.348c-.133,0-.381.066-.4-.116a.8.8,0,0,1,.2-.514A.278.278,0,0,1,73.332,36c.514.3,1.16.249,1.674.613.282.2.331.116.315-.282a.266.266,0,0,1,.083-.182c.215-.315,0-.381-.249-.431a1.955,1.955,0,0,1-.447-.1c-.133-.083-.331-.265-.05-.365.331-.133.166-.365.182-.547-.149-.133-.282-.265-.431-.4-.414-.447-.895-.166-1.177.083-.365.3-.381-.017-.5-.149-.215-.232,0-.464.066-.663.083-.215.315-.149.5-.083.232.1.431.215.663,0,.133-.265.3-.53-.116-.713-.1-.05-.116-.166-.133-.265-.066-.481-.381-.613-.8-.613a1.4,1.4,0,0,1-.895-.182c-.315-.249-.6-.133-.895.066-.381.265-.762.53-1.16.762-.315.166-.63.2-.8-.232-.116-.282-.232-.265-.447-.05-.464.514-.729.53-1.276.133a2.011,2.011,0,0,0-.331-.232c-.431-.166-.166-.53-.182-.8,0-.249.282-.149.464-.166.3-.033.514-.083.2-.4a.31.31,0,0,1-.066-.414c.116-.2.265-.066.4-.033a1.147,1.147,0,0,0,1.094-.613,1.737,1.737,0,0,0-.414-1.21.3.3,0,0,0-.2-.05c-.365.182-.779-.066-1.077.033-.53.182-.779-.133-1.011-.4a1.639,1.639,0,0,0-1.574-.53c-.265.033-.348,0-.3-.282.033-.166.083-.365-.1-.481-.2-.133-.3.1-.447.133-.265.083-.663.381-.812.017-.182-.464-.381-.563-.812-.414-.05.017-.133-.033-.2-.033-.133-.017-.249-.2-.365-.05-.133.149.05.282.1.414a.278.278,0,0,1,.166.265c.05.05.083.116.133.166.3.365.282.464-.05.729l-.663.066a1.735,1.735,0,0,1-1.177.63.262.262,0,0,1-.348-.149c-.033-.166.133-.182.232-.215.149-.066.331-.083.365-.315.017-.249-.215-.215-.348-.315a1.046,1.046,0,0,0-1.11-.133c-.348.133-.5,0-.464-.331.017-.3-.182-.5-.265-.762l-.2-.249c-.066,0-.083-.017-.1-.083a.227.227,0,0,1-.215-.1h-.215a1.328,1.328,0,0,1-.646.232c-.133,0-.3,0-.315-.182-.017-.166.1-.232.265-.232a1.756,1.756,0,0,1,1.243-.365,20.687,20.687,0,0,0,5.253-.365,1.284,1.284,0,0,1,.563-.033,1.378,1.378,0,0,0,.994-.149,1.229,1.229,0,0,1,1.077,0,3.511,3.511,0,0,0,.514.232c.282.066.713.133.746-.182a.878.878,0,0,1,.547-.779.6.6,0,0,0,.116-.149c-.315-.282.05-.563-.033-.845a.189.189,0,0,1-.215-.083,1.868,1.868,0,0,1-.3-.05,3.761,3.761,0,0,0-1.309-.265c-.3.05-.53-.381-.563-.7-.066-.646-.232-1.177-.928-1.375-.083-.017-.149-.133-.215-.215-.182-.282-.414-.414-.729-.2-.083.066-.232.116-.282.05-.265-.414-.8-.4-1.127-.729a1.15,1.15,0,0,0-1.127-.282,2.086,2.086,0,0,1-1.806-.3,5.857,5.857,0,0,0-2.536-.481c-.166,0-.431.083-.464-.083a.982.982,0,0,1,.215-.713.323.323,0,0,1,.464-.1,2.276,2.276,0,0,0,1.21.348,4.283,4.283,0,0,1,.978.431.861.861,0,0,0,.911.017c-.066-.282-.331-.083-.414-.232,0-.017-.033-.066,0-.083.53-.7.53-.7-.331-.845a.923.923,0,0,1-.58-.315c-.133-.149-.133-.3.083-.331.381-.066.4-.315.365-.613-.05-.033-.083-.083-.133-.116a.512.512,0,0,1-.414-.4c-.033-.05-.066-.083-.1-.133a.585.585,0,0,1-.431-.249c-.066-.083-.2-.166-.265-.066-.265.331-.762.232-1.011.6-.166.232-.166.149-.348-.083a.757.757,0,0,1-.2-.928c.182-.431.4-.514.779-.348a1.908,1.908,0,0,1,.547.282c.1-.033.182-.066.282-.1.083-.166.149-.331.232-.5.083-.2.05-.381-.166-.447-.414-.133-.4-.447-.365-.779-.133-.2-.232-.431-.5-.514a3.908,3.908,0,0,1-1.243-.1,1.221,1.221,0,0,1-.232-.066.223.223,0,0,1-.232-.116c-.033,0-.05,0-.05-.033a.3.3,0,0,1-.265-.166c-.083,0-.166-.033-.249-.033a.189.189,0,0,1-.215.083c-.149.1-.3.182-.447.282a.263.263,0,0,1-.249.182c0,.017-.033.033-.066.033-.05.033-.083.05-.133.083,0,.017-.033.033-.066.033a.749.749,0,0,1-.464.348,2.64,2.64,0,0,1-1.044.6c-.265.116-.431.017-.431-.3-.017,0-.033-.033-.033-.066a.385.385,0,0,1-.1-.348c-.083-.066-.166-.149-.249-.215-.232.033-.431.331-.679.066l-.017-.033a.145.145,0,0,1-.149-.133h-.2c-.116.116-.2.083-.265-.05a3.585,3.585,0,0,1-1.425-.331c-.182-.116-.6-.166-.63.182-.066.6-.414.713-.911.845a4.343,4.343,0,0,1-1.21.116c-.232,0-.381.033-.464.282a.808.808,0,0,1-.961.563c-.166-.017-.365-.066-.381.133-.083.646-.514.514-.911.447-.3-.05-.464.033-.481.348,0,.232-.149.331-.365.331-.348,0-.514.2-.447.53.066.4-.116.431-.431.381a.5.5,0,0,0-.646.514,3.339,3.339,0,0,0,.033.911c.1.58,0,.679-.563.679-.265,0-.514-.017-.663.282a.314.314,0,0,1-.265.149.754.754,0,0,0-.679.945c.083.613.066.63-.547.679-.232,0-.514-.017-.63.249a.712.712,0,0,0,.166.713,1.4,1.4,0,0,0,.58.481,1.936,1.936,0,0,1,1.077.878c.083.182.083.514.3.5.514-.05.679.4,1.011.613.331.133.182.414.182.646,0,.166-.149.249-.331.166a.547.547,0,0,1-.4-.017,6.248,6.248,0,0,1-2.254-.928,3.852,3.852,0,0,0-.978-.414c-.249-.066-.4,0-.4.3,0,.315-.116.63.066.945.116.2.1.414-.215.414a.636.636,0,0,0-.58.365c-.166.3-.481.282-.779.315-.58.066-.729.3-.464.812.133.265.249.431-.133.646-.431.232-.083.613,0,.911a.625.625,0,0,0,.713.53c.2,0,.464-.2.547.033.066.215-.3.2-.431.348a.344.344,0,0,1-.431.066h-.762l-.447.3a5.935,5.935,0,0,1-1.674.6.126.126,0,0,1-.066.033,1.65,1.65,0,0,1-.166.182v.315a2.348,2.348,0,0,1,.63.829,1.1,1.1,0,0,1,.762.613c.116.315.365.249.6.149.2-.083.4-.2.613-.282.149-.05.348-.083.431.05a.846.846,0,0,0,1.027.331c.3-.05.547.017.331.414-.033.066,0,.166,0,.249h.017a5.892,5.892,0,0,0,1.326-.033c.365-.331.862-.464,1.21-.829.149-.149.348-.1.464.116.066.033.116.083.182.116.331-.066.663.083,1.027,0,.315-.083.6-.05.7-.464.066-.249.53-.182.663.083a.587.587,0,0,1-.066.713c-.232.182-.563.464-.862.3-.282-.149-.5-.265-.6.083a.53.53,0,0,0,.4.646c.481.066.53.232.315.63-.1.182-.066.315.2.315.365,0,.713.166,1.077-.133.2-.166.381.083.514.232s.017.282-.066.414a1.659,1.659,0,0,1-.8.447,2.148,2.148,0,0,1-1.906.182,1.057,1.057,0,0,0-.464-.05c-.4,0-.348.249-.249.5.133.331.017.464-.331.481a1.194,1.194,0,0,0-1.061.381c-.149.182-.414.05-.613-.05-.547-.249-1.027.066-1.541.149-.033,0-.05.033-.083.066a1.751,1.751,0,0,0,.365,1.475,1.087,1.087,0,0,1,.5.249c.116.133.232.249.365.381a.6.6,0,0,1-.713.05,1.128,1.128,0,0,0-1.259-.066.149.149,0,0,1-.017.083,1.715,1.715,0,0,1-.166.7c-.348.481-.63.53-1.177.182a1.107,1.107,0,0,0-1.011-.215c-.2.066-.464.033-.5.348-.017.3-.05.6.315.729a.354.354,0,0,1,.282.331c.017,0,.033.033.033.066a2.41,2.41,0,0,0,.713.646c.083.033.166.083.149.182,0,.116-.1.116-.182.133q-.962.216-.663,1.127c.05.149.083.3.133.447.447.4,1.143.431,1.475.994l-.017.017h.017c.166.066.2.166,0,.249a.217.217,0,0,1-.232.166c0,.017-.033.033-.05.05-.133.481.265.862.282,1.342,0,.166.348.133.547.033a.8.8,0,0,1,.8-.017,2.967,2.967,0,0,0-.232.3c-.083.133-.282.265-.116.447a.423.423,0,0,0,.481.033,1.839,1.839,0,0,1,.978-.215.484.484,0,0,0,.149-.033c.133-.133.514-.083.315-.481-.066-.133.133-.2.265-.265.232-.1.464-.215.7-.315.133-.066.232-.166.149-.331-.066-.133-.215-.249-.331-.166-.464.315-.928.033-1.392.05-.1,0-.282-.017-.265-.083.149-.5-.3-.563-.53-.812a.461.461,0,0,1,.3-.812.7.7,0,0,0,.447-.2.838.838,0,0,1,.845-.232.413.413,0,0,0,.381-.116.4.4,0,0,1,.514-.033c.066.017.116.033.182.05.348-.017.713-.066,1.061-.05.381.017.8-.017,1.027.4a1.725,1.725,0,0,0,.961-.066.256.256,0,0,1,.265-.133c.083-.033.166-.066.232-.1.2-.116.4-.249.365-.514-.05-.3-.315-.2-.514-.215a1.426,1.426,0,0,1-.7-.149c-.265-.149-.381-.547-.182-.613.4-.116.547-.431.829-.646a.436.436,0,0,1,.447-.066.782.782,0,0,0,1.061-.182.251.251,0,0,1,.331-.033c.116.083.033.182,0,.265-.1.215,0,.282.215.282a6.028,6.028,0,0,0,1.226-.1.684.684,0,0,1,.779.3A12.192,12.192,0,0,0,49.6,45.094c.729.381.8.63.431,1.359-.166.348-.315.7.033,1.044a.614.614,0,0,1,.133.481c0,.431-.017.862,0,1.293,0,.431.083.878-.679.762a1.3,1.3,0,0,1,.613,1.226,6.108,6.108,0,0,1,0,.779c-.05.481.232,1.127-.646,1.26.6.149.613.547.6.994-.05,1.011-.149,2.022-.1,3.033a12.214,12.214,0,0,1-.05,2.2c-.05.365-.116.713-.663.762.829.3.7.945.679,1.525-.066,2.585-.149,5.187-.2,7.772-.182,7.855-.5,19.87-.58,23.433v.249c-4.276-.331-7.275-.729-7.358-.746-.646-.066-.779.232-.414.315a44.72,44.72,0,0,0,17.5,3.6c15.661.249,20.914-3.5,21.179-3.546.215-.083.431-.166.646-.232v-.083a.118.118,0,0,0-.05-.1c-.829.1-4.591.53-9.115.862-.3-4.093-.928-15.479-.928-16.257L70.6,75.952a3.93,3.93,0,0,1-.05-1.458v-.4l-.017-.116v-.514a7.064,7.064,0,0,1-.05-1.773l-.05-1.74a14.683,14.683,0,0,1-.083-2.7c0-.381-.017-.746-.033-1.127a7.841,7.841,0,0,1-.066-1.972v-.514a.594.594,0,0,1,0-.414v-.613c-.083-.232-.149-.464.116-.646l.149-.182a.689.689,0,0,1-.232-.53c0-.514-.017-1.027-.033-1.558a23.586,23.586,0,0,1,0-2.652c-.182-.4.265-.812-.05-1.21-.033-.033.116-.149.232-.1l.348-.05a.451.451,0,0,1,.431-.066c.1,0,.2-.033.3-.033a.694.694,0,0,1,.514-.1c.166-.033.348-.066.514-.116a.161.161,0,0,1,.215-.05.832.832,0,0,0,.2-.033.979.979,0,0,1,1.21.133c.033,0,.05,0,.066.033.348.166.1.5.215.729.116.017.2.182.315.133a2.334,2.334,0,0,1,1.574,0c.1-.431.381-.249.63-.2l.6-.547c0-.033,0-.05.033-.066.1-.315.414-.381.663-.514.149-.083.514-.149.331-.4-.149-.2-.365-.5-.7-.414-.481.133-.845-.265-1.309-.182a1.847,1.847,0,0,1,.911-.464c0-.017.033-.033.066-.033a1.092,1.092,0,0,1,1.193-.166.4.4,0,0,1,.3.116c.249.166.646-.066.829.315a.778.778,0,0,1,.365.365c.017,0,.05,0,.05.033a1.15,1.15,0,0,1,.895.58c.05.083.166.149.083.249a.23.23,0,0,1-.315.033c-.149-.066-.3-.133-.464-.2a.832.832,0,0,0-.2.033,2.641,2.641,0,0,1-.215.215c-.265.2-.878.348-.116.713.05.033.116.1.066.166-.083.116-.215.083-.331.05a2.953,2.953,0,0,0-1.259-.083l-.033.3c.1.066.215.133.315.2.249.066.514-.1.746.066.182.033.249.182.3.331.133.05.182.166.249.282a.061.061,0,0,1,.05.017c.2,0,.381-.066.547.083a5.034,5.034,0,0,1,.994.2.4.4,0,0,0,.563-.282c.1-.331.3-.613.414-.928a.865.865,0,0,1,1.392-.481,1.107,1.107,0,0,0,.679.215c.166-.017.381.017.447-.182s-.182-.2-.3-.282c-.1-.083-.265-.133-.2-.3.066-.182.215-.116.348-.066a1.18,1.18,0,0,0,1.11-.249c.232-.149.265-.365-.033-.514Zm-49.5-24.063c-.348,0-.3-.249-.315-.464.033-.133-.05-.381.166-.315.215.083.547.1.58.4.017.249-.2.365-.447.365Zm4.988,9a.869.869,0,0,1-.779-.133,1.176,1.176,0,0,1-.414-.8.727.727,0,0,1,.3-.63c.2-.149.331.083.481.182a.958.958,0,0,1,.53.978c-.017.133.083.348-.116.4M71.128,52.668a8.026,8.026,0,0,1-.895.762c-.133.1-.265.282-.447.182-.166-.1-.066-.315-.116-.481a1.421,1.421,0,0,1,.928-1.177,2.375,2.375,0,0,1,1.259-.315c-.05.481-.447.729-.729,1.027m-1.475-.961c.017-.3.133-.547.464-.563.215,0,.447,0,.547.315a1.537,1.537,0,0,1-.779.447c-.133.05-.232-.05-.232-.2m3.662-6.5c.083.249.414.166.63.232.149.05.315.05.282.265-.033.182-.116.3-.3.3a1.5,1.5,0,0,1-.663-.05c-.083-.033-.166-.066-.215.033a.189.189,0,0,0,.083.265.681.681,0,0,0,.381.116,11.975,11.975,0,0,1,1.541.05.422.422,0,0,0,.116-.033c.249-.05.414.116.613.2.182.116.149.215,0,.315a.274.274,0,0,1-.315,0c-.2,0-.414,0-.613-.017h-.215c-.3-.066-.547-.017-.663.3a.3.3,0,0,1-.365.215,8.4,8.4,0,0,1-1.922-.265c-.282-.083-.447-.182-.116-.464a9.5,9.5,0,0,0,1.309-1.508c.133-.166.282-.431.414.033Zm2.718-4.425v-.05c.05-.232.05-.5.348-.563a.253.253,0,0,1,.166.066c.116.265-.166.381-.232.58.249-.05.514.033.63-.365.066-.232.779-.265.911-.033a.67.67,0,0,0,.829.3.619.619,0,0,1-.481.514,10.275,10.275,0,0,1-3.1.315c-.2,0-.5,0-.53-.215-.033-.2.249-.282.414-.381a2.513,2.513,0,0,1,1.044-.166m-2.817.033a4.162,4.162,0,0,1,.066-.447.454.454,0,0,1,.563-.4.868.868,0,0,0,.729-.033c.149-.1.348.05.4.215.066.182-.133.182-.232.249a.992.992,0,0,1-1.011.232c-.116-.05-.182.066-.2.182.066.232.265.116.414.133a1.371,1.371,0,0,1-1.525.663c-.2,0-.249-.116-.2-.265.083-.249.282-.265.5-.215.232-.033.331-.232.5-.331Zm-1.193-6.231c.3-.116.447.149.646.282A.138.138,0,0,1,72.7,35c-.3.232-.613.447-.961.7a.333.333,0,0,1-.282-.215c-.083-.182.282-.812.547-.911ZM69.537,46.055c0-.431.1-.762.663-.58.232.083.431-.066.6-.232.331-.331.646-.713,1.143-.2.116.133.3,0,.53.083a6.263,6.263,0,0,1-2.618,1.906c-.232.1-.315-.033-.3-.249v-.713Zm.282,1.806a.116.116,0,0,1,.066-.033.223.223,0,0,1,.232-.116c0-.017.033-.033.05-.033.05-.033.083-.066.133-.1l.116-.066c.166-.166.315-.4.58-.149l.149.05c.05,0,.1.033.149.033l.249.1c.679.083,1.375.133,2.055.249a.92.92,0,0,1,.729.447.832.832,0,0,1,.2.033c.166-.05.249.033.315.182.066.1.133.182.2.282.331.232.646.431.878-.116a.326.326,0,0,1,.447-.133.282.282,0,0,1,.116.4c-.066.166-.182.315-.4.232a.46.46,0,0,0-.514.1.607.607,0,0,1-.646,0,1.273,1.273,0,0,0-.613-.033c0,.017-.033.033-.066.033a.212.212,0,0,1-.232.1c0,.017-.033.033-.066.017a1.445,1.445,0,0,1-1.342.232,2.409,2.409,0,0,0-.911,0c-.215,0-.746-.083-.381.481.05.083,0,.166-.083.215-.116.083-.116-.05-.166-.1-.05-.083-.116-.166-.166-.249H70.73c-.133.083-.083.381-.348.315h-.7c-.182.033-.2-.083-.2-.215,0-.613-.017-1.226-.033-1.823,0-.215.05-.381.315-.348Zm-1.69-1.276c.215-.215.1-.663.6-.746V46.7c0,.149,0,.3-.2.3s-.447.083-.58-.066c-.149-.166.1-.249.182-.331Zm.05,1.127a.392.392,0,0,1,.464.331c.017.149-.033.282-.149.232-.215-.1-.547-.05-.613-.365-.033-.149.166-.2.3-.215Zm.5,1.773c-.017.315-.133.381-.381.2a6.086,6.086,0,0,1-1.508-1.608,1.558,1.558,0,0,1,1.889,1.392ZM63.24,41.249c.215-.215.514-.066.829.033-.3.2-.961.249-.3.762-.265.149-.464.066-.547-.133a.627.627,0,0,1,.033-.679Zm2.055,2.37c-.166-.017-.365,0-.4-.232-.05-.249.116-.282.3-.331.116-.017.3-.033.331-.1.232-.547.365-.133.514.033.133.166.182.3-.1.331-.232.033-.348.348-.63.282Zm-1.11-7.358c.348-.679,1.027-.447,1.492-.713a2.316,2.316,0,0,1-1.492.713m.53,7.656c-.033.53-.5.348-.8.447-.166.066-.315.05-.365-.133-.05-.2.116-.249.249-.315a1.818,1.818,0,0,1,.895,0Zm-1.492,1.674c.166-.066.249.033.348.149.249.348.481.215.7-.05.116-.149.232-.4.481-.265a1.892,1.892,0,0,1,.58.729c-.033.182-.149.182-.232.133-.53-.249-1.127.033-1.657-.2-.149-.066-.3-.066-.348-.249a.214.214,0,0,1,.133-.249m.829,2.436a1.748,1.748,0,0,0,1.177-.232.317.317,0,0,1,.5.166c.066.249-.05.331-.265.4a1.9,1.9,0,0,0-.447.232c-.149.1-.563-.017-.365.348a.538.538,0,0,0,.779.265c.265-.133.348-.414.53-.613a.792.792,0,0,1,.812-.017A14.2,14.2,0,0,0,68.543,50.4a.381.381,0,0,1,.1.431c-.05.215-.249.166-.381.149a8.124,8.124,0,0,1-1.674-.215c-.182-.05-.331-.066-.4-.315-.083-.3-.381-.232-.613-.166-.447.116-.845.215-1.044-.4-.066-.232-.365-.265-.63-.166-.481.2-.779.017-.845-.5-.116-1.094-.1-1.127,1.011-1.193Zm3.082-4.508c-.066.083-.149.033-.232-.017a2.468,2.468,0,0,1-.646-.713c.5-.017.646.331.878.563a.18.18,0,0,1,0,.182ZM64.4,31.936c.5-.315,1.061-.149,1.574-.265a.457.457,0,0,1,.464.331c0,.265-.265.249-.464.265a1.286,1.286,0,0,0-1.193.928c-.083.3.182.447.4.646-.348-.066-.5.613-.928.2-.05-.033-.1-.05-.149-.083,0,0-.05-.017-.05-.033.066-.53-.232-1.011-.215-1.508,0-.265.348-.348.563-.481m-1.724,1.077a.543.543,0,0,1,.58.4.5.5,0,0,1-.547.3c-.265-.033-.53-.133-.53-.447,0-.381.3-.232.5-.249M60.82,49.834c.381-.249.729.149,1.061.331.149.083.017.215-.066.282-.232.2-.149.331.066.464a1.709,1.709,0,0,1,.232,1.541,1.037,1.037,0,0,1-.961-.017.463.463,0,0,1-.083-.282c.033-.133.166-.083.249-.083.182,0,.381,0,.481-.3H60.787c-.149,0-.282,0-.2-.215.033-.1.315-.149.083-.315-.215-.166-.315-.547-.713-.4-.083.033-.2,0-.365.033.265-.58.8-.762,1.21-1.027Zm1.259,4.044c0,.149-.1.315-.232.249-.265-.133-.646-.166-.746-.447-.066-.232.249-.265.447-.3a.5.5,0,0,1,.514.514Zm-2.221-.066c.116-.215.348,0,.5.017a2.507,2.507,0,0,1,1.243.563,1.108,1.108,0,0,1,.414,1.027c-.017.066.1.3-.1.381-.166.066-.282-.1-.4-.182a9.014,9.014,0,0,1-1.425-1.326c-.116-.149-.348-.3-.249-.464Zm2.254-5.867a1.421,1.421,0,0,1,.133,1.044.137.137,0,0,1-.166.149c-.166-.017-.215-.149-.265-.282-.1-.215-.116-.547-.5-.4-.182,0-.414.116-.464-.166s.182-.348.381-.381c.3-.05.63-.265.862.033Zm-.53-6.861c-.249.017-.514-.133-.547.232,0,.083-.116.116-.215.083-.149-.066-.066-.149-.017-.249.3-.663.4-.6.779-.066M56.727,29.748c.133.066.116.232.066.365-.066.2.05.232.2.249.232.033.481.066.713.116.149.033.365,0,.365.265a.467.467,0,0,1-.331.514,1.172,1.172,0,0,1-.945-.083c-.116-.066-.215-.133-.315,0a.251.251,0,0,0,.066.365.875.875,0,0,0,.812.149c.431.033.895.066,1.342.116s.895-.2,1.342.116c.166.116.348.149.232.4-.1.215-.282.365-.481.232-.5-.348-1.061.05-1.574-.166-.249-.1-.414.182-.481.431-.083.3-.265.381-.58.365a12.039,12.039,0,0,1-2.668-.5c-.282-.083-.4-.2-.116-.431a10.893,10.893,0,0,0,2.005-2.27c.083-.116.149-.315.331-.232Zm.083,16.025a.7.7,0,0,0-.447.05c-.514.249-.53.414-.033.762a.86.86,0,0,1-.779-.166,2.344,2.344,0,0,0-.4-.215c-.58-.166-.6-.2-.265-.713.066-.116.116-.232.232-.447-.4.133-.829-.215-1.027.348-.05.149-.282.066-.431.033-.05.033-.1.017-.116-.05a.091.091,0,0,1-.083-.05h-.348a2.289,2.289,0,0,1-.05.331c.05.133,0,.2-.133.182a1.225,1.225,0,0,0-.348,0c-.746.149-.746.149-.713-.63,0-.348-.215-.911.547-.746.232,0,.447-.033.679-.05a.826.826,0,0,1,.679-.1,2.423,2.423,0,0,1,1.193,0c.149-.033.3-.083.431.033.8.033,1.591.05,2.386.083.133.033.133.1.05.182-.083.381-.414.613-.547.961a.428.428,0,0,1-.481.2m.083,5.32c-.331.547-.812.331-1.226.282-.182-.017-.215-.265-.116-.431.083-.166.265-.116.348,0a.678.678,0,0,0,1.011.166ZM51.772,35.316c-.3-1.11.182-1.724,1.21-2.088a1.278,1.278,0,0,1,1.044-.1,7.6,7.6,0,0,0,2.917.481,1.157,1.157,0,0,1,.8.265,1.2,1.2,0,0,0,.746.381.562.562,0,0,1,.5.464c.033.265-.282.149-.431.232a.632.632,0,0,0-.232.182,2.583,2.583,0,0,1-2.42.845,3.18,3.18,0,0,0-1.806.1,2.357,2.357,0,0,0-.945.646c-.348.431-.8.2-1.177.182-.3,0-.2-.348-.2-.563-.017-.348,0-.679,0-1.027M53,25.522c-.315-.033-.447.182-.613.381a.64.64,0,0,1-.679.249.384.384,0,0,1-.265-.464c0-.215,0-.431.166-.481.464-.133.829-.447,1.293-.58.249-.066.563-.05.547.315,0,.265,0,.63-.447.58m.729,4.392c.414-.282.829-.646,1.276,0,.149.232.447,0,.762,0a7.792,7.792,0,0,1-2.917,2.4c-1.21.63-1.061.58-1.061-.646a3.8,3.8,0,0,1,.033-.613c.083-.6.232-.713.812-.547.365.1.58-.1.829-.3.1-.083.166-.215.282-.3Zm5.5,18.064s.066.066.133.149a2.164,2.164,0,0,1-1.243.331c-.083,0-.182.017-.2-.1,0-.033.033-.116.05-.116.431,0,.8-.348,1.259-.249Zm-.348-8.584a2.067,2.067,0,0,1-1.458-.182c.381-.3.878-.149,1.226-.447.116-.1.282.083.348.232a.3.3,0,0,1-.1.4Zm-4.276.746a1.459,1.459,0,0,1,1.823-.663c.215.166.3.348-.05.481-.1.033-.2.1-.282.083a4.564,4.564,0,0,0-1.492.1m.53,2.983c.017.166-.133.2-.232.2-.447.066-.911.116-1.375.166-.282.033-.232-.282-.4-.365.679.282.7.282.978-.4.033-.083.166-.149.166-.1.033.464.414.166.6.282.1.05.249.066.265.2Zm1.889.63c.083.033.232.05.232.166,0,.166-.149.166-.265.182a3.653,3.653,0,0,1-1.525-.083c.514-.166.994-.464,1.558-.265m-4.69-5.618a.755.755,0,0,1,.845.215c.149.149.066.282-.1.365-.265.116-.53.249-.779.381-.348.182-.414,0-.447-.282a.692.692,0,0,1,.481-.679m.563,1.127a6.951,6.951,0,0,1,2.171-.663,10.124,10.124,0,0,1-2.917,2.85c-.2.133-.249.05-.282-.166A1.826,1.826,0,0,1,52.9,39.261m5.386,9.463c.4,0,.365.4.6.547.116.083-.033.182-.05.182-.447-.249-1.061.282-1.409-.348.149-.4.514-.365.862-.381m-.215,2.2c-.133-.033-.083-.149-.017-.249.149-.249.083-.7.58-.58H59.2c.249.033.282.2.133.365a3.125,3.125,0,0,1-.514.414.842.842,0,0,1-.746.033Zm1.674-26.648s.116-.017.182-.033h.63c.149-.232.033-.547.265-.746.133-.116.265-.215.447-.116.215.133.05.282.017.431-.033.166-.431.249-.1.481.182-.166.679.033.563-.514-.033-.116.249-.182.431-.182.249,0,.5,0,.746.017.116-.249-.215-.265-.232-.464.315-.1.464.017.481.331,0,.149.017.3.033.464a.1.1,0,0,1,.116.116c.315.265.663-.083,1.027.05a1.535,1.535,0,0,1-.414.447.448.448,0,0,1-.447.282.212.212,0,0,1-.282.083l-.3.05a.384.384,0,0,1-.414.083l-.713.1a.733.733,0,0,1-.53.05,7.785,7.785,0,0,1-2.237,0c-.215.05-.5.017-.53-.149-.05-.2.2-.348.414-.431l.249-.149a.7.7,0,0,1,.6-.2m-2.834-3.43c.182-.033.315.116.315.315a.491.491,0,0,1-.3.53.307.307,0,0,1-.3-.348c0-.2.017-.447.265-.5Zm0,2.884a.652.652,0,0,1,.746-.58,1.254,1.254,0,0,0,.978-.033c.249-.133.464.083.514.348.05.249-.1.331-.348.265-.116-.033-.182.05-.249.133a.75.75,0,0,1-.829.232.581.581,0,0,0-.547,0c-.017,0,0,.1,0,.133.149.166.348.1.53.1.133,0,.3-.083.365.083.083.182-.1.265-.215.365a3.184,3.184,0,0,1-1.757.729c-.282.033-.63.033-.7-.348-.05-.4.215-.514.58-.514a.919.919,0,0,0,.911-.911ZM54.39,17.021a7.793,7.793,0,0,1,.563-.729.713.713,0,0,1,1.177-.05.5.5,0,0,1,.166.3c0,.166-.166.116-.282.133-.315.05-.58.133-.679.514-.083.315-.381.3-.613.315a.347.347,0,0,1-.381-.116c-.1-.149,0-.265.066-.381Zm0,4.988c.166.232.365.547.05.829a1.074,1.074,0,0,1-1.21,0,.3.3,0,0,0-.481-.017c-.348.331-.481-.033-.613-.232-.083-.133,0-.232.166-.232h.646a1.2,1.2,0,0,0,.994-.182c.133-.1.232-.464.447-.166m-.945-3.265c.215.2.613.282.514.679-.05.182-.265.182-.4.116-.381-.182-.166-.5-.116-.8m-2.072,2.337a.3.3,0,0,1,.481-.116c.481.365.829.066,1.16-.215.414-.348.481-.348.679.2a1.3,1.3,0,0,0,.166.249l.149.2c0,.215-.133.249-.282.2a2.473,2.473,0,0,0-1.541.182.72.72,0,0,1-.713-.149.378.378,0,0,1-.1-.53Zm-1.259-3.447a.354.354,0,0,1,.348.365c0,.215-.166.3-.331.331-.265.033-.215-.182-.265-.348.033-.149-.017-.381.232-.365ZM49.07,19.772a2.957,2.957,0,0,0,.812-.282c.116-.05.2.017.2.2-.315.2-.232.481-.149.8.017.066-.149.2-.232.149-.265-.166-.6-.282-.762-.563a.221.221,0,0,1,.133-.3m-1.989,2.005H47.1a5.306,5.306,0,0,1,.116-.547.874.874,0,0,1,.05-.2c-.033-.133-.1-.282.133-.282h.182c.149-.033.215.033.215.182a.787.787,0,0,1,.1.431c.066.414.249.679.729.58.149-.149.282-.3.431-.431.166-.149.414-.249.563-.149.3.2.547.481.978.348.083-.033.133.133.116.249-.033.182-.116.331-.315.348a1.079,1.079,0,0,1-.779-.182c-.249-.2-.447-.149-.679.066-.3.282-.563.613-1.044.563-.05.033-.1.05-.149.083-.282.215-.5.1-.679-.133-.365-.315-.729-.63-1.094-.928,0-.133.083-.133.182-.133.116-.215.265-.166.381,0a.52.52,0,0,0,.58.166Zm3.381,15.429c0,.414-.166.514-.547.563a1.855,1.855,0,0,1-1.707-.646c-.133-.133-.232-.249-.166-.431a.419.419,0,0,1,.464-.331c.315,0,.381-.116.3-.414-.2-.746-.083-.994.679-1.293.265-.1.481-.182.166-.464a.362.362,0,0,1-.05-.083c-.116-.348.116-.945-.646-.812-.4.083-.762-.282-1.193-.1a1.71,1.71,0,0,1-1.392-.116.414.414,0,0,1-.232-.6c.1-.232.215-.464.53-.3a.362.362,0,0,0,.464-.066,1.6,1.6,0,0,1,.829-.53c.315-.133.547-.414.961-.2.2.1.365-.116.514-.265a.717.717,0,0,1,.779-.249c.315.133.249.464.265.729v2.784h-.033v2.834ZM50.247,25.87a2.809,2.809,0,0,0-1.077-.58c.249-.249.464-.149.646-.149.4,0,.514-.232.315-.53a2.308,2.308,0,0,0-.646-.845c-.116-.083-.315-.166-.2-.348a.323.323,0,0,1,.5-.033,2.034,2.034,0,0,0,.762.58c.1.033.133.166.133.265,0,.481,0,.961-.017,1.442,0,.331-.133.4-.414.215ZM45.192,15.86a.339.339,0,0,1,.5.116.8.8,0,0,0,.845.5c.3-.017.365.365.5.563,0,.116-.033.182-.133.215a1.728,1.728,0,0,1-1.707-.978c-.066-.149-.149-.315,0-.414m-.414,6.165a8.487,8.487,0,0,1,1.243.431c.331.166.4.53.447.878.05.315-.083.4-.365.4-.58,0-.812-.232-.862-.845-.033-.381-.381-.5-.7-.729.116-.05.182-.116.232-.1Zm1.608,5.1a.671.671,0,0,1-.3.514c-.166-.116-.331-.215-.331-.414,0-.232.2-.315.348-.365.166-.05.282.116.282.282ZM43.5,25.224h.133a.208.208,0,0,1,.265-.083h.166c.4.166.779-.2,1.177,0,.083.083.182.166.265.249q.174,0,.2.2c.182.1.431.149.5.4V26.1a1.621,1.621,0,0,1-1.077.547.256.256,0,0,1-.331-.05c-.033,0-.1-.017-.083-.033.033-.514-.348-.613-.713-.729a.728.728,0,0,1-.447-.116h-.166c-.182.1-.514,0-.547.348-.033.365-.066.729.315.961a1.681,1.681,0,0,1,.215.149c.1.083.232.182.149.331s-.232.133-.365.1a.739.739,0,0,1-.464-.3,6.7,6.7,0,0,1-.53-.862c-.116-.265-.166-.58.249-.7a1.854,1.854,0,0,0,.63-.431c.149-.116.3-.249.481-.066Zm-1.74-7.209c.348.331.646.464.895-.05a.191.191,0,0,1,.3-.1.206.206,0,0,1,.05.315,4.155,4.155,0,0,1-.447.613c-.2.182-.464.315-.563-.1-.066-.215-.365-.348-.232-.679M44.2,29.963a2.65,2.65,0,0,1-2.37.961c-.63-.083-.762-.265-.7-.911a1.255,1.255,0,0,1-1.21.033c.133-.2.315-.166.481-.149.447.033.481-.381.7-.6.083-.1-.05-.215-.149-.282-.133-.066-.249-.3-.431-.116-.265.249-.464.05-.5-.149-.066-.365-.613-.729-.017-1.127.05-.033.05-.182.05-.282.017-.182.066-.348.3-.331a.349.349,0,0,1,.381.348c0,.514.215.713.729.646.249-.033.331.2.348.414a.464.464,0,0,0,.265.414c.249.1.2-.182.282-.265a.593.593,0,0,1,.63-.215,3.992,3.992,0,0,0,2.37-.083c.365-.133.812-.249.862.4,0,.1.1.182.149.265a8.186,8.186,0,0,1,2.1.315,1.225,1.225,0,0,1,.365.166.241.241,0,0,1,.116.348.221.221,0,0,1-.315.066c-.348-.215-.663-.4-1.061-.1-.133.1-.232-.083-.3-.2a.841.841,0,0,0-.447-.414.323.323,0,0,0-.249,0c-.116.066-.05.166-.017.265.05.2.4.4.182.563A.624.624,0,0,1,46,29.814c-.232-.05-.464-.1-.7-.166a1,1,0,0,0-1.11.315m1.127,10.921c.414-.282.7.3,1.077.133-.4.365-.746.282-1.077-.133m4.789,3.48a10.135,10.135,0,0,1-2.337-1.226c-.033-.017-.033-.066-.05-.083-.017,0-.033,0-.05-.033a.447.447,0,0,1-.348-.265h-.017a3.907,3.907,0,0,1-1.044-.829c-.232-.2-.2-.331.116-.4.2-.033.381-.166.6-.149.066-.05.133-.083.2-.133a.81.81,0,0,1,1.011-.746.44.44,0,0,0,.083-.1c.083-.563.133-.6.63-.4a.606.606,0,0,0,.58-.033c.6-.348.878-.182.928.5.083,1.21-.1,2.4-.083,3.6,0,.133.033.381-.215.282Zm1.84,49.269c0-14.849-.149-21.759-.149-36.79,0-.331.017-.646,0-.978a1.565,1.565,0,0,1,.729-1.641c-.381,0-.563.033-.563-.282,0-1.541-.05-3.1-.1-4.64,0-.431.133-.58.547-.547a1.7,1.7,0,0,1,.895.348c.1.066.232.2.166.3-.232.4,0,.978-.514,1.276-.182.1-.447.265-.249.58a.679.679,0,0,1,.414.729c.1.149.215.282.414.1a.269.269,0,0,1,.381-.166,2.6,2.6,0,0,0,.8.149c.2.017.414.149.365.4-.033.249-.232.232-.447.2-.166-.033-.348,0-.514-.033-.365-.1-.414.066-.348.365.017,0,.033.033.033.05a.643.643,0,0,0,.878.05.449.449,0,0,1,.563-.017c.315.182.331.315-.033.447-.033.3.2.282.381.282h.613c.166-.149.381-.1.58-.116a1.74,1.74,0,0,0,.994-.166c.149-.1.331-.017.5,0,.166,0,.315.05.315.249a.356.356,0,0,1-.265.381,2.86,2.86,0,0,0-1.226.613c.663.713,1.044.663,1.525-.166a.874.874,0,0,1,1.293-.066,9.913,9.913,0,0,0,1.724,1.906.537.537,0,0,1,.166.514,5.205,5.205,0,0,0-.116,1.127c.033.249-.215.215-.365.348a.7.7,0,0,1,.365.729,22.632,22.632,0,0,1-.149,4.11,18.418,18.418,0,0,0,.133,1.939c-.215,3.646-.746,22.522-1.011,28.7-.066,0-.3.033-.365.033-2.9,0-5.767-.133-8.352-.3Zm11,.249c-.05-4.458-.1-7.143-.033-12.181h-.017c.066-5.485.066-6.645.133-12.114,0-.348-.116-.779.331-.994.066-.033.1-.1.033-.166-.348-.365-.249-.829-.265-1.243-.05-1.027-.05-2.055-.05-3.1a1.326,1.326,0,0,1,.116-.8c.166-.249-.166-.381-.166-.646.033-1.475.033-2.95.033-4.441a.6.6,0,0,1,.331-.58c.563-.315,1.127-.663,1.674-1.011.133-.083.4-.133.249-.348-.116-.182-.315-.066-.464.017-.447.249-.895.5-1.326.779-.381.249-.464.116-.481-.265-.066-1.525,0-3.066.017-4.591,0-.3.066-.547.431-.232.133.116.3.033.447,0a.885.885,0,0,1,.547-.017c.4.149.53,0,.6-.4.066-.464.514-.5.845-.431a16.675,16.675,0,0,0,2.386.4c.215,0,.282.149.282.348.017,1.011.05,2.022,0,3.033-.017.365-.149.348-.414.182-.514-.315-1.027-.613-1.541-.928-.149-.083-.331-.133-.414,0-.116.2.133.232.232.3.58.365,1.16.729,1.757,1.077a.667.667,0,0,1,.381.663c0,1.508.066,3.033-.033,4.541-.05.713.083,1.409.017,2.121-.066.729,0,1.475-.033,2.221-.033.58.149,1.21-.3,1.724a.124.124,0,0,0,.05.182c.514.249.348.746.348,1.143.033,3.1.348,17.152.431,25.571-2.022.116-3.961.166-6.165.215ZM81.121,52.3c-.166.249-.315.563-.646.663a.166.166,0,0,1-.2-.215c.1-.282.182-.613.6-.58.1.033.331,0,.249.133m.282,2.37c-.232-.215-.249-.431.116-.58a2.373,2.373,0,0,1,.961-.083c.166,0,.331.149.315.282a1.6,1.6,0,0,0,.282.829,1.446,1.446,0,0,1-1.69-.431Z" transform="translate(20.749 7.788)" fill="#eb2127"></path>
    <path id="Path_564" data-name="Path 564" d="M62.29,33.027v0Z" transform="translate(40.939 21.695)" fill="#eb2127"></path>
    <path id="Path_565" data-name="Path 565" d="M63.181,33.013a.532.532,0,0,0-.083.05,1.979,1.979,0,0,1-.265.133.6.6,0,0,1-.6.1c-.331.1-.431.53-.812.547-.1.116-.2.133-.315,0-.331-.066-.5.149-.63.4.033.149.033.315.166.414.514.447,1.177.331,1.773.481.1.017.182-.083.215-.182.05-.149-.066-.215-.182-.249-.1-.033-.215-.083-.182-.2.033-.149.166-.149.282-.149.149,0,.3.033.464.033.2,0,.481-.1.431-.265-.133-.464.282-.547.447-.812a.124.124,0,0,0-.017-.083c-.166,0-.331-.033-.4-.215a.236.236,0,0,1-.1-.033h-.2Z" transform="translate(39.749 21.675)" fill="#eb2127"></path>
  </g>
  <g id="crosby">
    <path id="Path_556" data-name="Path 556" d="M136.082,17.658v5.933a13.724,13.724,0,0,1,3.977-5.22c1.475-1.094,3.662-1.641,6.546-1.641a12.475,12.475,0,0,1,2.569.232v9.363a19.245,19.245,0,0,0-3.745-.381c-3.049,0-5.386.7-6.861,2.188-1.475,1.475-2.254,3.745-2.254,6.944V54.581h-11V17.675h10.772Z" transform="translate(82.357 10.996)" fill="#fff"></path>
    <path id="Path_557" data-name="Path 557" d="M176.854,26.232a19.148,19.148,0,0,0-7.093-6.944,22.066,22.066,0,0,0-20.666,0A18.324,18.324,0,0,0,142,26.232a20.1,20.1,0,0,0-2.5,9.91A19.781,19.781,0,0,0,142,45.97a17.454,17.454,0,0,0,7.093,6.944,20.536,20.536,0,0,0,10.291,2.569,20.98,20.98,0,0,0,10.374-2.569,17.763,17.763,0,0,0,7.093-6.944,20.01,20.01,0,0,0,2.5-9.827,20.327,20.327,0,0,0-2.5-9.91m-11.07,17.633a7.661,7.661,0,0,1-6.4,2.884,7.3,7.3,0,0,1-6.248-2.884q-2.337-2.809-2.337-7.723a12.1,12.1,0,0,1,2.337-7.806,7.378,7.378,0,0,1,6.248-2.884,7.768,7.768,0,0,1,6.4,2.884,12.588,12.588,0,0,1,2.254,7.806,12.169,12.169,0,0,1-2.254,7.723" transform="translate(91.683 10.989)" fill="#fff"></path>
    <path id="Path_558" data-name="Path 558" d="M164.7,43.561l9.91-.779a5.325,5.325,0,0,0,2.1,3.745,7.493,7.493,0,0,0,4.607,1.326,6.713,6.713,0,0,0,4.06-1.011,3.554,3.554,0,0,0,.083-5.469,8.689,8.689,0,0,0-3.894-1.326l-4.441-.7a17.223,17.223,0,0,1-8.667-3.662,9.393,9.393,0,0,1-3.049-7.342,10.271,10.271,0,0,1,4.143-8.5c2.734-2.1,6.48-3.116,11.087-3.116s8.187,1.011,11.07,3.049a10.129,10.129,0,0,1,4.524,8.038l-9.91.779a4.253,4.253,0,0,0-1.79-3.116,7.345,7.345,0,0,0-4.209-1.094,6.538,6.538,0,0,0-3.513.779,2.448,2.448,0,0,0-1.243,2.27c0,1.956,1.475,3.2,4.441,3.662l6.082,1.011a14.584,14.584,0,0,1,8.038,3.662,9.8,9.8,0,0,1,2.884,7.408,10.917,10.917,0,0,1-4.209,8.9c-2.8,2.27-6.712,3.43-11.783,3.43s-9.2-1.094-11.932-3.2a11.18,11.18,0,0,1-4.375-8.734Z" transform="translate(108.245 10.996)" fill="#fff"></path>
    <path id="Path_559" data-name="Path 559" d="M223.486,32.3a17.054,17.054,0,0,0-6.082-6.944,15.4,15.4,0,0,0-8.419-2.5,15.038,15.038,0,0,0-4.922.7,11.178,11.178,0,0,0-3.348,1.79,46.209,46.209,0,0,0-3.281,3.348V7.39h-11V60.67H197.2V56.228c1.475,1.326,2.734,2.337,3.662,3.049a10.522,10.522,0,0,0,3.348,1.641,12.918,12.918,0,0,0,4.524.7,15.792,15.792,0,0,0,8.667-2.42,16.814,16.814,0,0,0,6.082-6.861,21.828,21.828,0,0,0,2.188-10.059,21.578,21.578,0,0,0-2.188-9.993ZM212.167,50a7.93,7.93,0,0,1-6.48,2.884A7.5,7.5,0,0,1,199.373,50a11.589,11.589,0,0,1-2.42-7.723,11.821,11.821,0,0,1,2.42-7.806,7.608,7.608,0,0,1,6.314-2.884,8.23,8.23,0,0,1,6.48,2.8,12.1,12.1,0,0,1,2.337,7.806c0,3.281-.779,5.933-2.337,7.806" transform="translate(122.527 4.857)" fill="#fff"></path>
    <path id="Path_560" data-name="Path 560" d="M208.85,17.29h11.932l8.12,21.13,8.187-21.13h10.855l-21.08,50.777H216.258l7.109-16.373Z" transform="translate(137.262 11.364)" fill="#fff"></path>
    <path id="Path_561" data-name="Path 561" d="M132.439,39.073a15.048,15.048,0,1,1,0-8.485h11.518a26.25,26.25,0,1,0,0,8.485Z" transform="translate(60.347 5.639)" fill="#fff"></path>
  </g>
</svg>
