<?xml version="1.0" encoding="UTF-8"?>
<svg preserveAspectRatio="xMidYMid slice" xmlns="http://www.w3.org/2000/svg" id="logo" width="30px" height="5px" viewBox="0 0 624.987 123.132">
  <path id="Path_556" data-name="Path 556" d="M136.082,17.658v5.933a13.724,13.724,0,0,1,3.977-5.22c1.475-1.094,3.662-1.641,6.546-1.641a12.475,12.475,0,0,1,2.569.232v9.363a19.245,19.245,0,0,0-3.745-.381c-3.049,0-5.386.7-6.861,2.188-1.475,1.475-2.254,3.745-2.254,6.944V54.581h-11V17.675h10.772Z" transform="translate(82.357 10.996)" fill="#fff"></path>
  <path id="Path_557" data-name="Path 557" d="M176.854,26.232a19.148,19.148,0,0,0-7.093-6.944,22.066,22.066,0,0,0-20.666,0A18.324,18.324,0,0,0,142,26.232a20.1,20.1,0,0,0-2.5,9.91A19.781,19.781,0,0,0,142,45.97a17.454,17.454,0,0,0,7.093,6.944,20.536,20.536,0,0,0,10.291,2.569,20.98,20.98,0,0,0,10.374-2.569,17.763,17.763,0,0,0,7.093-6.944,20.01,20.01,0,0,0,2.5-9.827,20.327,20.327,0,0,0-2.5-9.91m-11.07,17.633a7.661,7.661,0,0,1-6.4,2.884,7.3,7.3,0,0,1-6.248-2.884q-2.337-2.809-2.337-7.723a12.1,12.1,0,0,1,2.337-7.806,7.378,7.378,0,0,1,6.248-2.884,7.768,7.768,0,0,1,6.4,2.884,12.588,12.588,0,0,1,2.254,7.806,12.169,12.169,0,0,1-2.254,7.723" transform="translate(91.683 10.989)" fill="#fff"></path>
  <path id="Path_558" data-name="Path 558" d="M164.7,43.561l9.91-.779a5.325,5.325,0,0,0,2.1,3.745,7.493,7.493,0,0,0,4.607,1.326,6.713,6.713,0,0,0,4.06-1.011,3.554,3.554,0,0,0,.083-5.469,8.689,8.689,0,0,0-3.894-1.326l-4.441-.7a17.223,17.223,0,0,1-8.667-3.662,9.393,9.393,0,0,1-3.049-7.342,10.271,10.271,0,0,1,4.143-8.5c2.734-2.1,6.48-3.116,11.087-3.116s8.187,1.011,11.07,3.049a10.129,10.129,0,0,1,4.524,8.038l-9.91.779a4.253,4.253,0,0,0-1.79-3.116,7.345,7.345,0,0,0-4.209-1.094,6.538,6.538,0,0,0-3.513.779,2.448,2.448,0,0,0-1.243,2.27c0,1.956,1.475,3.2,4.441,3.662l6.082,1.011a14.584,14.584,0,0,1,8.038,3.662,9.8,9.8,0,0,1,2.884,7.408,10.917,10.917,0,0,1-4.209,8.9c-2.8,2.27-6.712,3.43-11.783,3.43s-9.2-1.094-11.932-3.2a11.18,11.18,0,0,1-4.375-8.734Z" transform="translate(108.245 10.996)" fill="#fff"></path>
  <path id="Path_559" data-name="Path 559" d="M223.486,32.3a17.054,17.054,0,0,0-6.082-6.944,15.4,15.4,0,0,0-8.419-2.5,15.038,15.038,0,0,0-4.922.7,11.178,11.178,0,0,0-3.348,1.79,46.209,46.209,0,0,0-3.281,3.348V7.39h-11V60.67H197.2V56.228c1.475,1.326,2.734,2.337,3.662,3.049a10.522,10.522,0,0,0,3.348,1.641,12.918,12.918,0,0,0,4.524.7,15.792,15.792,0,0,0,8.667-2.42,16.814,16.814,0,0,0,6.082-6.861,21.828,21.828,0,0,0,2.188-10.059,21.578,21.578,0,0,0-2.188-9.993ZM212.167,50a7.93,7.93,0,0,1-6.48,2.884A7.5,7.5,0,0,1,199.373,50a11.589,11.589,0,0,1-2.42-7.723,11.821,11.821,0,0,1,2.42-7.806,7.608,7.608,0,0,1,6.314-2.884,8.23,8.23,0,0,1,6.48,2.8,12.1,12.1,0,0,1,2.337,7.806c0,3.281-.779,5.933-2.337,7.806" transform="translate(122.527 4.857)" fill="#fff"></path>
  <path id="Path_560" data-name="Path 560" d="M208.85,17.29h11.932l8.12,21.13,8.187-21.13h10.855l-21.08,50.777H216.258l7.109-16.373Z" transform="translate(137.262 11.364)" fill="#fff"></path>
  <path id="Path_561" data-name="Path 561" d="M132.439,39.073a15.048,15.048,0,1,1,0-8.485h11.518a26.25,26.25,0,1,0,0,8.485Z" transform="translate(60.347 5.639)" fill="#fff"></path>
  <path id="Path_562" data-name="Path 562" d="M131.219,99.964a.92.92,0,0,0-.945.017c-12.479,8.071-28.919,12.96-46.916,12.96-38.5,0-69.8-22.373-70.648-50.214,0-.381-.017-.762-.017-1.16s0-.762.017-1.16c.845-27.841,32.15-50.214,70.648-50.214,21.842,0,41.364,7.209,54.324,18.528a.9.9,0,0,0,1.425-1.044L131.8,11.468l-2.138-4.756a.911.911,0,0,0-1.409-.331,5.214,5.214,0,0,1-5.021,1.11A106.968,106.968,0,0,0,83.359,0C37.321.033,0,27.593,0,61.583s37.321,61.549,83.359,61.549c21.925,0,41.862-6.248,56.743-16.473a.9.9,0,0,0-.066-1.525l-8.8-5.187Z" transform="translate(0 0)" fill="#f99c1c"></path>
  <path id="Path_564" data-name="Path 564" d="M62.29,33.027v0Z" transform="translate(40.939 21.695)" fill="#fff"></path>
  <path id="Path_566" data-name="Path 566" d="M7.377,12.464a13.749,13.749,0,0,0,6.914,1.748,12.454,12.454,0,0,0,7.748-2.464A11.423,11.423,0,0,0,26.25,5.113l-5.682-.675a6.734,6.734,0,0,1-2.384,3.656,6.424,6.424,0,0,1-4.093,1.351,6.368,6.368,0,0,1-3.735-1.113,7,7,0,0,1-2.5-3.02A10.655,10.655,0,0,1,6.94.822a10.655,10.655,0,0,1,.914-4.49,7.116,7.116,0,0,1,2.5-2.98,6.675,6.675,0,0,1,3.775-1.073,6.538,6.538,0,0,1,4.013,1.271,6.881,6.881,0,0,1,2.384,3.656l5.682-.437a11.427,11.427,0,0,0-2.185-4.887,11.232,11.232,0,0,0-4.172-3.258,13.529,13.529,0,0,0-5.563-1.152A13.727,13.727,0,0,0,7.377-10.82,12.6,12.6,0,0,0,2.609-6.012,13.682,13.682,0,0,0,.9.862,13.532,13.532,0,0,0,2.609,7.7,12.492,12.492,0,0,0,7.377,12.464Zm24.357.318a10.487,10.487,0,0,0,5.245,1.311,10.532,10.532,0,0,0,5.285-1.311,9.105,9.105,0,0,0,3.616-3.536A10.191,10.191,0,0,0,47.15,4.239,10.233,10.233,0,0,0,45.879-.807a9.658,9.658,0,0,0-3.616-3.536,11.225,11.225,0,0,0-10.53,0A9.378,9.378,0,0,0,28.118-.807a10.233,10.233,0,0,0-1.271,5.046,10.191,10.191,0,0,0,1.271,5.006A8.858,8.858,0,0,0,31.734,12.782ZM33.8,8.173a5.962,5.962,0,0,1-1.192-3.934A6.152,6.152,0,0,1,33.8.266,3.763,3.763,0,0,1,36.979-1.2,3.915,3.915,0,0,1,40.237.266a6.381,6.381,0,0,1,1.152,3.973,6.181,6.181,0,0,1-1.152,3.934,3.915,3.915,0,0,1-3.258,1.47A3.764,3.764,0,0,1,33.8,8.173ZM48.78-5.178V13.616h5.6V2.849a4.37,4.37,0,0,1,.954-3.02A3.292,3.292,0,0,1,57.918-1.2,2.891,2.891,0,0,1,60.3-.251a4.03,4.03,0,0,1,.755,2.543V13.616h5.6V1.776a8.282,8.282,0,0,0-1.669-5.324,5.9,5.9,0,0,0-4.808-2.106,6.5,6.5,0,0,0-3.417.755,8.937,8.937,0,0,0-2.5,2.424v-2.7ZM70.315,12.464a9.809,9.809,0,0,0,6.079,1.629,9.3,9.3,0,0,0,6-1.748,5.537,5.537,0,0,0,2.146-4.53,5,5,0,0,0-1.47-3.775,7.412,7.412,0,0,0-4.093-1.868l-3.1-.517c-1.51-.238-2.265-.874-2.265-1.867a1.253,1.253,0,0,1,.636-1.152,3.315,3.315,0,0,1,1.788-.4,3.722,3.722,0,0,1,2.146.556A2.185,2.185,0,0,1,79.1.385l5.046-.4a5.168,5.168,0,0,0-2.3-4.093A9.563,9.563,0,0,0,76.2-5.655a9.059,9.059,0,0,0-5.642,1.589A5.238,5.238,0,0,0,68.448.266,4.77,4.77,0,0,0,70,4a8.7,8.7,0,0,0,4.41,1.867l2.265.358A4.458,4.458,0,0,1,78.66,6.9,1.662,1.662,0,0,1,79.3,8.292a1.7,1.7,0,0,1-.675,1.391,3.378,3.378,0,0,1-2.066.517,3.82,3.82,0,0,1-2.344-.675,2.726,2.726,0,0,1-1.073-1.907l-5.046.4A5.685,5.685,0,0,0,70.315,12.464Zm18.874-.04c.954,1.073,2.583,1.589,4.848,1.589a12.02,12.02,0,0,0,3.7-.556l-.6-4.093a7.035,7.035,0,0,1-1.629.2,2.015,2.015,0,0,1-1.589-.517A2.317,2.317,0,0,1,93.4,7.339V-1.006h4.331V-5.178H93.4v-4.848H88.076v4.848H84.222v4.172h3.536V7.617A6.885,6.885,0,0,0,89.189,12.424ZM99.52-5.178V13.616h5.6V3.683A4.787,4.787,0,0,1,106.275.147a4.8,4.8,0,0,1,3.5-1.113,9.684,9.684,0,0,1,1.907.2V-5.535a6.15,6.15,0,0,0-1.311-.119,5.588,5.588,0,0,0-3.338.834A7,7,0,0,0,105-2.158v-3.02Zm14.7,17.165a5.741,5.741,0,0,0,4.808,2.106,6.052,6.052,0,0,0,3.3-.755,10.614,10.614,0,0,0,2.384-2.424v2.7h5.483V-5.178h-5.6V5.59a4.377,4.377,0,0,1-.874,2.98,3.161,3.161,0,0,1-2.543,1.073,2.568,2.568,0,0,1-2.265-.993,3.839,3.839,0,0,1-.755-2.5V-5.178h-5.6V6.663A8.206,8.206,0,0,0,114.221,11.987Zm22.41.834a10.474,10.474,0,0,0,5.165,1.271,9.865,9.865,0,0,0,6.278-1.947,8.43,8.43,0,0,0,3.06-5.324l-5.205-.358a3.741,3.741,0,0,1-3.973,3.179,3.867,3.867,0,0,1-3.218-1.43,6,6,0,0,1-1.192-3.973A6.12,6.12,0,0,1,138.737.226,3.945,3.945,0,0,1,142-1.2a4.129,4.129,0,0,1,2.543.795,4.1,4.1,0,0,1,1.391,2.265l5.126-.4a8.841,8.841,0,0,0-3.1-5.324,9.7,9.7,0,0,0-6.079-1.788,10.61,10.61,0,0,0-5.205,1.232A8.759,8.759,0,0,0,133.1-.886a10.429,10.429,0,0,0-1.272,5.126A10.169,10.169,0,0,0,133.1,9.325,8.809,8.809,0,0,0,136.631,12.822Zm18.953-.4c.954,1.073,2.583,1.589,4.848,1.589a12.02,12.02,0,0,0,3.7-.556l-.6-4.093a7.035,7.035,0,0,1-1.629.2,2.015,2.015,0,0,1-1.589-.517,2.317,2.317,0,0,1-.517-1.709V-1.006h4.331V-5.178H159.8v-4.848h-5.324v4.848h-3.854v4.172h3.536V7.617A6.885,6.885,0,0,0,155.585,12.424Zm10.331-17.6V13.616h5.6V-5.178Zm.556-7.748a2.969,2.969,0,0,0-.914,2.185,2.969,2.969,0,0,0,.914,2.185,2.964,2.964,0,0,0,2.225.874,3.146,3.146,0,0,0,2.3-.874,2.935,2.935,0,0,0,.874-2.185A2.935,2.935,0,0,0,171-12.926a3.146,3.146,0,0,0-2.3-.874A2.964,2.964,0,0,0,166.472-12.926Zm11.563,25.708a10.488,10.488,0,0,0,5.245,1.311,10.532,10.532,0,0,0,5.285-1.311,9.105,9.105,0,0,0,3.616-3.536,10.191,10.191,0,0,0,1.272-5.006A10.233,10.233,0,0,0,192.18-.807a9.658,9.658,0,0,0-3.616-3.536,11.225,11.225,0,0,0-10.53,0,9.378,9.378,0,0,0-3.616,3.536,10.233,10.233,0,0,0-1.271,5.046,10.191,10.191,0,0,0,1.271,5.006A8.858,8.858,0,0,0,178.034,12.782ZM180.1,8.173a5.962,5.962,0,0,1-1.192-3.934A6.152,6.152,0,0,1,180.1.266a3.763,3.763,0,0,1,3.179-1.47,3.915,3.915,0,0,1,3.258,1.47,6.381,6.381,0,0,1,1.152,3.973,6.181,6.181,0,0,1-1.152,3.934,3.915,3.915,0,0,1-3.258,1.47A3.763,3.763,0,0,1,180.1,8.173ZM195.08-5.178V13.616h5.6V2.849a4.37,4.37,0,0,1,.954-3.02A3.292,3.292,0,0,1,204.219-1.2a2.891,2.891,0,0,1,2.384.954,4.03,4.03,0,0,1,.755,2.543V13.616h5.6V1.776a8.282,8.282,0,0,0-1.669-5.324,5.9,5.9,0,0,0-4.808-2.106,6.5,6.5,0,0,0-3.417.755,8.937,8.937,0,0,0-2.5,2.424v-2.7Zm44.1,18.516a6.928,6.928,0,0,0,2.861.556,9.66,9.66,0,0,0,3.139-.6l-.795-4.609c-.119.04-.358.119-.795.238a4.4,4.4,0,0,1-1.113.2,2.739,2.739,0,0,1-1.55-.477,8.346,8.346,0,0,1-1.748-1.589l-4.172-4.291h8.265V-1.2H231.159l-.675-.675a4.282,4.282,0,0,1-1.391-3.06,2.817,2.817,0,0,1,.874-2.185,3.041,3.041,0,0,1,2.146-.795,2.961,2.961,0,0,1,2.265.914,3.664,3.664,0,0,1,.834,2.5l5.563-.437A8.231,8.231,0,0,0,239.7-8.913a7.183,7.183,0,0,0-2.98-2.662,10.085,10.085,0,0,0-4.49-.954,10.786,10.786,0,0,0-4.49.914,7.516,7.516,0,0,0-3.1,2.662,7.032,7.032,0,0,0-1.152,3.934A6.946,6.946,0,0,0,225.278-.41,7.284,7.284,0,0,0,221.7,2.411a7.648,7.648,0,0,0-1.311,4.371,6.9,6.9,0,0,0,1.073,3.814,6.729,6.729,0,0,0,2.98,2.662,10.261,10.261,0,0,0,4.53.954,12.7,12.7,0,0,0,4.093-.6,13.9,13.9,0,0,0,3.735-2.106l.159.159A6.686,6.686,0,0,0,239.185,13.338ZM226.868,8.65a3.235,3.235,0,0,1-.993-2.464A3.638,3.638,0,0,1,226.51,4,3.4,3.4,0,0,1,228.3,2.769l5.245,5.4a6.163,6.163,0,0,1-3.973,1.47A3.6,3.6,0,0,1,226.868,8.65Zm26.105-20.582V13.616h9.894a15.308,15.308,0,0,0,7.152-1.629,11.8,11.8,0,0,0,4.768-4.49A12.962,12.962,0,0,0,276.456.862a13.259,13.259,0,0,0-1.669-6.715,11.8,11.8,0,0,0-4.768-4.49,15.3,15.3,0,0,0-7.152-1.589Zm9.814,21.059h-4.013V-7.443h4.013a7.248,7.248,0,0,1,5.642,2.185A8.817,8.817,0,0,1,270.416.822a8.855,8.855,0,0,1-1.987,6.119A7.248,7.248,0,0,1,262.787,9.127Zm19.39,3.7a10.9,10.9,0,0,0,5.245,1.271,10.389,10.389,0,0,0,5.841-1.629,6.983,6.983,0,0,0,3.02-4.371l-5.046-.517a2.984,2.984,0,0,1-1.271,1.748,4.719,4.719,0,0,1-5.523-.477,5.121,5.121,0,0,1-1.51-3.218H296.68c.04-.477.079-.993.079-1.55a10.517,10.517,0,0,0-1.192-5.046,8.569,8.569,0,0,0-3.377-3.457,10,10,0,0,0-5.046-1.232A10.125,10.125,0,0,0,282.1-4.383a8.965,8.965,0,0,0-3.5,3.5,10.429,10.429,0,0,0-1.272,5.126A10.214,10.214,0,0,0,278.6,9.365,8.82,8.82,0,0,0,282.177,12.822ZM291.4,2.292h-8.424a4.949,4.949,0,0,1,1.47-2.861,4.117,4.117,0,0,1,2.861-.993,3.852,3.852,0,0,1,2.781.993A5.062,5.062,0,0,1,291.4,2.292Zm4.887-7.47L303.4,13.616h6.04l7.112-18.794h-5.205l-4.53,13.351-4.49-13.351Zm24.6,18a10.9,10.9,0,0,0,5.245,1.271,10.389,10.389,0,0,0,5.841-1.629,6.983,6.983,0,0,0,3.02-4.371l-5.046-.517a2.984,2.984,0,0,1-1.272,1.748,4.719,4.719,0,0,1-5.523-.477,5.121,5.121,0,0,1-1.51-3.218h13.748c.04-.477.079-.993.079-1.55a10.517,10.517,0,0,0-1.192-5.046,8.568,8.568,0,0,0-3.377-3.457,10,10,0,0,0-5.046-1.232A10.125,10.125,0,0,0,320.8-4.383a8.965,8.965,0,0,0-3.5,3.5,10.43,10.43,0,0,0-1.271,5.126A10.214,10.214,0,0,0,317.3,9.365,8.82,8.82,0,0,0,320.878,12.822ZM330.1,2.292h-8.424a4.949,4.949,0,0,1,1.47-2.861A4.117,4.117,0,0,1,326-1.562a3.852,3.852,0,0,1,2.781.993A5.062,5.062,0,0,1,330.1,2.292Zm7.073-15.814V13.616h5.6V-13.522Zm12.159,26.3a10.488,10.488,0,0,0,5.245,1.311,10.532,10.532,0,0,0,5.285-1.311,9.106,9.106,0,0,0,3.616-3.536,10.191,10.191,0,0,0,1.271-5.006,10.233,10.233,0,0,0-1.271-5.046,9.659,9.659,0,0,0-3.616-3.536,11.225,11.225,0,0,0-10.53,0,9.378,9.378,0,0,0-3.616,3.536,10.233,10.233,0,0,0-1.271,5.046,10.191,10.191,0,0,0,1.271,5.006A8.858,8.858,0,0,0,349.328,12.782Zm2.066-4.609A5.962,5.962,0,0,1,350.2,4.239,6.152,6.152,0,0,1,351.394.266a3.763,3.763,0,0,1,3.179-1.47,3.915,3.915,0,0,1,3.258,1.47,6.382,6.382,0,0,1,1.152,3.973,6.182,6.182,0,0,1-1.152,3.934,3.915,3.915,0,0,1-3.258,1.47A3.763,3.763,0,0,1,351.394,8.173Zm14.98-13.351V20.689h5.6v-9.1a17.962,17.962,0,0,0,1.709,1.43,5.419,5.419,0,0,0,1.669.755,8.143,8.143,0,0,0,2.424.318,8.023,8.023,0,0,0,4.371-1.271,8.693,8.693,0,0,0,3.1-3.536,10.961,10.961,0,0,0,1.113-5.046,11.578,11.578,0,0,0-1.113-5.245,8.723,8.723,0,0,0-3.1-3.457,8.523,8.523,0,0,0-4.49-1.192,6.766,6.766,0,0,0-2.344.358,6.584,6.584,0,0,0-1.669.954,21.4,21.4,0,0,0-1.788,1.709V-5.178Zm6.6,13.351a5.9,5.9,0,0,1-1.232-3.934A5.945,5.945,0,0,1,372.97.266a3.889,3.889,0,0,1,3.218-1.47,4.132,4.132,0,0,1,3.3,1.43A6.151,6.151,0,0,1,380.678,4.2a6,6,0,0,1-1.192,3.973,4.044,4.044,0,0,1-3.3,1.47A3.889,3.889,0,0,1,372.97,8.173ZM388.029-5.178V13.616h5.6V2.61a4.15,4.15,0,0,1,.914-2.821,3.151,3.151,0,0,1,2.5-.993,2.6,2.6,0,0,1,2.185.874,3.706,3.706,0,0,1,.715,2.384V13.616h5.6V2.61a4.15,4.15,0,0,1,.914-2.821,3.151,3.151,0,0,1,2.5-.993,2.6,2.6,0,0,1,2.185.874,3.706,3.706,0,0,1,.715,2.384V13.616h5.6V1.577A8.018,8.018,0,0,0,415.8-3.628a5.8,5.8,0,0,0-4.728-2.026,7.082,7.082,0,0,0-3.775.874A7.44,7.44,0,0,0,404.8-2.2a5.549,5.549,0,0,0-5.523-3.457,6.434,6.434,0,0,0-3.377.795,8.661,8.661,0,0,0-2.384,2.424V-5.178Zm35.641,18a10.9,10.9,0,0,0,5.245,1.271,10.389,10.389,0,0,0,5.841-1.629,6.983,6.983,0,0,0,3.02-4.371l-5.046-.517a2.984,2.984,0,0,1-1.271,1.748,4.719,4.719,0,0,1-5.523-.477,5.121,5.121,0,0,1-1.51-3.218h13.748c.04-.477.079-.993.079-1.55a10.517,10.517,0,0,0-1.192-5.046,8.568,8.568,0,0,0-3.377-3.457,10,10,0,0,0-5.046-1.232,10.125,10.125,0,0,0-5.046,1.271,8.964,8.964,0,0,0-3.5,3.5,10.429,10.429,0,0,0-1.272,5.126,10.214,10.214,0,0,0,1.272,5.126A8.82,8.82,0,0,0,423.67,12.822Zm9.218-10.53h-8.424a4.949,4.949,0,0,1,1.47-2.861,4.117,4.117,0,0,1,2.861-.993,3.852,3.852,0,0,1,2.781.993A5.062,5.062,0,0,1,432.888,2.292Zm7.073-7.47V13.616h5.6V2.849a4.37,4.37,0,0,1,.954-3.02A3.292,3.292,0,0,1,449.1-1.2a2.891,2.891,0,0,1,2.384.954,4.03,4.03,0,0,1,.755,2.543V13.616h5.6V1.776a8.282,8.282,0,0,0-1.669-5.324,5.9,5.9,0,0,0-4.808-2.106,6.505,6.505,0,0,0-3.417.755,8.938,8.938,0,0,0-2.5,2.424v-2.7Zm23.483,17.6c.954,1.073,2.583,1.589,4.848,1.589a12.02,12.02,0,0,0,3.7-.556l-.6-4.093a7.035,7.035,0,0,1-1.629.2,2.015,2.015,0,0,1-1.589-.517,2.316,2.316,0,0,1-.517-1.709V-1.006h4.331V-5.178h-4.331v-4.848h-5.324v4.848h-3.854v4.172h3.536V7.617A6.885,6.885,0,0,0,463.444,12.424Z" transform="translate(153 92.567)" fill="#f99c1c"></path>
</svg>
