<?xml version="1.0" encoding="UTF-8"?>
<svg preserveAspectRatio="xMidYMid slice" width="30px" height="5px" xmlns="http://www.w3.org/2000/svg" id="Layer_1" data-name="Layer 1" viewBox="0 0 385.95 74.29">
  <defs>
    <style>
      .cls-1 {
        fill: #fff;
      }

      .cls-2 {
        fill: #f99c1c;
      }
    </style>
  </defs>
  <g>
    <path class="cls-2" d="M100.17,64.43c-1.57,0-2.96-.35-4.19-1.04-1.22-.7-2.18-1.66-2.87-2.88-.69-1.22-1.03-2.6-1.03-4.14,0-.94.13-1.82.4-2.64.26-.82.63-1.56,1.1-2.23s1.04-1.25,1.7-1.73c.66-.48,1.41-.85,2.23-1.1.82-.25,1.71-.38,2.65-.38,1.23,0,2.35.23,3.36.7,1.01.46,1.84,1.11,2.51,1.94.66.83,1.11,1.82,1.33,2.97l-3.43.26c-.19-.64-.47-1.18-.84-1.63-.37-.45-.8-.78-1.31-1.01-.5-.22-1.08-.33-1.71-.33-.51,0-.99.08-1.44.23-.45.15-.85.38-1.21.68-.36.3-.67.67-.92,1.09-.26.42-.45.9-.58,1.44-.13.54-.19,1.11-.19,1.72,0,1.04.18,1.95.54,2.72.36.78.87,1.38,1.52,1.82.66.44,1.41.66,2.25.66.64,0,1.22-.12,1.74-.36.52-.24.97-.59,1.34-1.04s.65-1,.83-1.62l3.43.41c-.27,1.12-.74,2.09-1.42,2.92s-1.5,1.46-2.49,1.91c-.99.45-2.1.67-3.31.67Z"></path>
    <path class="cls-2" d="M114.25,64.36c-1.22,0-2.28-.26-3.2-.79-.92-.53-1.64-1.24-2.15-2.15s-.77-1.91-.77-3.01c0-.85.15-1.63.44-2.35.3-.72.71-1.35,1.26-1.9.54-.54,1.19-.97,1.93-1.27.74-.3,1.57-.46,2.48-.46,1.23,0,2.31.26,3.23.79.92.53,1.63,1.24,2.15,2.14s.77,1.91.77,3.05c0,.83-.15,1.61-.44,2.33-.3.72-.72,1.35-1.26,1.89-.54.54-1.19.97-1.94,1.27-.75.3-1.58.46-2.49.46ZM114.25,61.67c.43,0,.81-.08,1.14-.23.33-.15.6-.37.83-.66s.4-.63.52-1.03c.12-.4.18-.85.18-1.34,0-.69-.11-1.27-.32-1.75s-.52-.86-.91-1.13c-.39-.27-.87-.41-1.43-.41-.4,0-.77.08-1.1.23-.34.15-.62.37-.84.66s-.4.63-.52,1.03-.18.86-.18,1.37c0,.66.1,1.23.31,1.71.21.49.51.87.91,1.14.4.27.87.41,1.42.41Z"></path>
    <path class="cls-2" d="M121.75,64.07v-11.35h3.31v1.63c.29-.4.59-.74.9-1.02.31-.28.68-.5,1.1-.66.42-.16.95-.24,1.57-.24.88,0,1.61.2,2.18.61.58.41,1.01.95,1.3,1.63.29.68.43,1.43.43,2.24v7.15h-3.38v-6.84c0-.58-.15-1.07-.44-1.49s-.78-.62-1.45-.62c-.45,0-.83.1-1.14.29-.31.19-.56.47-.73.83-.18.36-.26.8-.26,1.33v6.5h-3.38Z"></path>
    <path class="cls-2" d="M138.81,64.36c-1.63,0-2.86-.34-3.69-1.01-.83-.67-1.27-1.56-1.32-2.66l3.05-.24c.08.51.3.9.65,1.16.35.26.82.4,1.42.4.56,0,.98-.1,1.25-.31.27-.21.41-.49.41-.84s-.14-.65-.42-.84c-.28-.19-.67-.33-1.16-.41l-1.37-.22c-.74-.13-1.38-.33-1.92-.61s-.96-.65-1.25-1.1-.43-1.01-.43-1.67c0-.74.19-1.37.58-1.9.38-.53.93-.94,1.63-1.24.7-.3,1.53-.44,2.47-.44s1.77.14,2.47.43c.7.29,1.26.69,1.67,1.2s.63,1.1.66,1.78l-3.05.24c-.03-.29-.12-.52-.28-.71-.15-.18-.36-.33-.62-.43-.26-.1-.58-.16-.95-.16-.46,0-.82.08-1.08.24s-.38.39-.38.7c0,.34.13.59.4.77.26.18.59.3.97.36l1.87.31c1.04.16,1.86.53,2.46,1.1.6.58.9,1.34.9,2.3,0,.74-.19,1.39-.56,1.96-.38.57-.93,1.02-1.66,1.34-.73.33-1.63.49-2.7.49Z"></path>
    <path class="cls-2" d="M149.84,64.36c-.93,0-1.67-.15-2.23-.45-.56-.3-.96-.73-1.2-1.3-.24-.57-.36-1.28-.36-2.13v-5.23h-2.13v-2.52h2.23v-2.93h3.31v2.93h2.61v2.52h-2.61v5.08c0,.48.1.83.3,1.04.2.21.52.31.97.31.13,0,.28,0,.44-.02.17-.02.35-.05.54-.1l.36,2.47c-.4.13-.79.22-1.17.26s-.74.07-1.06.07Z"></path>
    <path class="cls-2" d="M153.39,64.07v-11.35h3.31v1.82c.22-.45.46-.83.71-1.14.25-.31.57-.55.97-.72.4-.17.92-.25,1.56-.25.16,0,.31,0,.44.01.14,0,.25.03.35.06v2.88c-.16-.03-.33-.06-.52-.08-.18-.02-.4-.04-.64-.04-.61,0-1.12.1-1.55.3-.42.2-.74.5-.95.91-.21.41-.31.94-.31,1.59v6h-3.38Z"></path>
    <path class="cls-2" d="M165.56,64.36c-.9,0-1.63-.2-2.21-.61-.58-.41-1-.95-1.28-1.63-.28-.68-.42-1.43-.42-2.24v-7.15h3.38v6.84c0,.58.14,1.07.42,1.49.28.42.75.62,1.4.62.45,0,.82-.1,1.13-.29.3-.19.54-.47.7-.84.16-.37.24-.81.24-1.32v-6.5h3.38v11.35h-3.31v-1.63c-.29.38-.58.72-.86,1.01-.29.29-.63.51-1.04.67-.41.16-.92.24-1.52.24Z"></path>
    <path class="cls-2" d="M179.68,64.36c-1.17,0-2.21-.26-3.12-.77-.91-.51-1.62-1.22-2.13-2.11s-.77-1.92-.77-3.07c0-.88.15-1.68.44-2.41.3-.73.71-1.35,1.25-1.88.54-.53,1.17-.94,1.92-1.24.74-.3,1.56-.44,2.46-.44.99,0,1.87.16,2.63.47s1.39.79,1.88,1.43c.5.64.84,1.44,1.03,2.4l-3.09.24c-.16-.59-.44-1.05-.85-1.37-.41-.32-.92-.48-1.52-.48-.42,0-.79.08-1.13.23-.34.15-.62.36-.85.64-.23.27-.41.61-.53,1.02-.12.41-.18.88-.18,1.4,0,.67.11,1.25.32,1.74.22.49.52.86.91,1.13.39.26.87.4,1.43.4.64,0,1.16-.16,1.56-.47.4-.31.68-.8.84-1.45l3.14.22c-.24,1.36-.86,2.43-1.85,3.21-.99.78-2.25,1.18-3.79,1.18Z"></path>
    <path class="cls-2" d="M191.32,64.36c-.93,0-1.67-.15-2.23-.45-.56-.3-.96-.73-1.2-1.3-.24-.57-.36-1.28-.36-2.13v-5.23h-2.13v-2.52h2.23v-2.93h3.31v2.93h2.61v2.52h-2.61v5.08c0,.48.1.83.3,1.04.2.21.52.31.97.31.13,0,.28,0,.44-.02.17-.02.35-.05.54-.1l.36,2.47c-.4.13-.79.22-1.17.26s-.74.07-1.06.07Z"></path>
    <path class="cls-2" d="M196.55,51.21c-.56,0-1.02-.18-1.37-.55-.35-.37-.53-.81-.53-1.33s.18-.96.53-1.32.81-.55,1.37-.55,1.02.18,1.38.55c.36.36.54.81.54,1.32s-.18.96-.54,1.33c-.36.36-.82.55-1.38.55ZM194.87,64.07v-11.35h3.38v11.35h-3.38Z"></path>
    <path class="cls-2" d="M205.73,64.36c-1.22,0-2.28-.26-3.2-.79-.92-.53-1.63-1.24-2.15-2.15s-.77-1.91-.77-3.01c0-.85.15-1.63.44-2.35s.72-1.35,1.26-1.9c.54-.54,1.19-.97,1.93-1.27.74-.3,1.57-.46,2.48-.46,1.23,0,2.31.26,3.23.79.92.53,1.64,1.24,2.15,2.14s.77,1.91.77,3.05c0,.83-.15,1.61-.44,2.33s-.72,1.35-1.26,1.89-1.19.97-1.94,1.27-1.58.46-2.49.46ZM205.73,61.67c.43,0,.81-.08,1.14-.23.33-.15.6-.37.83-.66.22-.29.4-.63.52-1.03.12-.4.18-.85.18-1.34,0-.69-.11-1.27-.32-1.75-.22-.48-.52-.86-.91-1.13-.39-.27-.87-.41-1.43-.41-.4,0-.77.08-1.1.23-.34.15-.62.37-.84.66s-.4.63-.52,1.03-.18.86-.18,1.37c0,.66.1,1.23.31,1.71.21.49.51.87.91,1.14.4.27.87.41,1.42.41Z"></path>
    <path class="cls-2" d="M213.24,64.07v-11.35h3.31v1.63c.29-.4.59-.74.9-1.02.31-.28.68-.5,1.1-.66.42-.16.95-.24,1.57-.24.88,0,1.61.2,2.18.61.58.41,1.01.95,1.3,1.63s.43,1.43.43,2.24v7.15h-3.38v-6.84c0-.58-.15-1.07-.44-1.49s-.78-.62-1.45-.62c-.45,0-.83.1-1.14.29-.31.19-.56.47-.73.83-.18.36-.26.8-.26,1.33v6.5h-3.38Z"></path>
    <path class="cls-2" d="M234.47,64.41c-1.06,0-1.97-.19-2.75-.57-.78-.38-1.38-.91-1.8-1.59-.42-.68-.64-1.44-.64-2.3,0-.67.12-1.28.37-1.85s.6-1.06,1.04-1.49c.45-.43,1-.77,1.64-1.01s1.38-.37,2.2-.37l.46,2.18c-.48,0-.9.09-1.26.26-.36.17-.64.42-.84.75s-.3.72-.3,1.17c0,.38.09.73.26,1.04s.43.57.77.75.74.27,1.2.27c.51,0,1.01-.11,1.49-.32.48-.22.96-.56,1.44-1.02l1.92,2.09c-.61.51-1.18.92-1.73,1.21-.54.3-1.09.5-1.64.62-.55.12-1.16.18-1.83.18ZM242.36,64.24c-.46,0-.88-.06-1.25-.17-.37-.11-.7-.27-.98-.46-.29-.2-.57-.43-.84-.7l-6.79-6.94c-.43-.45-.76-.92-1-1.43s-.35-1.06-.35-1.65c0-.7.13-1.32.4-1.87.26-.55.63-1.02,1.1-1.42s1.03-.7,1.67-.91c.64-.21,1.34-.31,2.11-.31,1.04,0,1.94.19,2.71.58.77.39,1.36.92,1.79,1.59.42.68.64,1.46.66,2.34l-3.36.26c0-.4-.08-.75-.23-1.04-.15-.29-.36-.52-.64-.69-.27-.17-.61-.25-1.01-.25-.34,0-.64.07-.91.21-.27.14-.49.35-.66.62-.17.27-.25.59-.25.95s.08.7.24,1c.16.3.36.58.6.83l5.25,5.35c.42.44.76.76,1.04.95.28.19.6.29.95.29.16,0,.34-.03.54-.08.2-.06.4-.12.61-.18l.48,2.78c-.3.11-.62.2-.94.26-.32.06-.64.1-.96.1ZM235.43,57.55v-2.4h7.68v2.4h-7.68Z"></path>
    <path class="cls-2" d="M249.73,64.07v-15.42h5.97c1.65,0,3.09.32,4.32.96,1.23.64,2.19,1.54,2.87,2.7.68,1.16,1.02,2.51,1.02,4.07,0,.91-.12,1.76-.37,2.55-.25.79-.61,1.5-1.09,2.13-.48.63-1.06,1.17-1.73,1.62-.67.45-1.43.79-2.28,1.03-.85.24-1.76.36-2.73.36h-5.97ZM255.65,61.36c.74,0,1.39-.11,1.96-.34.57-.22,1.05-.55,1.45-.98.4-.43.7-.96.9-1.57.2-.62.3-1.32.3-2.12,0-1.04-.18-1.94-.54-2.69-.36-.75-.88-1.32-1.57-1.72-.69-.39-1.52-.59-2.49-.59h-2.42v10h2.42Z"></path>
    <path class="cls-2" d="M270.91,64.36c-1.2,0-2.25-.25-3.17-.76-.91-.5-1.63-1.2-2.15-2.1s-.78-1.93-.78-3.09c0-.86.14-1.66.43-2.39s.7-1.36,1.24-1.91c.54-.54,1.16-.96,1.88-1.25s1.51-.43,2.38-.43,1.67.14,2.39.43,1.32.7,1.83,1.22c.51.53.9,1.15,1.18,1.87.27.72.41,1.5.41,2.35,0,.19,0,.37-.01.53,0,.16-.02.3-.04.41h-9.64v-2.02h7.77l-1.27.77c0-.69-.1-1.26-.3-1.72-.2-.46-.49-.8-.86-1.03-.38-.23-.83-.35-1.36-.35-.43,0-.82.08-1.16.23-.34.15-.63.37-.85.65-.22.28-.4.63-.52,1.06-.12.42-.18.92-.18,1.48,0,.77.11,1.42.34,1.94.22.53.55.93.98,1.21.43.28.94.42,1.54.42s1.08-.13,1.46-.4c.38-.26.64-.62.77-1.07l3.05.31c-.18.74-.51,1.38-1,1.92-.49.54-1.1.96-1.85,1.26-.74.3-1.58.44-2.51.44Z"></path>
    <path class="cls-2" d="M281.03,64.07l-4.29-11.35h3.65l3.19,9.47h-.96l3.21-9.47h3.14l-4.29,11.35h-3.65Z"></path>
    <path class="cls-2" d="M295.2,64.36c-1.2,0-2.25-.25-3.17-.76-.91-.5-1.63-1.2-2.15-2.1s-.78-1.93-.78-3.09c0-.86.14-1.66.43-2.39s.7-1.36,1.24-1.91c.54-.54,1.16-.96,1.88-1.25s1.51-.43,2.38-.43,1.67.14,2.39.43,1.32.7,1.83,1.22c.51.53.9,1.15,1.18,1.87.27.72.41,1.5.41,2.35,0,.19,0,.37-.01.53,0,.16-.02.3-.04.41h-9.64v-2.02h7.77l-1.27.77c0-.69-.1-1.26-.3-1.72-.2-.46-.49-.8-.86-1.03-.38-.23-.83-.35-1.36-.35-.43,0-.82.08-1.16.23-.34.15-.63.37-.85.65-.22.28-.4.63-.52,1.06-.12.42-.18.92-.18,1.48,0,.77.11,1.42.34,1.94.22.53.55.93.98,1.21.43.28.94.42,1.54.42s1.08-.13,1.46-.4c.38-.26.64-.62.77-1.07l3.05.31c-.18.74-.51,1.38-1,1.92-.49.54-1.1.96-1.85,1.26-.74.3-1.58.44-2.51.44Z"></path>
    <path class="cls-2" d="M302.26,64.07v-16.38h3.38v16.38h-3.38Z"></path>
    <path class="cls-2" d="M313.15,64.36c-1.22,0-2.28-.26-3.2-.79-.92-.53-1.63-1.24-2.15-2.15s-.77-1.91-.77-3.01c0-.85.15-1.63.44-2.35s.72-1.35,1.26-1.9c.54-.54,1.19-.97,1.93-1.27.74-.3,1.57-.46,2.48-.46,1.23,0,2.31.26,3.23.79.92.53,1.64,1.24,2.15,2.14s.77,1.91.77,3.05c0,.83-.15,1.61-.44,2.33s-.72,1.35-1.26,1.89-1.19.97-1.94,1.27-1.58.46-2.49.46ZM313.15,61.67c.43,0,.81-.08,1.14-.23.33-.15.6-.37.83-.66.22-.29.4-.63.52-1.03.12-.4.18-.85.18-1.34,0-.69-.11-1.27-.32-1.75-.22-.48-.52-.86-.91-1.13-.39-.27-.87-.41-1.43-.41-.4,0-.77.08-1.1.23-.34.15-.62.37-.84.66s-.4.63-.52,1.03-.18.86-.18,1.37c0,.66.1,1.23.31,1.71.21.49.51.87.91,1.14.4.27.87.41,1.42.41Z"></path>
    <path class="cls-2" d="M320.66,68.34v-15.62h3.31v1.54c.35-.35.68-.66.98-.94.3-.27.66-.49,1.06-.65.4-.16.89-.24,1.46-.24,1.02,0,1.93.24,2.72.73.79.49,1.41,1.18,1.86,2.08.45.9.67,1.95.67,3.17,0,.69-.09,1.34-.26,1.94-.18.61-.42,1.16-.72,1.64-.3.49-.67.91-1.1,1.27-.43.36-.91.63-1.43.82s-1.08.28-1.67.28c-.62,0-1.13-.06-1.52-.19-.39-.13-.74-.31-1.03-.54-.3-.23-.61-.49-.95-.78v5.49h-3.38ZM326.58,61.67c.42,0,.79-.08,1.13-.23.34-.15.62-.37.85-.65.23-.28.41-.62.54-1.02.13-.4.19-.86.19-1.39,0-1.02-.24-1.82-.73-2.4-.49-.58-1.15-.86-1.98-.86-.42,0-.78.08-1.1.23-.32.15-.6.37-.84.66s-.42.63-.55,1.03-.19.86-.19,1.37c0,1.01.24,1.8.73,2.39.49.58,1.14.88,1.96.88Z"></path>
    <path class="cls-2" d="M334.11,64.07v-11.35h3.31v1.65c.27-.4.56-.74.85-1.02.3-.28.66-.5,1.08-.67.42-.17.94-.25,1.55-.25.85,0,1.54.19,2.09.56.54.38.96.88,1.25,1.52.26-.4.55-.76.88-1.07.33-.31.73-.56,1.2-.74.47-.18,1.04-.28,1.71-.28.86,0,1.58.2,2.15.59.57.39,1,.92,1.28,1.58s.43,1.4.43,2.19v7.27h-3.38v-6.98c0-.56-.14-1.03-.41-1.4-.27-.38-.72-.56-1.34-.56s-1.12.2-1.5.61c-.38.41-.56.97-.56,1.69v6.64h-3.38v-6.98c0-.56-.14-1.03-.41-1.4-.27-.38-.72-.56-1.34-.56-.42,0-.78.09-1.09.28-.31.18-.55.45-.72.79s-.25.76-.25,1.24v6.64h-3.38Z"></path>
    <path class="cls-2" d="M359.18,64.36c-1.2,0-2.25-.25-3.17-.76-.91-.5-1.63-1.2-2.15-2.1s-.78-1.93-.78-3.09c0-.86.14-1.66.43-2.39s.7-1.36,1.24-1.91c.54-.54,1.16-.96,1.88-1.25s1.51-.43,2.38-.43,1.67.14,2.39.43,1.32.7,1.83,1.22c.51.53.9,1.15,1.18,1.87.27.72.41,1.5.41,2.35,0,.19,0,.37-.01.53,0,.16-.02.3-.04.41h-9.64v-2.02h7.77l-1.27.77c0-.69-.1-1.26-.3-1.72-.2-.46-.49-.8-.86-1.03-.38-.23-.83-.35-1.36-.35-.43,0-.82.08-1.16.23-.34.15-.63.37-.85.65-.22.28-.4.63-.52,1.06-.12.42-.18.92-.18,1.48,0,.77.11,1.42.34,1.94.22.53.55.93.98,1.21.43.28.94.42,1.54.42s1.08-.13,1.46-.4c.38-.26.64-.62.77-1.07l3.05.31c-.18.74-.51,1.38-1,1.92-.49.54-1.1.96-1.85,1.26-.74.3-1.58.44-2.51.44Z"></path>
    <path class="cls-2" d="M366.23,64.07v-11.35h3.31v1.63c.29-.4.59-.74.9-1.02.31-.28.68-.5,1.1-.66.42-.16.95-.24,1.57-.24.88,0,1.61.2,2.18.61.58.41,1.01.95,1.3,1.63s.43,1.43.43,2.24v7.15h-3.38v-6.84c0-.58-.15-1.07-.44-1.49s-.78-.62-1.45-.62c-.45,0-.83.1-1.14.29-.31.19-.56.47-.73.83-.18.36-.26.8-.26,1.33v6.5h-3.38Z"></path>
    <path class="cls-2" d="M383.72,64.36c-.93,0-1.67-.15-2.23-.45-.56-.3-.96-.73-1.2-1.3-.24-.57-.36-1.28-.36-2.13v-5.23h-2.13v-2.52h2.23v-2.93h3.31v2.93h2.61v2.52h-2.61v5.08c0,.48.1.83.3,1.04.2.21.52.31.97.31.13,0,.28,0,.44-.02.17-.02.35-.05.54-.1l.36,2.47c-.4.13-.79.22-1.17.26s-.74.07-1.06.07Z"></path>
  </g>
  <path class="cls-1" d="M131.81,17.27v3.58c.71-1.46,1.51-2.49,2.4-3.15s2.21-.99,3.95-.99c.61,0,1.13.05,1.55.14v5.65c-.71-.14-1.46-.24-2.26-.24-1.84,0-3.25.42-4.14,1.32-.89.89-1.36,2.26-1.36,4.19v11.77h-6.64v-22.27h6.5Z"></path>
  <path class="cls-1" d="M162.04,22.45c-1.04-1.74-2.45-3.15-4.28-4.19-1.84-1.04-3.91-1.55-6.26-1.55s-4.38.52-6.21,1.55c-1.84,1.04-3.29,2.45-4.28,4.19-.99,1.79-1.51,3.77-1.51,5.98s.52,4.14,1.51,5.93c.99,1.79,2.45,3.2,4.28,4.19,1.84,1.04,3.91,1.55,6.21,1.55s4.43-.52,6.26-1.55c1.84-.99,3.25-2.4,4.28-4.19.99-1.79,1.51-3.77,1.51-5.93s-.52-4.19-1.51-5.98M155.35,33.09c-.94,1.18-2.21,1.74-3.86,1.74s-2.87-.57-3.77-1.74c-.94-1.13-1.41-2.68-1.41-4.66s.47-3.53,1.41-4.71c.9-1.18,2.17-1.74,3.77-1.74s2.92.56,3.86,1.74c.89,1.18,1.37,2.73,1.37,4.71s-.47,3.53-1.37,4.66"></path>
  <path class="cls-1" d="M164.69,32.9l5.98-.47c.14.99.57,1.74,1.27,2.26.71.52,1.6.8,2.78.8,1.08,0,1.88-.19,2.45-.61.52-.42.8-.94.8-1.65s-.24-1.22-.75-1.65c-.52-.38-1.32-.66-2.35-.8l-2.68-.42c-2.26-.38-4-1.13-5.23-2.21s-1.84-2.59-1.84-4.42c0-2.12.85-3.86,2.5-5.13,1.65-1.27,3.91-1.88,6.68-1.88s4.94.61,6.68,1.84c1.74,1.27,2.64,2.87,2.73,4.85l-5.98.47c-.09-.8-.47-1.46-1.08-1.88-.61-.42-1.46-.66-2.54-.66-.9,0-1.6.14-2.12.47-.52.33-.75.75-.75,1.37,0,1.18.89,1.93,2.68,2.21l3.67.61c2.07.33,3.67,1.08,4.85,2.21,1.18,1.13,1.74,2.64,1.74,4.47,0,2.21-.85,4-2.54,5.37-1.69,1.37-4.05,2.07-7.11,2.07s-5.55-.66-7.2-1.93c-1.65-1.27-2.54-3.06-2.64-5.27"></path>
  <path class="cls-1" d="M208.78,22.4c-.89-1.79-2.12-3.2-3.67-4.19-1.55-.99-3.25-1.51-5.08-1.51-1.18,0-2.17.14-2.97.42s-1.51.66-2.02,1.08c-.52.47-1.18,1.13-1.98,2.02V7.38h-6.64v32.15h6.5v-2.68c.89.8,1.65,1.41,2.21,1.84.57.42,1.22.75,2.02.99.75.28,1.65.42,2.73.42,1.93,0,3.67-.47,5.23-1.46,1.55-.99,2.78-2.35,3.67-4.14.89-1.74,1.32-3.77,1.32-6.07s-.42-4.24-1.32-6.03M201.96,33.09c-.99,1.18-2.26,1.74-3.91,1.74s-2.87-.57-3.81-1.74c-.99-1.18-1.46-2.73-1.46-4.66s.47-3.53,1.46-4.71c.94-1.18,2.21-1.74,3.81-1.74s2.92.56,3.91,1.69c.94,1.18,1.41,2.73,1.41,4.71s-.47,3.58-1.41,4.71"></path>
  <polygon class="cls-1" points="208.85 17.27 216.05 17.27 220.95 30.03 225.89 17.27 232.43 17.27 219.72 47.92 213.32 47.92 217.6 38.03 208.85 17.27"></polygon>
  <path class="cls-1" d="M116.33,26.96c-1.11,3.75-4.56,6.52-8.67,6.52-5.01,0-9.08-4.07-9.08-9.08s4.07-9.08,9.08-9.08c4.11,0,7.55,2.76,8.67,6.52h6.95c-1.23-7.53-7.74-13.28-15.62-13.28-8.75,0-15.84,7.09-15.84,15.84s7.09,15.84,15.84,15.84c7.88,0,14.39-5.75,15.62-13.28h-6.95Z"></path>
  <path class="cls-2" d="M79.18,60.3c-.18-.1-.4-.1-.57.01-7.53,4.86-17.45,7.82-28.32,7.82-23.23,0-42.12-13.5-42.63-30.3,0-.23-.01-.46-.01-.69s0-.46.01-.7c.51-16.8,19.4-30.3,42.63-30.3,13.18,0,24.96,4.35,32.78,11.18.44.39,1.1-.09.86-.63l-4.42-9.78-1.29-2.87c-.15-.33-.57-.43-.85-.2-.58.49-1.64,1.1-3.03.67h0c-7.15-2.88-15.34-4.52-24.06-4.52C22.52,0,0,16.63,0,37.15s22.52,37.15,50.29,37.15c13.23,0,25.26-3.77,34.24-9.94.33-.23.31-.72-.04-.92l-5.31-3.13Z"></path>
  <path class="cls-2" d="M71.07,40.48v-.16c-.68-.37-.81-1.3-.47-1.95-.39.01-.78,0-.85-.45-.02-.15.07-.3.06-.36-.05-.22-.62-.08-.81-.12-.19-.04-.16-.22-.25-.24-.11-.03-.46.03-.49,0-.03-.02-.01-.64.03-.71.08-.12.34-.04.44-.11.13-.09.08-.94.04-1.14-.02-.08-.25-.46-.28-.46h-1.52c-.09,0-.11-.19-.12-.27-.12-1.06.09-2.54-.08-3.59-.07-.43-.62-.56-.62-1.02.17-2.01-.29-4.27-.08-6.25.05-.46.27-.33.35-.5.14-.28-.04-.62-.04-.9,0-.28.07-1.19-.07-1.33-2.34-.85-4.66-1.54-7.14-1.84l-9.64,1.49c.02.4-.27,1.52-.04,1.79.1.11.31.12.28.35-.15.84-.13,1.72-.25,2.57-.09.66-.17,1.07-.77,1.45l-.17-2.29c-.08-.25-.67-.09-.69-.4-.11-1.21.16-2.72-.02-3.88-.12-.8-.95-1.85-1.23-2.63h-.23c-1.51.8.22,2.1.32,3.16.1,1.08-.09,2.32,0,3.42-.04.15-.72.13-.71.4l.08,3.01-5.08.15c.15-.41,1.61-1.81,1.64-2.07.03-.34-.65-1.21-1.09-.93l-2.62,3.08c-.5.3-1.27.02-1.8.3-.1.14-.05,1.06-.12,1.28-.04.11-.24.17-.34.29-.33.42-.65.75-.35,1.27l-1.13,1.3c-.12.57-.84.82-.6,1.43l-2.9,3.61s-4.89-.47-6.77-.65-3.52-.41-3.71-.26c-.39.32-.13,1.66-.12,2.14.09,2.44.2,4.89.31,7.34l-2.3,2.7,23.12,9.34,4.05-4.82c.2-.15.18-.72.2-1.01v-10.6l.99,10.31c.11-.01.21-.03.28-.04.87-.19,2.41-.96,3.15-1,.73-.04,1.81.61,2.51.63.18,0,.1-.23.3-.23.25,0,1.35.5,1.45.39l.08-.7c.05-.05,1.2.35,1.36.31.16-.05.16-.53.21-.7l1.17.23c.02-.1.06-.6.08-.62.09-.09,1.12.12,1.32.15l-.08-.47c.55-.06,1.33.52,1.17-.39l1.17.23v-.47c.16.07,1.03.22,1.09.16.02-.02-.02-.3,0-.39.3-.06.68.15.96.08.13-.03.07-.37.18-.4.22-.06.57.13.81.08v-.39c.33-.01.65.13.98.08.14-.02.1-.15.16-.16.45-.1.87.14.65-.63.09-.09.8.29.93.15.03-.03-.06-.31.13-.38.23-.08,1.22-.02,1.36-.12.17-.12-.02-.6.15-.71.15-.1.74.01.79-.03.06-.06-.11-1.28.33-1.54.08-.05.22,0,.29-.06.13-.09.06-1.54.21-1.9.06-.16.27-.16.42-.17v-.08c-.46-.29-.38-1.55-.22-1.98.04-.12.06-.24.22-.2ZM31.83,37.3l2.89-3.61c.2-.16.38-.05.51.12l-2.94,3.54-.46-.05ZM34.5,37.7l-1.2-.16,2.78-3.37v3.09l9.89,1.42-11.48-.98ZM58.91,30.59c0,.1-.05.19-.13.24l-1.34.46-1.07-2.84c-.07-.19.07-.39.27-.39h2c.16,0,.29.13.29.29v2.24ZM58.91,26.83c0,.16-.13.29-.29.29l-8.29.22c-.17,0-.31-.14-.3-.31l.29-4.54c0-.14.12-.26.26-.27l7.99-.94c.18-.02.33.12.33.29v5.25ZM62.13,33.54c0,.17-.15.31-.32.29l-1.75-.16c-.15-.01-.27-.14-.27-.29v-2.76c0-.17.15-.31.32-.29l1.75.16c.15.01.27.14.27.29v2.76ZM62.13,29.24c0,.17-.15.31-.32.29l-1.75-.16c-.15-.01-.27-.14-.27-.29v-7.42c0-.19.17-.33.36-.29l1.75.37c.14.03.23.15.23.29v7.2ZM65.51,29.56c0,.17-.15.31-.32.29l-1.88-.17c-.15-.01-.27-.14-.27-.29v-7c0-.19.17-.33.36-.29l1.88.4c.14.03.23.15.23.29v6.77Z"></path>
</svg>
