<?xml version="1.0" encoding="UTF-8"?>
<svg width="300px" height="246px" xmlns="http://www.w3.org/2000/svg" id="logo" viewBox="0 0 78.74 64.47">
  <defs>
    <style>
      .cls-1 {
        fill: #ed1c24;
        stroke-width: 0px;
      }
    </style>
  </defs>
  <path class="cls-1" d="M68.3,50.45c-.14-.08-.31-.08-.45,0-5.92,3.83-13.72,6.15-22.26,6.15-18.27,0-33.12-10.62-33.52-23.82,0-.18,0-.36,0-.55s0-.36,0-.55c.4-13.21,15.25-23.82,33.52-23.82,10.36,0,19.63,3.42,25.78,8.79.35.31.87-.08.68-.5l-3.47-7.69h0l-1.02-2.26c-.12-.26-.45-.34-.66-.15-.46.39-1.29.86-2.38.53h0c-5.62-2.26-12.06-3.55-18.92-3.55C23.75,3.03,6.04,16.11,6.04,32.24s17.71,29.21,39.55,29.21c10.4,0,19.86-2.97,26.92-7.81.26-.18.24-.56-.03-.72l-4.18-2.46Z"></path>
  <g>
    <path class="cls-1" d="M56.64,32.58c-.1.02-.21.05-.3-.03-.03,0-.06,0-.1,0-.25.13-.51.11-.77.09-.05,0-.09-.04-.09-.1,0-.06.04-.09.09-.1.13-.03.16-.13.14-.24-.02-.14-.12-.15-.24-.16-.22-.02-.44-.19-.66,0,0-.04-.02-.06-.01-.07.24-.36.17-.57-.24-.7-.05-.02-.1-.05-.09-.1,0-.06.07-.06.11-.06.13.01.25.07.36.08.33.05.55.17.68.5.04.1.16.22.31.28.4.17.65.02.63-.43-.01-.19-.01-.38-.02-.57h0c-.09-.01-.21.05-.25-.1-.01,0-.02-.01-.02-.02-.05-.05-.12-.09-.13-.17v-.08c-.06-.02-.09-.07-.14-.04-.1.07-.16.03-.2-.07-.05-.12.06-.12.12-.16.03-.02.06-.03.09-.04h0c.08-.23-.1-.36-.22-.5-.06-.07-.74.18-.77.29-.03.15-.13.21-.27.24-.12.03-.21.03-.32-.09-.21-.24-.62-.18-.88.11-.05.06-.08.15-.18.14-.04.12-.02.21.09.28.16-.01.3-.09.47-.09.08,0,.18-.06.19.06.01.14-.12.1-.19.1-.16,0-.32-.06-.47.04-.06.07-.08.15-.05.24.08,0,.21-.09.19.1.05.04.04.09.03.14-.1.19-.16.19-.32.01-.13,0-.19.08-.2.2-.01.17-.12.25-.27.31-.2.08-.4.17-.6.27-.13.06-.24.12-.39,0-.11-.08-.28-.01-.35.15-.08.21-.34.3-.54.2-.19-.1-.36-.06-.42.14-.03.09-.08.11-.15.12-.33.08-.67.13-1.01.15-.08,0-.18.04-.2-.07-.02-.11-.06-.23.05-.32.34-.27.61-.6.88-.94.15-.19.53-.16.66.05.21.33.45.38.66.13.08-.09.1-.19-.05-.21-.19-.03-.33-.18-.52-.2-.08,0-.1-.07-.1-.14,0-.08.05-.12.12-.13.09,0,.19-.03.26,0,.35.12.72.09,1.08.13.14.01.34,0,.11-.21-.03-.03-.04-.05,0-.08.09-.06.18-.14.29-.07.1.07.2.1.32.1.17,0,.22-.15.23-.27.01-.13-.1-.08-.18-.08-.08.05-.16.04-.24.01-.09.04-.17.03-.22-.07-.04-.09.03-.13.1-.15.03-.04.07-.05.11-.04.08,0,.16,0,.23-.04.13-.07.23-.03.31.08.05,0,.1-.02.11-.07.02-.16.12-.27.24-.38.13-.12-.04-.18-.07-.27-.19-.12-.2-.32-.26-.51-.06-.17-.02-.27.13-.34.22-.11.48-.16.7-.06.29.13.22-.33.46-.23,0,0,.04-.03.04-.05,0-.02-.01-.04-.02-.06-.12-.19-.05-.2.13-.17.16.02.31-.07.35-.24.03-.15,0-.38-.16-.39-.19-.01-.46-.15-.58.12-.1-.2-.23-.34-.43-.45-.15-.09-.46.11-.47-.26,0-.08-.1-.01-.16,0-.14.04-.3.16-.35-.11,0-.05-.06-.06-.1-.04-.11.06-.22-.02-.34-.01.02.06.03.09.04.13.05.1.16.18.15.3-.01.19-.2.09-.29.15-.04.03-.08.06-.12.08-.11.06-.22.14-.37.09.01-.1.22-.13.12-.25-.08-.1-.2-.16-.34-.16-.05,0-.09.02-.14.04-.11.04-.15,0-.17-.12-.05-.3-.21-.4-.51-.36-.05,0-.11.03-.15-.05.16-.19.37-.2.59-.19.77.05,1.53-.07,2.29-.19.17-.03.32-.05.47.03.13.07.25.06.38.03-.02-.1-.01-.19.08-.26.19-.17.15-.35-.08-.44-.12-.05-.23-.11-.37-.09-.15.02-.24-.13-.26-.24-.04-.26-.15-.44-.39-.54-.02,0-.03-.06-.04-.08-.01,0-.02-.02-.02-.03-.4.09-.65-.26-1-.32-.05,0-.11-.04-.14-.03-.24.15-.42-.01-.61-.1-.29-.12-.58-.18-.89-.16-.06,0-.18.03-.19-.06,0-.08.04-.17.09-.24.04-.06.12-.05.18-.01.25.14.55.11.79.29.13.09.16.06.15-.13,0-.03.02-.06.04-.09.1-.15,0-.18-.11-.2-.07-.01-.15-.01-.21-.05-.06-.04-.16-.12-.03-.18.16-.06.08-.17.09-.26-.07-.06-.13-.12-.2-.18-.2-.21-.42-.08-.56.04-.17.14-.18,0-.24-.07-.11-.11,0-.22.04-.31.04-.11.15-.07.23-.04.11.05.21.1.31,0,.06-.13.14-.25-.06-.34-.05-.02-.06-.08-.06-.13-.03-.23-.18-.29-.38-.29-.15,0-.3,0-.42-.09-.15-.11-.29-.07-.42.03-.18.12-.36.25-.55.36-.15.08-.3.1-.38-.11-.05-.13-.11-.13-.21-.02-.22.24-.34.25-.6.07-.05-.04-.1-.09-.16-.11-.21-.08-.08-.25-.09-.38,0-.12.14-.07.22-.08.14-.01.25-.04.09-.19-.06-.06-.08-.12-.03-.2.06-.09.12-.03.19-.02.18.04.46-.13.52-.29.04-.12-.1-.52-.2-.58-.03-.01-.07-.03-.09-.02-.17.09-.37-.03-.51.02-.25.09-.37-.06-.48-.19-.21-.25-.47-.28-.75-.25-.12.01-.17,0-.14-.13.02-.08.04-.17-.04-.22-.09-.06-.14.04-.21.07-.13.04-.32.18-.38.01-.09-.22-.18-.27-.38-.2-.03,0-.06-.01-.09-.02-.06-.01-.12-.09-.18-.02-.06.07.02.13.05.2.05.03.08.07.08.12.02.03.04.05.06.08.14.17.14.22-.02.34l-.32.03c-.13.2-.35.25-.56.3-.06.01-.14,0-.16-.07-.02-.08.06-.08.11-.1.07-.03.16-.04.17-.15.01-.12-.11-.1-.16-.15-.16-.13-.35-.13-.53-.06-.17.07-.24,0-.22-.16.01-.14-.08-.24-.13-.36-.03-.04-.06-.08-.09-.11-.03,0-.04,0-.04-.04h0s-.08,0-.1-.05h-.1c-.09.07-.2.1-.31.11-.07,0-.14,0-.15-.08,0-.08.05-.11.13-.11.18-.13.37-.19.59-.18.84.04,1.67,0,2.49-.17.09-.02.17-.04.26-.01.16.04.33,0,.47-.07.18-.1.34-.06.51,0,.08.03.16.09.24.11.13.03.34.07.35-.08.01-.21.12-.28.26-.37.02-.02.06-.07.05-.07-.15-.13.02-.27-.01-.4-.04,0-.08,0-.1-.04-.05,0-.09-.02-.14-.02-.21-.04-.39-.16-.62-.12-.14.02-.25-.18-.27-.33-.03-.31-.11-.56-.44-.65-.04-.01-.07-.06-.1-.1-.09-.14-.19-.2-.35-.09-.04.03-.11.06-.13.02-.13-.19-.38-.19-.53-.35-.14-.14-.39-.19-.53-.14-.34.14-.59-.02-.85-.14-.39-.17-.79-.23-1.21-.23-.08,0-.2.04-.22-.04-.02-.11.03-.24.1-.34.05-.08.16-.09.22-.04.17.15.38.12.57.17.17.04.32.13.47.21.14.07.28.1.43,0-.03-.14-.15-.04-.2-.11,0-.01-.01-.03,0-.04.25-.33.25-.33-.16-.4-.11-.02-.2-.07-.27-.15-.07-.07-.06-.14.04-.16.18-.03.19-.15.17-.29-.02-.02-.04-.04-.06-.06-.1-.03-.17-.08-.19-.19-.02-.02-.03-.04-.05-.06-.09,0-.15-.05-.2-.12-.03-.04-.09-.08-.13-.04-.13.16-.36.11-.48.28-.08.11-.08.07-.17-.04-.12-.14-.18-.25-.09-.44.09-.2.19-.24.37-.16.09.04.18.06.26.13.04-.02.09-.03.13-.05.04-.08.07-.16.11-.24.04-.09.03-.18-.08-.22-.2-.06-.19-.21-.17-.37-.06-.09-.11-.21-.24-.24-.2-.02-.4.04-.59-.05-.04,0-.07-.02-.11-.03-.05,0-.08-.01-.11-.05-.01,0-.02,0-.03-.02-.06,0-.1-.03-.12-.08-.04,0-.08-.01-.12-.02-.02.04-.06.05-.1.04-.07.04-.14.09-.21.13-.02.05-.06.08-.12.09,0,.01-.02.02-.03.02-.02.01-.04.03-.06.04,0,.01-.02.02-.03.02-.05.08-.13.14-.22.16,0,0,0,0,0,0-.13.15-.33.2-.5.29-.13.06-.2.01-.2-.14-.01,0-.01-.02-.01-.03-.05-.05-.05-.1-.04-.16-.04-.03-.08-.07-.12-.1-.11.02-.2.16-.32.03,0,0-.01-.01-.01-.01-.04,0-.06-.03-.07-.06-.03,0-.06,0-.09,0-.06.06-.1.04-.13-.02-.23-.04-.46-.01-.68-.15-.08-.05-.28-.08-.3.09-.03.28-.2.34-.43.4-.2.05-.38.05-.58.05-.11,0-.18.01-.22.14-.07.22-.24.29-.46.27-.08,0-.17-.03-.18.07-.04.31-.24.25-.44.21-.14-.03-.22.01-.23.17,0,.11-.07.16-.18.16-.17,0-.24.09-.21.25.03.19-.06.2-.21.18-.18-.02-.29.04-.31.25-.01.15-.01.29.01.44.04.27,0,.32-.27.32-.12,0-.25,0-.31.13-.02.05-.07.06-.12.07q-.38.08-.33.45c.04.29.03.3-.26.32-.11,0-.24-.01-.3.11-.06.13.01.24.08.34.07.1.15.17.27.23.2.09.41.19.51.42.04.08.04.24.14.23.24-.02.32.19.48.29.16.06.09.2.09.31,0,.08-.07.11-.16.08-.07.02-.13.02-.19-.01-.39-.07-.74-.24-1.07-.44-.15-.09-.3-.15-.47-.2-.12-.03-.19,0-.19.14,0,.15-.06.3.03.45.06.09.05.19-.11.2-.12,0-.21.06-.27.17-.08.15-.23.13-.37.15-.27.03-.35.14-.22.39.06.13.12.21-.06.3-.21.11-.04.29,0,.43.04.17.15.27.33.25.09,0,.22-.1.26.02.03.11-.14.1-.2.17-.05.06-.13.07-.2.03-.12,0-.24,0-.36,0-.07.05-.14.09-.21.14h0c-.25.12-.51.23-.79.28-.01,0-.02.01-.04.01-.03.03-.05.06-.08.09,0,.05,0,.1,0,.15.13.11.23.24.3.39h0c.15.06.3.12.37.29.06.15.17.12.29.07.1-.04.19-.09.29-.13.07-.02.17-.04.21.03.12.2.29.19.49.16.14-.03.26,0,.16.2-.02.03,0,.08,0,.12,0,0,.01,0,.01,0,.21-.02.42.05.63-.02.17-.16.41-.22.58-.39.07-.07.17-.05.22.05.03.02.06.04.09.06.16-.03.32.04.48,0,.15-.04.28-.02.33-.22.03-.12.25-.09.31.04.06.12.06.27-.03.34-.11.09-.27.22-.41.14-.13-.07-.24-.12-.28.04-.04.13.07.29.19.31.23.03.25.11.15.3-.05.09-.03.15.1.15.17,0,.34.08.51-.06.09-.08.18.04.24.11.06.07.01.13-.03.2-.09.13-.24.16-.38.21-.29.11-.58.26-.91.09-.06-.03-.14-.02-.22-.02-.19,0-.16.12-.12.23.06.16.01.22-.16.23-.18,0-.37,0-.51.18-.07.09-.2.02-.29-.02-.26-.12-.49.03-.73.07-.01,0-.03.02-.04.03-.09.11.04.65.18.7.08.03.17.05.23.12.05.06.11.11.17.18-.11.07-.24.1-.34.03-.2-.16-.39-.12-.59-.03,0,.01,0,.03-.01.04-.02.11,0,.23-.08.33-.17.23-.3.25-.56.09-.15-.09-.29-.17-.48-.1-.1.04-.22.01-.23.16,0,.14-.02.28.15.35.07.03.13.07.14.15.01,0,.01.02.01.03.1.12.2.23.34.31.04.02.08.04.07.09,0,.05-.05.05-.09.06q-.46.11-.31.53c.02.07.04.14.06.21h0c.21.19.54.21.7.47,0,0,0,0,0,0h.01c.07.03.1.08,0,.12h0c-.02.06-.06.08-.11.08,0,.01-.01.02-.02.02-.06.23.12.41.13.64,0,.08.16.06.26.02.12-.06.24-.08.38-.01-.04.05-.08.09-.11.14-.04.06-.13.13-.06.21.06.06.15.05.23.01.15-.07.3-.12.46-.1.02,0,.05,0,.07-.01.06-.06.24-.04.15-.23-.03-.06.07-.1.12-.12.11-.05.22-.1.33-.15.06-.03.11-.08.07-.16-.03-.06-.1-.12-.16-.07-.22.15-.44.01-.66.02-.05,0-.14,0-.13-.04.07-.24-.14-.27-.25-.39-.15-.16-.07-.37.14-.38.09,0,.15-.05.21-.1.12-.09.24-.17.4-.11.07.03.12-.02.18-.05.08-.05.16-.08.25-.02.03,0,.06.02.09.03.17,0,.33-.03.5-.02.18,0,.38-.01.48.19.15.03.31.02.45-.03.03-.05.07-.07.13-.06.04-.02.08-.03.11-.05.1-.05.19-.12.17-.24-.02-.14-.15-.09-.24-.1-.12,0-.23-.02-.33-.07-.13-.07-.18-.26-.08-.29.19-.06.26-.2.39-.31.05-.04.14-.07.21-.03.19.11.35.07.5-.09.04-.05.1-.05.16-.01.05.04.02.08,0,.13-.05.1,0,.14.1.13.19-.01.39,0,.58-.05.17-.04.27.01.37.14.52.64,1.15,1.15,1.88,1.53.34.18.38.3.2.64-.08.16-.15.33.02.49.06.06.06.15.06.23,0,.2-.01.41,0,.61,0,.2.04.42-.32.36.24.15.29.36.29.58,0,.12.02.25,0,.37-.02.23.11.54-.31.59.28.07.29.26.28.47-.03.48-.07.96-.05,1.44.02.35.02.7-.02,1.05-.02.17-.05.34-.32.36.39.14.33.44.32.73-.03,1.23-.07,2.46-.1,3.69-.09,3.72-.24,9.43-.27,11.12,0,.04,0,.08,0,.11-2.03-.16-3.45-.35-3.49-.35-.31-.03-.37.11-.2.15,0,0,3.29,1.62,8.3,1.7,7.43.12,9.93-1.66,10.05-1.68.1-.04.2-.08.31-.11,0-.01,0-.02,0-.04,0-.02-.01-.03-.02-.04-.39.05-2.18.25-4.33.41-.14-1.94-.44-7.35-.44-7.71v-.53c-.07-.23-.06-.46-.04-.69v-.19s-.01-.05-.01-.05c0-.08,0-.16,0-.24-.03-.28-.06-.56-.02-.84,0-.27-.02-.55-.03-.82-.07-.42-.05-.85-.04-1.28,0-.18-.01-.35-.02-.53-.06-.31-.05-.62-.03-.93,0-.08,0-.16,0-.24-.03-.06-.02-.13,0-.2,0-.1,0-.19,0-.29-.04-.11-.07-.22.05-.31l.07-.09c-.07-.07-.11-.15-.11-.25,0-.25-.01-.49-.02-.74-.02-.42-.03-.84,0-1.26-.09-.19.12-.38-.02-.57-.01-.02.06-.07.11-.05.06,0,.11-.02.17-.03.06-.05.13-.04.2-.03.05,0,.09-.01.14-.02.07-.06.16-.06.25-.05.08-.02.16-.03.24-.05.03-.04.06-.04.11-.03.03,0,.06-.01.09-.02.21-.13.39-.08.57.06.01,0,.02,0,.03.02.17.08.05.24.1.35,0,0,0,0,0,0,.06,0,.09.09.15.06.25-.13.5-.04.75,0,.04-.2.18-.12.3-.1.09-.09.19-.17.28-.26,0-.01,0-.02.01-.03.05-.15.2-.18.31-.25.07-.04.24-.07.16-.19-.07-.09-.17-.24-.33-.2-.23.06-.4-.12-.62-.09.14-.11.27-.2.43-.22,0,0,.02-.01.03-.01.17-.17.37-.14.57-.08.05,0,.1.01.14.05.12.08.31-.03.39.15h0c.09.03.13.1.17.18.01,0,.02,0,.03.01.2,0,.31.13.42.28.03.04.08.07.04.12-.04.05-.09.05-.15.02-.07-.03-.15-.06-.22-.09-.03,0-.06.01-.09.02-.03.03-.06.07-.1.1-.12.1-.41.16-.05.34.03.01.05.05.03.08-.04.06-.1.04-.15.02-.2-.08-.4-.05-.6-.04v.14s.09.06.14.1c.12.03.24-.04.35.03.09.02.12.08.14.16h0c.07.02.09.08.11.13.01,0,.02,0,.03,0,.09,0,.18-.03.26.04.16.04.32.03.47.1.11.05.22,0,.27-.13.05-.15.14-.29.2-.44.12-.32.36-.39.66-.23.1.05.2.12.32.1.08,0,.18,0,.21-.08.03-.1-.09-.1-.14-.14-.05-.04-.13-.06-.1-.14.03-.09.11-.05.17-.03.2.07.37,0,.53-.12.11-.07.13-.17-.02-.24ZM33.16,21.17c-.16,0-.14-.11-.15-.22.01-.06-.02-.18.08-.15.1.04.26.05.28.19.01.12-.1.17-.21.18ZM35.52,25.43c-.13.03-.26.02-.37-.06-.12-.09-.18-.23-.2-.38-.01-.12.05-.23.14-.3.09-.07.16.04.23.09.17.11.28.25.25.47,0,.07.04.16-.05.19ZM49.64,31.7c-.13.13-.28.25-.42.36-.06.05-.13.13-.21.08-.08-.04-.03-.15-.06-.23.03-.28.2-.44.44-.55.19-.09.38-.17.6-.15-.03.23-.21.35-.35.49ZM48.94,31.25c0-.14.06-.26.22-.27.1,0,.21,0,.26.15-.09.13-.24.16-.37.21-.06.02-.11-.02-.11-.09ZM50.67,28.16c.04.12.2.08.3.11.07.02.15.02.13.13-.01.08-.05.14-.14.14-.1,0-.21.02-.31-.02-.04-.02-.08-.03-.1.02-.03.05,0,.1.04.12.06.03.12.06.18.05.24-.02.49.02.73.02.02,0,.04,0,.05-.01.12-.02.2.05.29.09.08.05.07.1,0,.15-.05.03-.1.03-.15,0-.1,0-.2,0-.29-.01h-.02s-.02,0-.02,0c-.02,0-.03,0-.05,0-.14-.03-.26,0-.32.14-.03.09-.09.11-.17.1-.31-.01-.62-.04-.91-.13-.14-.04-.21-.08-.06-.22.24-.21.43-.47.62-.72.06-.08.13-.2.2.01ZM51.96,26.06s0-.02,0-.02c.02-.11.02-.23.16-.27.02,0,.07.01.08.03.05.12-.08.18-.11.27.12-.02.25.01.29-.17.03-.11.37-.13.43-.02.09.16.22.18.39.14-.04.14-.11.22-.23.25-.48.12-.97.18-1.47.15-.1,0-.23,0-.25-.1-.02-.1.12-.14.2-.18.15-.09.33-.07.5-.08ZM50.62,26.08c.01-.07.02-.14.03-.21.03-.14.13-.22.26-.19.12.02.22.06.34-.01.07-.04.16.02.19.1.03.09-.06.08-.11.12-.15.11-.29.19-.48.11-.05-.02-.08.03-.09.09.03.11.12.06.2.06-.14.25-.44.38-.72.32-.1,0-.12-.06-.09-.13.04-.12.13-.13.24-.1.11-.01.15-.11.24-.16ZM50.05,23.13c.14-.05.21.07.31.14.01.01.02.06.02.06-.15.11-.29.21-.45.33-.05,0-.1-.04-.13-.1-.04-.09.13-.38.26-.43ZM48.88,28.56c0-.21.05-.36.31-.28.11.04.2-.03.28-.11.16-.16.31-.34.54-.09.06.06.14,0,.25.04-.35.43-.76.71-1.24.9-.11.04-.15-.02-.14-.12,0-.11,0-.23,0-.34ZM49.01,29.42s.02-.02.03-.02c.02-.05.06-.06.11-.05,0,0,.02-.01.03-.01.02-.01.04-.03.06-.04l.06-.03c.08-.08.15-.19.28-.07.02,0,.05.02.07.03.02,0,.05.01.07.02.04.01.08.03.12.04.33.04.65.07.98.12.14.02.28.07.35.21.03,0,.06.01.09.02.08-.02.12.02.15.08.03.04.06.09.1.13.16.11.3.21.42-.05.04-.09.13-.1.21-.06.08.04.09.12.06.19-.03.08-.09.15-.19.11-.09-.04-.17-.01-.25.04-.09.07-.2.04-.3,0-.09-.04-.19-.02-.29-.02,0,0-.02.01-.03.01-.03.04-.06.06-.11.05,0,0-.02.01-.03,0-.2.11-.4.21-.64.11-.14-.06-.29,0-.43,0-.11,0-.36-.04-.18.22.03.04,0,.08-.04.1-.06.04-.06-.02-.08-.05-.02-.04-.05-.08-.08-.12-.03,0-.05,0-.08,0-.06.04-.04.18-.16.15-.11,0-.22,0-.33,0-.08.02-.09-.04-.09-.1,0-.29,0-.58-.01-.87,0-.1.02-.18.15-.17ZM48.21,28.81c.1-.1.05-.32.28-.35,0,.14,0,.27,0,.41,0,.07,0,.14-.09.14-.09,0-.21.04-.28-.03-.07-.08.05-.12.09-.16ZM48.23,29.35c.13-.01.2.06.22.16,0,.07-.02.13-.07.11-.1-.05-.26-.03-.29-.17-.02-.07.08-.09.14-.1ZM48.47,30.19c0,.15-.06.18-.18.1-.29-.2-.5-.47-.71-.76.5-.05.92.27.89.66ZM45.89,26.28c.1-.1.24-.04.39.02-.14.1-.46.12-.14.36-.12.07-.22.03-.26-.06-.05-.1-.06-.24.01-.32ZM46.87,27.41c-.08,0-.17,0-.19-.11-.02-.11.06-.14.14-.15.06-.01.14-.02.16-.05.11-.26.17-.07.24.02.07.08.09.14-.05.16-.11.01-.17.17-.3.13ZM46.34,23.92c.17-.32.49-.21.71-.33-.17.2-.4.29-.71.33ZM46.59,27.55c-.02.25-.24.17-.37.21-.08.03-.15.03-.17-.07-.03-.1.05-.12.12-.15.14-.06.28-.01.43,0ZM45.88,28.34c.08-.03.12.01.16.07.12.16.23.11.33-.02.06-.07.11-.19.23-.12.14.08.2.23.28.35-.01.08-.07.08-.11.06-.25-.12-.53.02-.79-.1-.07-.03-.14-.03-.16-.12-.01-.05,0-.1.06-.12ZM46.28,29.5c.19-.01.38.03.55-.11.04-.04.19-.06.24.08.03.12-.03.16-.13.19-.08.02-.15.07-.22.11-.07.04-.27-.01-.18.17.07.13.2.21.37.12.12-.07.17-.19.25-.29.12-.1.25-.06.38-.01.29.28.5.63.84.86.07.05.06.13.04.2-.02.1-.11.08-.18.07-.27-.01-.53-.04-.79-.1-.08-.02-.16-.03-.19-.15-.04-.14-.18-.11-.29-.08-.21.06-.4.1-.49-.19-.03-.11-.17-.13-.3-.08-.23.1-.37,0-.4-.23-.06-.52-.04-.53.48-.56ZM47.74,27.36s-.07.02-.11,0c-.11-.09-.22-.19-.31-.34.23-.01.3.16.42.27.02.01.01.07,0,.09ZM46.44,21.87c.23-.15.5-.07.75-.12.07-.01.22.06.22.15,0,.12-.13.12-.22.13-.27.02-.5.19-.57.44-.04.14.09.21.19.3-.16-.03-.23.29-.44.09-.02-.01-.05-.03-.07-.04,0,0-.02,0-.02-.01.03-.25-.11-.48-.1-.72,0-.12.16-.16.26-.23ZM45.62,22.38c.14-.01.23.06.28.19-.05.12-.15.15-.26.14-.13-.01-.25-.06-.25-.21,0-.18.14-.11.23-.12ZM44.74,30.36c.18-.11.35.07.51.16.07.04,0,.1-.03.14-.11.09-.07.15.03.22.13.08.21.61.11.73-.06.07-.4.07-.45-.01-.03-.04-.05-.09-.04-.13.01-.06.08-.04.12-.04.09,0,.18,0,.22-.14-.17,0-.32,0-.48,0-.07,0-.14,0-.1-.1.02-.05.15-.07.04-.15-.11-.07-.15-.26-.34-.19-.04.02-.09,0-.17.01.13-.27.38-.36.58-.49ZM45.34,32.28c0,.07-.04.15-.11.12-.12-.07-.31-.08-.35-.22-.03-.11.12-.12.21-.14.15,0,.23.1.25.24ZM44.29,32.24c.05-.1.16,0,.24.01.21.05.43.11.59.27.13.12.23.26.2.49,0,.03.05.14-.05.18-.08.03-.13-.04-.19-.09-.24-.19-.48-.39-.67-.63-.05-.07-.16-.14-.12-.22ZM45.36,29.46c.11.14.08.33.07.5,0,.04-.03.08-.08.07-.07-.01-.1-.07-.13-.13-.05-.1-.05-.26-.24-.19-.08,0-.19.06-.22-.08-.02-.13.09-.17.18-.18.14-.02.3-.13.41.02ZM45.11,26.2c-.11,0-.24-.07-.26.11,0,.04-.06.06-.1.04-.07-.03-.03-.07-.01-.12.14-.31.19-.28.37-.03ZM42.8,20.83c.07.03.06.11.04.18-.03.1.02.11.1.12.11.01.23.03.34.05.07.01.17,0,.17.13,0,.11-.03.21-.16.24-.16.04-.31.05-.45-.04-.06-.04-.1-.06-.15,0-.05.06-.02.13.03.17.11.08.23.11.38.07.2.02.42.03.64.06.21.03.43-.09.63.06.08.06.17.07.11.19-.05.1-.13.18-.23.11-.24-.16-.5.03-.75-.08-.12-.05-.19.09-.23.2-.04.14-.13.18-.27.17-.43-.04-.86-.1-1.27-.23-.13-.04-.19-.1-.05-.21.38-.3.67-.68.95-1.07.04-.05.07-.15.16-.11ZM42.84,28.43c-.07-.02-.14,0-.21.02-.24.12-.25.19-.02.36-.15.05-.26-.02-.37-.08-.06-.03-.12-.08-.19-.1-.28-.08-.29-.09-.12-.34.03-.05.06-.11.11-.21-.19.06-.39-.1-.49.17-.03.07-.13.03-.2.01-.03.01-.05,0-.06-.02-.02,0-.03,0-.04-.02-.05,0-.11,0-.16,0,0,.05-.01.1-.02.16.02.06,0,.09-.06.09-.06,0-.11-.02-.17,0-.35.07-.36.07-.34-.3,0-.16-.1-.44.26-.35.11,0,.21-.01.32-.02.1-.07.21-.07.32-.05.19-.05.38-.05.57,0,.07-.02.14-.04.2.01.38.01.75.03,1.13.04.06.01.06.04.03.09-.04.18-.2.29-.26.46-.02.06-.13.12-.23.1ZM42.88,30.95c-.16.26-.38.16-.58.14-.08,0-.1-.12-.06-.2.04-.08.12-.06.16,0,.14.17.29.21.48.08ZM40.45,23.47c-.14-.52.08-.82.57-.99.18-.06.31-.12.5-.04.44.18.91.22,1.39.23.14,0,.27.03.38.12.1.08.2.18.36.18.11,0,.22.11.24.22.01.13-.14.07-.2.11-.04.03-.09.05-.11.09-.26.34-.73.47-1.14.4-.28-.04-.6-.07-.86.05-.15.07-.33.16-.45.31-.16.2-.37.09-.56.09-.14,0-.09-.17-.1-.26,0-.16,0-.33,0-.49ZM41.03,18.82c-.15-.02-.21.09-.29.18-.08.1-.19.15-.32.12-.12-.03-.13-.13-.12-.22,0-.1,0-.21.08-.23.22-.06.4-.21.61-.27.12-.03.27-.03.26.15,0,.13,0,.3-.21.27ZM41.37,20.9c.2-.14.39-.31.6,0,.07.11.21,0,.36,0-.37.53-.85.86-1.38,1.14-.57.3-.5.28-.5-.31,0-.1,0-.2.01-.29.04-.28.11-.34.39-.26.17.05.28-.05.39-.14.05-.04.08-.1.13-.14ZM43.98,29.48s.03.03.06.07c-.2.09-.38.2-.59.16-.04,0-.09,0-.1-.05,0-.02.02-.06.03-.06.21,0,.38-.16.59-.12ZM43.82,25.4c-.11.07-.57.02-.69-.09.18-.14.42-.07.58-.21.06-.05.13.04.16.11.03.07.03.14-.05.19ZM41.79,25.76c.11-.29.65-.48.86-.32.1.08.14.17-.02.23-.05.02-.1.05-.14.04-.23-.04-.46.02-.7.05ZM42.05,27.17c.01.08-.06.09-.11.1-.22.03-.43.05-.65.08-.13.02-.11-.13-.19-.17.32.13.33.13.46-.19.02-.04.08-.07.08-.05.02.22.19.08.28.13.05.03.12.03.13.1ZM42.94,27.47s.11.02.11.08c0,.08-.07.08-.12.08-.24.02-.48.04-.73-.04.24-.08.47-.22.74-.12ZM40.72,24.81c.14-.05.29-.01.4.1.07.07.03.13-.05.17-.12.06-.25.11-.37.18-.16.09-.2,0-.21-.13,0-.17.11-.27.23-.32ZM40.99,25.34c.3-.17.63-.24,1.03-.31-.4.59-.86,1-1.38,1.35-.09.06-.12.02-.14-.08-.07-.43.1-.75.49-.96ZM43.54,29.83c.19,0,.18.19.28.26.05.04-.01.09-.02.08-.21-.12-.5.14-.67-.16.07-.19.24-.17.41-.18ZM43.44,30.87c-.06-.02-.04-.07-.01-.12.07-.12.04-.33.28-.28.02,0,.05,0,.07,0h0c.06,0,.13,0,.19,0,.11.02.13.1.06.17-.07.08-.16.14-.25.2-.11.08-.24.05-.35.02ZM44.23,18.23s.06-.01.09-.02c.02,0,.04,0,.05,0,.08,0,.16,0,.24,0,.07-.11.01-.26.13-.35.07-.06.13-.1.21-.05.11.06.02.13,0,.21-.01.08-.2.12-.05.23.09-.08.32.02.27-.24-.01-.06.12-.09.2-.09.12,0,.24,0,.36.01.06-.12-.1-.13-.11-.22.15-.05.22,0,.23.16,0,.07,0,.15.01.22.03,0,.05.02.06.05.15.12.32-.04.49.02-.05.1-.12.15-.19.21-.04.1-.12.13-.21.13-.03.05-.08.06-.14.04-.05,0-.09.02-.14.02-.06.06-.13.05-.2.04-.11.02-.23.03-.34.05-.08.03-.17.06-.25.03-.35.05-.71.05-1.06,0-.1.02-.24,0-.25-.07-.02-.1.1-.16.19-.2.04-.02.08-.05.12-.07.07-.09.18-.1.28-.09ZM42.89,16.6c.09-.01.15.05.15.15,0,.11-.02.21-.14.25-.1-.01-.15-.08-.14-.17,0-.1,0-.21.13-.23ZM42.88,17.97c0-.16.19-.32.36-.27.16.04.3.07.46-.02.12-.06.22.04.25.16.02.12-.05.16-.17.13-.06-.02-.09.02-.12.06-.11.12-.24.16-.4.11-.08-.02-.17-.06-.26,0,0,0,0,.05,0,.06.07.08.16.05.25.05.06,0,.14-.04.17.04.04.09-.04.12-.1.17-.24.2-.53.32-.84.35-.13.01-.3.02-.33-.16-.03-.19.1-.24.28-.24.24,0,.42-.18.43-.43ZM41.69,14.79c.08-.12.17-.24.26-.35.19-.21.35-.21.56-.02.04.04.08.1.08.15,0,.08-.08.06-.13.07-.15.02-.28.06-.32.24-.04.15-.18.14-.29.15-.08.02-.14,0-.18-.06-.05-.07,0-.13.03-.18ZM41.69,17.15c.08.11.17.26.03.39-.12.12-.45.12-.58,0-.08-.08-.15-.08-.23,0-.17.16-.22-.02-.29-.11-.04-.06,0-.11.07-.11.1,0,.19,0,.31,0,.16.02.32.03.47-.09.06-.05.11-.22.22-.08ZM41.24,15.61c.11.1.29.13.25.32-.02.08-.13.08-.19.06-.18-.09-.08-.24-.06-.37ZM40.26,16.71c.06-.12.17-.1.23-.06.23.17.39.03.55-.1.2-.17.23-.16.32.09.02.04.05.08.08.12.02.03.05.07.07.09,0,.1-.06.12-.13.1-.26-.07-.49,0-.73.08-.11.04-.23.01-.34-.07-.09-.08-.1-.15-.05-.25ZM39.66,15.08c.09,0,.16.07.17.18,0,.1-.08.14-.15.16-.12.02-.11-.09-.12-.16.02-.07,0-.18.11-.17ZM39.17,16.1c.14-.03.26-.07.39-.13.05-.02.09.01.09.09-.15.09-.11.23-.07.38,0,.03-.07.1-.11.07-.13-.08-.28-.13-.36-.27-.03-.05.01-.13.06-.14ZM38.22,17.05h0c.02-.09.04-.17.05-.26,0-.03.01-.06.02-.09-.02-.06-.05-.13.07-.14.03,0,.06,0,.08,0,.07-.01.1.01.1.08.05.06.04.13.05.2.03.2.12.33.35.28.07-.07.13-.14.2-.21.08-.07.19-.12.27-.07.14.1.26.23.46.16.04-.01.06.06.05.12-.02.09-.05.15-.15.16-.13.01-.26,0-.37-.09-.12-.09-.21-.07-.32.03-.14.13-.27.29-.49.27-.02.01-.05.02-.07.04-.13.1-.23.05-.32-.06-.17-.15-.35-.29-.52-.44,0-.06.04-.06.09-.06.06-.1.13-.08.18,0,.07.1.17.1.27.08ZM39.83,24.37c0,.19-.08.25-.26.27-.33.04-.59-.06-.81-.3-.06-.07-.11-.11-.08-.21.03-.11.11-.16.22-.16.15,0,.18-.05.14-.19-.1-.36-.04-.47.32-.62.12-.05.23-.09.08-.22-.01-.01-.02-.03-.02-.04-.05-.17.05-.45-.3-.38-.19.04-.36-.13-.57-.05-.22.09-.45.04-.66-.06-.13-.06-.16-.16-.11-.28.05-.11.1-.22.25-.14.09.04.18.03.22-.03.1-.15.25-.19.39-.25.15-.06.26-.2.46-.09.09.05.17-.06.25-.12.1-.1.23-.18.37-.12.15.06.12.22.12.34,0,.44,0,.88,0,1.32h-.02c0,.45,0,.9,0,1.34ZM39.73,18.99c-.15-.1-.29-.23-.51-.28.12-.11.22-.07.31-.07.19,0,.24-.11.15-.25-.09-.14-.16-.3-.31-.4-.06-.04-.15-.08-.1-.16.06-.09.19-.07.24-.01.11.11.21.22.36.27.05.02.06.07.06.13,0,.23,0,.45,0,.68,0,.16-.06.19-.2.1ZM37.32,14.24c.09-.06.19-.03.23.06.09.16.2.25.4.24.14,0,.17.17.23.27,0,.05-.01.09-.07.1-.29.06-.67-.16-.81-.47-.03-.07-.07-.15,0-.2ZM37.13,17.16c.2.06.4.11.59.2.16.08.19.25.21.41.02.15-.04.19-.17.19-.28,0-.39-.11-.41-.4-.02-.18-.18-.24-.33-.35.05-.02.09-.06.11-.05ZM37.89,19.58c0,.1-.06.18-.14.25-.08-.06-.16-.1-.16-.2,0-.11.1-.15.17-.18.08-.03.13.05.13.13ZM36.52,18.68s.04,0,.06,0c.03-.04.07-.06.12-.04.03,0,.05,0,.08,0,.19.08.37-.1.56,0,.04.04.09.08.13.12.06,0,.09.04.09.09.09.05.2.07.24.19,0,.02,0,.04,0,.06-.13.17-.31.23-.51.26-.06.03-.11.03-.15-.03-.02,0-.04,0-.04-.01.02-.24-.16-.29-.34-.35-.08.01-.14-.03-.21-.06-.03,0-.05,0-.08,0-.09.05-.25,0-.26.17-.01.17-.04.35.15.45.04.02.07.04.1.07.05.04.11.08.07.16-.04.07-.11.06-.17.05-.09-.01-.17-.07-.22-.14-.09-.13-.19-.27-.25-.41-.06-.13-.08-.28.12-.33.12-.03.2-.13.3-.2.07-.06.14-.12.23-.03ZM35.7,15.26c.17.16.31.22.42-.02.03-.05.07-.09.14-.04.05.04.06.09.03.15-.07.1-.12.21-.21.29-.09.09-.22.15-.27-.05-.03-.1-.17-.16-.11-.32ZM36.85,20.93c-.3.33-.67.51-1.13.45-.29-.04-.36-.12-.33-.43-.19.09-.38.12-.57.02.06-.1.15-.08.22-.07.21.02.23-.18.33-.28.04-.04-.02-.1-.07-.13-.06-.03-.12-.14-.21-.05-.13.12-.22.02-.24-.07-.03-.17-.29-.35-.01-.53.03-.02.02-.09.03-.14.01-.09.03-.17.14-.16.1,0,.18.06.18.16,0,.24.1.33.35.31.12-.01.16.1.17.2.01.09.05.16.13.19.12.04.09-.08.13-.13.08-.1.18-.13.3-.1.38.09.75.1,1.12-.04.17-.07.39-.12.41.19,0,.04.05.08.07.13.34-.02.67.09,1,.15.06.01.12.04.18.08.06.04.1.1.06.17-.04.06-.11.06-.15.03-.16-.1-.32-.19-.51-.04-.06.05-.11-.04-.15-.09-.05-.08-.11-.16-.21-.2-.03-.01-.08-.02-.11,0-.06.03-.02.08,0,.13.03.09.19.19.09.27-.09.07-.25.03-.36-.07-.11-.03-.22-.05-.33-.08-.21-.06-.37-.02-.52.15ZM37.39,26.11c.19-.14.33.14.51.07-.19.17-.35.13-.51-.07ZM39.67,27.76c-.39-.15-.77-.34-1.11-.58-.01,0-.02-.03-.02-.04-.01,0-.02,0-.02-.02-.08-.01-.13-.05-.16-.13h0c-.2-.09-.34-.25-.5-.39-.11-.1-.09-.16.05-.19.09-.02.18-.08.28-.07.03-.02.07-.04.1-.06.05-.27.2-.4.48-.35.01-.01.03-.03.04-.04.04-.26.06-.28.3-.19.1.04.17.04.27-.02.29-.17.42-.09.44.23.04.57-.05,1.14-.04,1.71,0,.07.02.18-.1.13ZM40.53,51.14c0-7.04-.07-10.32-.07-17.45,0-.15,0-.31,0-.46,0-.28-.02-.56.35-.78-.18,0-.27.02-.27-.14,0-.73-.02-1.47-.05-2.2,0-.2.06-.27.26-.26.16.01.3.07.43.16.05.03.11.09.08.14-.11.19,0,.46-.24.61-.08.05-.21.12-.12.27.14.07.21.18.2.34.05.07.1.13.19.05.03-.08.11-.11.18-.08.12.05.24.06.37.07.1,0,.19.07.17.19-.02.11-.11.11-.21.1-.08-.01-.16,0-.24-.02-.17-.05-.2.04-.17.17,0,0,.01.01.01.03.13.12.27.12.42.02.09-.06.17-.07.27,0,.15.09.16.15-.01.21-.01.14.09.13.18.14.1,0,.19,0,.29,0,.08-.07.18-.05.28-.05.16,0,.32.02.47-.08.07-.05.16-.01.24,0,.08,0,.15.02.15.12,0,.09-.03.15-.13.18-.2.08-.43.12-.59.29.31.33.49.32.72-.08.1-.18.48-.21.61-.03.24.33.5.64.81.9.08.07.09.15.08.24-.02.18-.08.35-.06.53.01.12-.1.1-.17.16.15.07.17.2.17.34,0,.65.04,1.31-.07,1.95-.06.33.08.6.07.92-.1,1.73-.35,10.69-.48,13.62-.03,0-.14.01-.18.01-1.37,0-2.74-.06-3.96-.14ZM45.75,51.25c-.02-2.12-.04-3.39-.01-5.78,0,0,0,0,0,0,.03-2.6.03-3.15.07-5.75,0-.17-.06-.37.16-.47.03-.01.05-.05.02-.08-.17-.17-.12-.39-.13-.59-.02-.49-.02-.98-.02-1.47,0-.13-.02-.26.06-.38.08-.12-.08-.18-.07-.3.02-.7.01-1.4.01-2.1,0-.13.04-.21.16-.27.27-.15.53-.31.79-.48.06-.04.19-.06.12-.17-.06-.09-.15-.03-.22,0-.21.12-.43.24-.63.37-.18.12-.22.05-.22-.13-.03-.73,0-1.45,0-2.18,0-.14.03-.26.21-.11.06.06.14.02.21,0,.09-.03.18-.04.26,0,.19.07.25,0,.29-.19.04-.22.24-.23.4-.21.38.07.74.18,1.13.19.11,0,.13.07.14.16.01.48.02.96,0,1.44,0,.17-.07.17-.2.09-.24-.15-.49-.29-.73-.44-.07-.04-.16-.07-.2,0-.05.1.06.11.11.15.28.17.55.35.83.51.13.07.18.16.18.31,0,.72.03,1.44-.02,2.15-.02.34.04.67,0,1-.03.35,0,.7-.02,1.05-.01.28.07.57-.14.81-.02.03,0,.07.02.08.25.12.17.35.17.54.01,1.47.16,8.14.21,12.13-.96.06-1.88.08-2.92.1ZM54.37,31.53c-.08.12-.15.27-.3.31-.06.02-.12-.04-.1-.1.05-.13.09-.29.29-.28.04.01.16,0,.11.06ZM54.51,32.66c-.11-.11-.12-.21.05-.28.15-.06.3-.04.45-.04.08,0,.16.07.15.13-.02.16.08.27.14.39-.33.14-.58.01-.8-.21Z"></path>
    <polygon class="cls-1" points="55.02 28.98 55.02 28.98 55.02 28.98 55.02 28.98"></polygon>
    <path class="cls-1" d="M54.87,28.97s-.03.01-.04.02c-.04.02-.08.04-.13.07-.08.08-.18.07-.28.05-.16.05-.2.25-.38.26-.05.06-.1.06-.15,0-.16-.03-.23.07-.3.19.02.07.02.15.08.2.24.21.56.16.84.22.05.01.09-.04.1-.09.02-.07-.03-.1-.09-.12-.05-.02-.1-.04-.09-.09.01-.07.08-.07.14-.07.07,0,.14.02.22.02.1,0,.23-.04.2-.12-.06-.22.14-.26.22-.38,0-.01,0-.03,0-.04-.08,0-.15-.02-.19-.1-.02,0-.03,0-.05-.01-.03,0-.06,0-.09,0Z"></path>
  </g>
</svg>
