
<svg {% if class is defined %}class="{{ class }}"{% endif %} version="1.1" viewBox="0 0 211.7 61">
  <defs>
    <style>
      .st0 {
        fill: #fff;
      }
    </style>
  </defs>
  <g id="Crosby">
    <g>
      <path class="st0" d="M60.2,14.9v5.4c1.1-2.2,2.3-3.8,3.6-4.7,1.3-1,3.3-1.5,6-1.5s1.7,0,2.3.2v8.5c-1.1-.2-2.2-.4-3.4-.4-2.8,0-4.9.6-6.2,2-1.3,1.3-2.1,3.4-2.1,6.3v17.7h-10V14.9h9.8Z"/>
      <path class="st0" d="M105.7,22.7c-1.6-2.6-3.7-4.7-6.5-6.3-2.8-1.6-5.9-2.3-9.4-2.3s-6.6.8-9.4,2.3c-2.8,1.6-5,3.7-6.5,6.3-1.5,2.7-2.3,5.7-2.3,9s.8,6.2,2.3,8.9c1.5,2.7,3.7,4.8,6.5,6.3,2.8,1.6,5.9,2.3,9.4,2.3s6.7-.8,9.4-2.3c2.8-1.5,4.9-3.6,6.5-6.3,1.5-2.7,2.3-5.7,2.3-8.9s-.8-6.3-2.3-9ZM95.7,38.7c-1.4,1.8-3.3,2.6-5.8,2.6s-4.3-.9-5.7-2.6c-1.4-1.7-2.1-4-2.1-7s.7-5.3,2.1-7.1c1.3-1.8,3.3-2.6,5.7-2.6s4.4.9,5.8,2.6c1.3,1.8,2.1,4.1,2.1,7.1s-.7,5.3-2.1,7Z"/>
      <path class="st0" d="M109.7,38.4l9-.7c.2,1.5.9,2.6,1.9,3.4,1.1.8,2.4,1.2,4.2,1.2s2.8-.3,3.7-.9c.8-.6,1.2-1.4,1.2-2.5s-.4-1.8-1.1-2.5c-.8-.6-2-1-3.5-1.2l-4-.6c-3.4-.6-6-1.7-7.9-3.3-1.8-1.6-2.8-3.9-2.8-6.7s1.3-5.8,3.8-7.7c2.5-1.9,5.9-2.8,10.1-2.8s7.4.9,10.1,2.8c2.6,1.9,4,4.3,4.1,7.3l-9,.7c-.1-1.2-.7-2.2-1.6-2.8-.9-.6-2.2-1-3.8-1s-2.4.2-3.2.7c-.8.5-1.1,1.1-1.1,2.1,0,1.8,1.3,2.9,4,3.3l5.5.9c3.1.5,5.5,1.6,7.3,3.3,1.8,1.7,2.6,4,2.6,6.7s-1.3,6-3.8,8.1c-2.6,2.1-6.1,3.1-10.7,3.1s-8.4-1-10.8-2.9c-2.5-1.9-3.8-4.6-4-7.9Z"/>
      <path class="st0" d="M176.1,22.6c-1.3-2.7-3.2-4.8-5.5-6.3-2.3-1.5-4.9-2.3-7.7-2.3s-3.3.2-4.5.6c-1.2.4-2.3,1-3,1.6-.8.7-1.8,1.7-3,3V0h-10v48.4h9.8v-4c1.3,1.2,2.5,2.1,3.3,2.8.8.6,1.8,1.1,3,1.5,1.1.4,2.5.6,4.1.6,2.9,0,5.5-.7,7.9-2.2,2.3-1.5,4.2-3.5,5.5-6.2,1.3-2.6,2-5.7,2-9.1s-.6-6.4-2-9.1ZM165.8,38.7c-1.5,1.8-3.4,2.6-5.9,2.6s-4.3-.9-5.7-2.6c-1.5-1.8-2.2-4.1-2.2-7s.7-5.3,2.2-7.1c1.4-1.8,3.3-2.6,5.7-2.6s4.4.9,5.9,2.6c1.4,1.8,2.1,4.1,2.1,7.1s-.7,5.4-2.1,7.1Z"/>
      <polygon class="st0" points="176.2 14.9 187.1 14.9 194.4 34.1 201.9 14.9 211.7 14.9 192.6 61 183 61 189.4 46.1 176.2 14.9"/>
      <path class="st0" d="M36.9,29.5c-1.7,5.7-6.9,9.8-13,9.8s-13.7-6.1-13.7-13.7,6.1-13.7,13.7-13.7,11.4,4.2,13,9.8h10.5C45.5,10.4,35.7,1.8,23.9,1.8S0,12.5,0,25.6s10.7,23.9,23.9,23.9,21.7-8.7,23.5-20h-10.5Z"/>
    </g>
  </g>
</svg>