<?xml version="1.0" encoding="UTF-8"?>
<svg preserveAspectRatio="xMidYMid slice" xmlns="http://www.w3.org/2000/svg" width="60px" height="20px" viewBox="0 0 265.424 92.856">
  <g id="CLR" transform="translate(-1399.638 -1632.5)">
    <path id="Path_292" data-name="Path 292" d="M78.8,215.724a26.609,26.609,0,1,1,0-15.02H99.174a46.428,46.428,0,1,0,0,15.02Z" transform="translate(1392.658 1470.714)" fill="#fff"></path>
    <path id="Path_293" data-name="Path 293" d="M95.877,163.394H74.83v88.372h74.264V232.077H95.877Z" transform="translate(1425.548 1471.493)" fill="#fff"></path>
    <path id="Path_294" data-name="Path 294" d="M192.158,217.583a30.215,30.215,0,0,0-18.417-54.189H130.6v88.372h21.2v-27.89h18.72l16.077,27.89h25.878Zm-9.373-23.948a9.044,9.044,0,0,1-9.044,9.044H151.8V184.592h21.939A9.044,9.044,0,0,1,182.785,193.635Z" transform="translate(1452.585 1471.493)" fill="#fff"></path>
  </g>
</svg>
