<?xml version="1.0" encoding="UTF-8"?>
<svg width="300px" height="91px" xmlns="http://www.w3.org/2000/svg" id="logo" viewBox="0 0 217.96 66.78">
  <defs>
    <style>
      .cls-1 {
        fill: #333;
        stroke-width: 0px;
      }
    </style>
  </defs>
  <g id="Crosby">
    <g>
      <path class="cls-1" d="M63.33,17.76v5.39c1.06-2.2,2.27-3.76,3.62-4.75,1.35-.99,3.33-1.49,5.95-1.49.92,0,1.7.07,2.34.21v8.51c-1.06-.21-2.2-.35-3.4-.35-2.76,0-4.89.64-6.24,1.98-1.35,1.35-2.06,3.4-2.06,6.31v17.72h-10V17.76h9.78Z"></path>
      <path class="cls-1" d="M108.85,25.56c-1.56-2.62-3.69-4.75-6.45-6.31-2.76-1.56-5.88-2.34-9.43-2.34s-6.59.78-9.36,2.34c-2.76,1.56-4.96,3.69-6.45,6.31-1.49,2.69-2.27,5.67-2.27,9s.78,6.24,2.27,8.93c1.49,2.69,3.69,4.82,6.45,6.31,2.77,1.56,5.88,2.34,9.36,2.34s6.66-.78,9.43-2.34c2.76-1.49,4.89-3.62,6.45-6.31,1.49-2.69,2.27-5.67,2.27-8.93s-.78-6.31-2.27-9ZM98.78,41.58c-1.42,1.77-3.33,2.62-5.81,2.62s-4.32-.85-5.67-2.62c-1.42-1.7-2.13-4.04-2.13-7.02s.71-5.32,2.13-7.09c1.35-1.77,3.26-2.62,5.67-2.62s4.4.85,5.81,2.62c1.35,1.77,2.06,4.11,2.06,7.09s-.71,5.32-2.06,7.02Z"></path>
      <path class="cls-1" d="M112.84,41.3l9-.71c.21,1.49.85,2.62,1.91,3.4,1.06.78,2.41,1.21,4.18,1.21,1.63,0,2.84-.28,3.69-.92.78-.64,1.21-1.42,1.21-2.48s-.35-1.84-1.13-2.48c-.78-.57-1.98-.99-3.54-1.21l-4.04-.64c-3.4-.57-6.03-1.7-7.87-3.33-1.84-1.63-2.76-3.9-2.76-6.66,0-3.19,1.28-5.81,3.76-7.73,2.48-1.91,5.88-2.84,10.07-2.84s7.44.92,10.07,2.77c2.62,1.91,3.97,4.32,4.11,7.3l-9,.71c-.14-1.2-.71-2.2-1.63-2.84-.92-.64-2.2-.99-3.83-.99-1.35,0-2.41.21-3.19.71-.78.5-1.13,1.13-1.13,2.06,0,1.77,1.35,2.91,4.04,3.33l5.53.92c3.12.5,5.53,1.63,7.3,3.33,1.77,1.7,2.62,3.97,2.62,6.73,0,3.33-1.28,6.03-3.83,8.08-2.55,2.06-6.1,3.12-10.7,3.12s-8.36-.99-10.85-2.91c-2.48-1.91-3.83-4.61-3.97-7.94Z"></path>
      <path class="cls-1" d="M179.23,25.49c-1.35-2.69-3.19-4.82-5.53-6.31-2.34-1.49-4.89-2.27-7.66-2.27-1.77,0-3.26.21-4.47.64-1.2.43-2.27.99-3.05,1.63-.78.71-1.77,1.7-2.98,3.05V2.87h-9.99v48.42h9.78v-4.04c1.35,1.21,2.48,2.13,3.33,2.76.85.64,1.84,1.13,3.05,1.49,1.13.43,2.48.64,4.11.64,2.91,0,5.53-.71,7.87-2.2,2.34-1.49,4.18-3.54,5.53-6.24,1.35-2.62,1.98-5.67,1.98-9.15s-.64-6.38-1.98-9.07ZM168.95,41.58c-1.49,1.77-3.4,2.62-5.88,2.62s-4.32-.85-5.74-2.62c-1.49-1.77-2.2-4.11-2.2-7.02s.71-5.32,2.2-7.09c1.42-1.77,3.33-2.62,5.74-2.62s4.39.85,5.88,2.55c1.42,1.77,2.13,4.11,2.13,7.09s-.71,5.39-2.13,7.09Z"></path>
      <polygon class="cls-1" points="179.33 17.76 190.17 17.76 197.55 36.97 204.99 17.76 214.84 17.76 195.7 63.91 186.06 63.91 192.51 49.02 179.33 17.76"></polygon>
      <path class="cls-1" d="M40.02,32.36c-1.68,5.65-6.86,9.81-13.05,9.81-7.54,0-13.67-6.13-13.67-13.67s6.13-13.67,13.67-13.67c6.19,0,11.37,4.16,13.05,9.81h10.47c-1.85-11.34-11.66-20-23.51-20C13.79,4.65,3.11,15.33,3.11,28.5s10.68,23.85,23.85,23.85c11.86,0,21.67-8.66,23.51-20h-10.47Z"></path>
    </g>
  </g>
</svg>
