<?xml version="1.0" encoding="UTF-8"?>
<svg preserveAspectRatio="xMidYMid slice" xmlns="http://www.w3.org/2000/svg" width="60px" height="19px" viewBox="0 0 285.795 92.858">
  <g id="CRM" transform="translate(-1407 -1632.5)">
    <path id="Path_280" data-name="Path 280" d="M196.327,1.608,175.247,64.944,154.465,2.055l-.153-.447H124.894V90h20.117V30.045l19.326,59.5.144.45h21.534L205.62,30.02V90h19.991V1.608Z" transform="translate(1467.183 1633.279)" fill="#fff"></path>
    <path id="Path_281" data-name="Path 281" d="M71.826,53.939a26.609,26.609,0,1,1,0-15.02H92.2a46.429,46.429,0,1,0,0,15.02Z" transform="translate(1407 1632.5)" fill="#fff"></path>
    <path id="Path_282" data-name="Path 282" d="M127.7,55.719A30.141,30.141,0,0,0,109.324,1.607H66.187V89.981h21.2V62.091h18.722l16.076,27.89h25.878ZM109.324,40.893H87.385V22.805h21.939a9.044,9.044,0,0,1,0,18.087" transform="translate(1439.086 1633.278)" fill="#fff"></path>
  </g>
</svg>
